<svg width="21" height="21" viewBox="0 0 21 21" fill="none" xmlns="http://www.w3.org/2000/svg">
<rect x="0.216309" y="0.460938" width="20" height="20" rx="10" fill="black"/>
<path d="M7.54102 14.7416V6.10156H10.997C11.613 6.10156 12.111 6.22556 12.491 6.47356C12.871 6.71756 13.149 7.02556 13.325 7.39756C13.501 7.76956 13.589 8.14556 13.589 8.52556C13.589 9.00956 13.479 9.41156 13.259 9.73156C13.043 10.0516 12.745 10.2656 12.365 10.3736V10.0736C12.905 10.1856 13.309 10.4356 13.577 10.8236C13.849 11.2116 13.985 11.6456 13.985 12.1256C13.985 12.6416 13.889 13.0956 13.697 13.4876C13.509 13.8796 13.221 14.1876 12.833 14.4116C12.445 14.6316 11.957 14.7416 11.369 14.7416H7.54102ZM9.19702 13.2056H11.201C11.421 13.2056 11.617 13.1596 11.789 13.0676C11.961 12.9716 12.095 12.8396 12.191 12.6716C12.291 12.4996 12.341 12.2976 12.341 12.0656C12.341 11.8616 12.299 11.6796 12.215 11.5196C12.131 11.3596 12.003 11.2336 11.831 11.1416C11.663 11.0456 11.453 10.9976 11.201 10.9976H9.19702V13.2056ZM9.19702 9.47356H10.973C11.157 9.47356 11.321 9.44156 11.465 9.37756C11.609 9.31356 11.723 9.21556 11.807 9.08356C11.891 8.94756 11.933 8.77356 11.933 8.56156C11.933 8.29756 11.851 8.07556 11.687 7.89556C11.523 7.71556 11.285 7.62556 10.973 7.62556H9.19702V9.47356Z" fill="white"/>
</svg>
