<svg width="26" height="26" viewBox="0 0 26 26" fill="none" xmlns="http://www.w3.org/2000/svg">
<path d="M6.05137 21.4108C5.17279 21.4106 4.56902 20.8609 4.49692 20.0191L4.4895 19.8472V18.8045C4.4895 16.2042 8.55778 14.1118 12.8223 14.1117C17.0869 14.1117 21.1562 16.2041 21.1562 18.8045L21.1551 19.8472L21.1488 20.0191C21.0815 20.8051 20.5501 21.3361 19.7649 21.4034L19.5932 21.4108L6.05137 21.4108ZM15.1725 8.6541C15.1723 7.42204 14.1476 6.37347 12.8223 6.37347C11.4972 6.3736 10.4734 7.42212 10.4731 8.6541C10.4731 9.88627 11.497 10.9357 12.8223 10.9358C14.1477 10.9358 15.1725 9.88635 15.1725 8.6541ZM6.11707 19.7815H19.5275L19.5286 18.8045L19.5244 18.726C19.481 18.3146 19.0918 17.6146 17.8078 16.9121C16.5228 16.2092 14.7129 15.741 12.8223 15.741C10.9318 15.7411 9.12172 16.2092 7.83682 16.9121C6.46789 17.6611 6.11707 18.4079 6.11707 18.8045L6.11707 19.7815ZM16.7948 8.85565C16.6883 10.9218 14.9502 12.5651 12.8223 12.5651C10.6945 12.565 8.95734 10.9217 8.85087 8.85565L8.84558 8.6541C8.84581 6.49473 10.626 4.74428 12.8223 4.74414C15.0187 4.74414 16.7999 6.49465 16.8001 8.6541L16.7948 8.85565Z" fill="#BCBDBD"/>
</svg>
