<svg width="18" height="18" viewBox="0 0 18 18" fill="none" xmlns="http://www.w3.org/2000/svg">
<path fill-rule="evenodd" clip-rule="evenodd" d="M4.33829 2.21484C4.69038 2.21484 4.97579 2.50026 4.97579 2.85234V4.11156C5.30921 3.82005 5.67558 3.55636 6.07313 3.32627C9.31422 1.45044 13.447 2.49426 15.2922 5.69803C17.1368 8.90082 15.9729 13.0084 12.7326 14.8837C9.49266 16.7589 5.36163 15.7165 3.5155 12.5153C2.91314 11.4968 2.56885 10.2945 2.56885 9.02994C2.56885 8.67786 2.85427 8.39244 3.20635 8.39244C3.55843 8.39244 3.84385 8.67786 3.84385 9.02994C3.84385 10.0643 4.12592 11.0439 4.61452 11.8689L4.61846 11.8756L4.61842 11.8756C6.09846 14.4454 9.4401 15.3162 12.094 13.7802C14.7487 12.2438 15.6679 8.90512 14.1873 6.33436C12.7073 3.76459 9.36565 2.89382 6.7118 4.42978C6.46689 4.57152 6.23681 4.7286 6.02203 4.89898H7.03135C7.38343 4.89898 7.66885 5.1844 7.66885 5.53648C7.66885 5.88857 7.38343 6.17398 7.03135 6.17398H4.6313C4.56523 6.18697 4.49721 6.18952 4.42994 6.18126L4.38093 6.18455C4.20485 6.19635 4.03175 6.13463 3.90285 6.01409C3.77395 5.89354 3.70079 5.72496 3.70079 5.54848L3.70079 2.85234C3.70079 2.50026 3.98621 2.21484 4.33829 2.21484ZM9.37849 6.04921C9.73058 6.04921 10.016 6.33463 10.016 6.68671V9.0315H12.3535C12.7056 9.0315 12.991 9.31692 12.991 9.669C12.991 10.0211 12.7056 10.3065 12.3535 10.3065L9.37849 10.3065C9.02641 10.3065 8.74099 10.0211 8.74099 9.669V6.68671C8.74099 6.33463 9.02641 6.04921 9.37849 6.04921Z" fill="#797A7B"/>
</svg>
