<svg width="16" height="17" viewBox="0 0 16 17" fill="none" xmlns="http://www.w3.org/2000/svg">
<path d="M12.4593 3.56789C12.1832 3.29182 11.7373 3.29182 11.4612 3.56789L7.99968 7.02232L4.53817 3.56081C4.26209 3.28474 3.81613 3.28474 3.54006 3.56081C3.26399 3.83688 3.26399 4.28285 3.54006 4.55892L7.00157 8.02043L3.54006 11.4819C3.26399 11.758 3.26399 12.204 3.54006 12.48C3.81613 12.7561 4.26209 12.7561 4.53817 12.48L7.99968 9.01853L11.4612 12.48C11.7373 12.7561 12.1832 12.7561 12.4593 12.48C12.7354 12.204 12.7354 11.758 12.4593 11.4819L8.99778 8.02043L12.4593 4.55892C12.7283 4.28992 12.7283 3.83688 12.4593 3.56789V3.56789Z" fill="#336AFF"/>
</svg>
