<svg width="18" height="18" viewBox="0 0 18 18" fill="none" xmlns="http://www.w3.org/2000/svg">
<path fill-rule="evenodd" clip-rule="evenodd" d="M9.36909 2.64023C9.13437 2.64023 8.94409 2.83051 8.94409 3.06523C8.94409 3.38041 8.71538 3.64216 8.41486 3.69358C7.57388 3.96414 6.71801 4.55553 6.06844 5.31261C5.40068 6.09087 5.0062 6.97768 5.0062 7.78273V11.4529C5.0062 11.5752 4.97101 11.6949 4.90482 11.7978L4.3748 12.6216H14.3634L13.8334 11.7978C13.7672 11.6949 13.732 11.5752 13.732 11.4529V7.78273C13.732 6.97768 13.3375 6.09087 12.6697 5.31261C12.0202 4.55553 11.1643 3.96414 10.3233 3.69358C10.0228 3.64216 9.79409 3.38041 9.79409 3.06523C9.79409 2.83051 9.60381 2.64023 9.36909 2.64023ZM10.999 2.5807C11.9899 2.96263 12.9249 3.65196 13.6374 4.48237C14.4335 5.41024 15.007 6.58057 15.007 7.78273V11.2655L16.0677 12.9142C16.1939 13.1103 16.2029 13.3598 16.0912 13.5645C15.9795 13.7692 15.7648 13.8966 15.5316 13.8966H11.8806C11.9055 13.9648 11.9191 14.0384 11.9191 14.1152C11.9191 15.5236 10.7774 16.6652 9.36909 16.6652C7.96077 16.6652 6.81909 15.5236 6.81909 14.1152C6.81909 14.0384 6.83267 13.9648 6.85757 13.8966H3.20659C2.97335 13.8966 2.75872 13.7692 2.64699 13.5645C2.53526 13.3598 2.54427 13.1103 2.67047 12.9142L3.7312 11.2655V7.78273C3.7312 6.58057 4.30468 5.41024 5.10079 4.48237C5.81329 3.65196 6.74826 2.96263 7.73914 2.5807C7.94775 1.87788 8.59855 1.36523 9.36909 1.36523C10.1396 1.36523 10.7904 1.87788 10.999 2.5807ZM8.05562 13.8966C8.08051 13.9648 8.09409 14.0384 8.09409 14.1152C8.09409 14.8194 8.66493 15.3902 9.36909 15.3902C10.0733 15.3902 10.6441 14.8194 10.6441 14.1152C10.6441 14.0384 10.6577 13.9648 10.6826 13.8966H8.05562Z" fill="#797A7B"/>
</svg>
