<svg width="32" height="32" viewBox="0 0 32 32" fill="none" xmlns="http://www.w3.org/2000/svg">
<path fill-rule="evenodd" clip-rule="evenodd" d="M16.0013 2.66406C8.63775 2.66406 2.66797 8.63384 2.66797 15.9974C2.66797 23.361 8.63775 29.3307 16.0013 29.3307C23.3649 29.3307 29.3346 23.361 29.3346 15.9974C29.3346 8.63384 23.3649 2.66406 16.0013 2.66406Z" fill="#009393"/>
<path fill-rule="evenodd" clip-rule="evenodd" d="M17.5829 17.6127C17.4946 17.6188 17.0379 17.6442 16.0192 17.6442C15.209 17.6442 14.6337 17.6216 14.4319 17.6127C11.3008 17.4845 8.96364 16.9773 8.96364 16.37C8.96364 15.7627 11.3008 15.2562 14.4319 15.126V17.1075C14.6367 17.1212 15.223 17.1534 16.0332 17.1534C17.0055 17.1534 17.4924 17.1157 17.58 17.1082V15.1274C20.7045 15.2569 23.0365 15.7641 23.0365 16.37C23.0365 16.9759 20.7053 17.4831 17.58 17.612L17.5829 17.6127ZM17.5829 14.9224V13.1493H21.9434V10.4453H10.0714V13.1493H14.4312V14.9217C10.8876 15.0732 8.22266 15.7264 8.22266 16.5092C8.22266 17.2919 10.8876 17.9444 14.4312 18.0966V23.7786H17.5822V18.0945C21.1177 17.943 23.7782 17.2905 23.7782 16.5085C23.7782 15.7264 21.1199 15.0739 17.5822 14.9217L17.5829 14.9224Z" fill="white"/>
</svg>
