<?xml version="1.0" encoding="UTF-8"?>
<svg id="Layer_1" xmlns="http://www.w3.org/2000/svg" version="1.1" viewBox="0 0 21 21">
  <!-- Generator: Adobe Illustrator 29.8.1, SVG Export Plug-In . SVG Version: 2.1.1 Build 2)  -->
  <defs>
    <style>
      .st0 {
        fill: #2250f7;
      }
    </style>
  </defs>
  <path class="st0" d="M15.8,18h-2.3v-1h2.3c.8,0,1.5-.7,1.5-1.5v-2.3h1v2.3c0,1.4-1.1,2.5-2.5,2.5ZM7.9,18h-2.3c-1.4,0-2.5-1.1-2.5-2.5v-2.3h1v2.3c0,.8.7,1.5,1.5,1.5h2.3v1ZM17.8,10.9H3.6v-1h14.2v1ZM18.3,7.6h-1v-2.3c0-.8-.7-1.5-1.5-1.5h-2.3v-1h2.3c1.4,0,2.5,1.1,2.5,2.5v2.3ZM4.1,7.6h-1v-2.3c0-1.4,1.1-2.5,2.5-2.5h2.3v1h-2.3c-.8,0-1.5.7-1.5,1.5v2.3Z"/>
</svg>