<svg width="17" height="17" viewBox="0 0 17 17" fill="none" xmlns="http://www.w3.org/2000/svg">
<path d="M11.4057 7.91499L9.0122 5.78836C8.92362 5.70966 8.91474 5.57002 8.99258 5.47976L9.72761 4.62741C9.8023 4.5408 9.92934 4.53197 10.0143 4.60749L14.1522 8.28343C14.3944 8.49865 14.3944 8.88955 14.1522 9.10478L10.0143 12.7807C9.92934 12.8562 9.8023 12.8474 9.72761 12.7608L8.99258 11.9084C8.91475 11.8182 8.92362 11.6785 9.0122 11.5998L11.4057 9.47321L3.42254 9.47321C3.30864 9.47321 3.21631 9.37669 3.21631 9.25763L3.21631 8.13057C3.21631 8.01151 3.30864 7.91499 3.42254 7.91499L11.4057 7.91499Z" fill="#FCFEFF"/>
</svg>
