<svg width="18" height="18" viewBox="0 0 18 18" fill="none" xmlns="http://www.w3.org/2000/svg">
<path fill-rule="evenodd" clip-rule="evenodd" d="M12.5825 4.42029C11.8037 3.64149 10.541 3.64149 9.76223 4.42029L5.46248 8.72004C4.30067 9.88185 4.30067 11.7655 5.46248 12.9273C6.62429 14.0891 8.50795 14.0891 9.66976 12.9273L12.8252 9.77186C13.0742 9.5229 13.4778 9.5229 13.7268 9.77186C13.9757 10.0208 13.9757 10.4245 13.7268 10.6734L10.5713 13.8289C8.91159 15.4886 6.22064 15.4886 4.56091 13.8289C2.90119 12.1692 2.90119 9.47821 4.56091 7.81848L8.86067 3.51873C10.1374 2.24201 12.2073 2.24201 13.4841 3.51873C14.7608 4.79544 14.7608 6.8654 13.4841 8.14212L9.2132 12.413C8.36738 13.2588 6.99603 13.2588 6.15021 12.413C5.30438 11.5672 5.30438 10.1958 6.15021 9.34998L10.4789 5.02133C10.7278 4.77237 11.1315 4.77237 11.3804 5.02133C11.6294 5.27029 11.6294 5.67393 11.3804 5.92289L7.05177 10.2515C6.70386 10.5994 6.70386 11.1635 7.05177 11.5114C7.39967 11.8593 7.96374 11.8593 8.31164 11.5114L12.5825 7.24056C13.3613 6.46176 13.3613 5.19908 12.5825 4.42029Z" fill="#797A7B"/>
</svg>
