<svg width="21" height="21" viewBox="0 0 21 21" fill="none" xmlns="http://www.w3.org/2000/svg">
<path d="M15.6567 2.89844C16.7613 2.89844 17.6567 3.79387 17.6567 4.89844L17.6567 13.6777C17.6567 14.7823 16.7613 15.6777 15.6567 15.6777L4.77689 15.6777C3.67232 15.6777 2.77689 14.7823 2.77689 13.6777L2.77689 4.89844C2.77689 3.79387 3.67232 2.89844 4.77689 2.89844L15.6567 2.89844Z" stroke="#2250F7"/>
<path d="M15.696 5.23828L15.696 13.3398L4.73758 13.3398L4.73758 5.23828L15.696 5.23828Z" stroke="#2250F7"/>
<path d="M11.2173 15.9609L11.2173 16.2109L9.21628 16.2109L9.21628 15.9609L11.2173 15.9609Z" stroke="#2250F7"/>
<path d="M17.1211 18.0195C18.2257 18.0195 19.1211 17.1241 19.1211 16.0195L19.1211 15.6777L1.31253 15.6777L1.31253 16.0195C1.31253 17.1241 2.20796 18.0195 3.31253 18.0195L17.1211 18.0195Z" stroke="#2250F7"/>
</svg>
