<svg width="26" height="26" viewBox="0 0 26 26" fill="none" xmlns="http://www.w3.org/2000/svg">
<path d="M14.9061 16.4635C15.3376 16.4635 15.6873 16.8133 15.6873 17.2448C15.6873 17.6763 15.3376 18.026 14.9061 18.026H8.65609C8.22461 18.026 7.87484 17.6763 7.87484 17.2448C7.87484 16.8133 8.22461 16.4635 8.65609 16.4635H14.9061Z" fill="#BCBDBD"/>
<path d="M13.3436 12.8177C13.7751 12.8177 14.1248 13.1675 14.1248 13.599C14.1248 14.0304 13.7751 14.3802 13.3436 14.3802L8.65609 14.3802C8.22461 14.3802 7.87484 14.0304 7.87484 13.599C7.87484 13.1675 8.22461 12.8177 8.65609 12.8177L13.3436 12.8177Z" fill="#BCBDBD"/>
<path fill-rule="evenodd" clip-rule="evenodd" d="M15.3008 3.70313C15.5887 3.70313 15.8637 3.82267 16.0607 4.03271L20.3535 8.61137C20.5344 8.80441 20.6353 9.05889 20.6353 9.32345L20.6353 21.4115C20.6353 21.9868 20.1689 22.4531 19.5936 22.4531L6.05192 22.4531C5.47662 22.4531 5.01025 21.9868 5.01025 21.4115L5.01025 4.74479C5.01025 4.1695 5.47662 3.70312 6.05192 3.70312L15.3008 3.70313ZM7.09359 5.26562C6.80594 5.26562 6.57275 5.49881 6.57275 5.78646L6.57275 20.3698C6.57275 20.6574 6.80594 20.8906 7.09359 20.8906L18.5519 20.8906C18.8396 20.8906 19.0728 20.6574 19.0728 20.3698L19.0728 10.7344L14.9061 10.7344C14.4746 10.7344 14.1248 10.3846 14.1248 9.95312L14.1248 5.26562L7.09359 5.26562ZM15.6873 9.17187H18.7381L15.6873 5.91768V9.17187Z" fill="#BCBDBD"/>
</svg>
