<svg width="20" height="20" viewBox="0 0 20 20" fill="none" xmlns="http://www.w3.org/2000/svg">
<path fill-rule="evenodd" clip-rule="evenodd" d="M13.0492 2.84943C14.1817 1.71686 16.018 1.71686 17.1506 2.84943C18.2832 3.98201 18.2832 5.81828 17.1506 6.95086L7.41842 16.683C7.32486 16.7766 7.20822 16.8437 7.08033 16.8776L2.94225 17.9749C2.68341 18.0436 2.40762 17.969 2.21864 17.7793C2.02966 17.5896 1.95618 17.3135 2.02584 17.0549L3.14716 12.8928C3.18132 12.766 3.24817 12.6504 3.34101 12.5576L13.0492 2.84943ZM16.0899 3.91009C15.5431 3.3633 14.6566 3.3633 14.1098 3.91009L13.2926 4.72727L15.2727 6.70738L16.0899 5.8902C16.6367 5.34341 16.6367 4.45688 16.0899 3.91009ZM14.2121 7.76804L12.232 5.78793L4.54339 13.4765L3.81165 16.1926L6.5006 15.4795L14.2121 7.76804Z" fill="#7C7C7C"/>
</svg>
