<svg width="26" height="26" viewBox="0 0 26 26" fill="none" xmlns="http://www.w3.org/2000/svg">
<path d="M9.18476 13.2325C9.50518 12.9833 9.96748 13.0406 10.2169 13.3608C10.4661 13.6812 10.4088 14.1435 10.0886 14.3929L7.36755 16.5088H18.4604C18.8665 16.5088 19.1957 16.838 19.1957 17.2441C19.1956 17.6501 18.8665 17.9794 18.4604 17.9794H7.36755L10.0886 20.0953L10.1451 20.1441C10.4147 20.4014 10.4506 20.8268 10.2169 21.1273C9.96748 21.4475 9.50517 21.5048 9.18476 21.2556L4.7729 17.8243C4.71287 17.7775 4.66186 17.7218 4.61971 17.6605C4.6175 17.6573 4.61517 17.6542 4.61301 17.651C4.59056 17.6172 4.57117 17.5816 4.55461 17.5447C4.55021 17.5349 4.54614 17.525 4.54216 17.515C4.52702 17.4769 4.51439 17.4377 4.50578 17.3973C4.50297 17.384 4.50116 17.3705 4.49908 17.357C4.4933 17.3199 4.48951 17.2822 4.4895 17.2441C4.4895 17.2073 4.49274 17.1708 4.49812 17.1349C4.50037 17.1198 4.50262 17.1047 4.50578 17.0899C4.51455 17.049 4.52667 17.0089 4.54216 16.9703C4.54579 16.9612 4.54968 16.9523 4.55365 16.9434C4.57035 16.9061 4.5903 16.8703 4.61301 16.8362C4.61518 16.833 4.6175 16.8298 4.61971 16.8266C4.66178 16.7656 4.71307 16.7105 4.7729 16.6639L9.18476 13.2325Z" fill="#BCBDBD"/>
<path d="M16.4613 4.89917C16.1408 4.64996 15.6785 4.70727 15.4292 5.02747C15.18 5.34788 15.2373 5.81018 15.5574 6.05956L18.2785 8.17544L7.18564 8.17544C6.77954 8.17544 6.45034 8.50465 6.45034 8.91074C6.45038 9.31679 6.77957 9.64603 7.18564 9.64603L18.2785 9.64603L15.5574 11.7619L15.501 11.8107C15.2314 12.0681 15.1954 12.4935 15.4292 12.794C15.6785 13.1142 16.1409 13.1715 16.4613 12.9223L20.8731 9.49093C20.9332 9.44417 20.9842 9.38847 21.0263 9.32721C21.0285 9.324 21.0308 9.32088 21.033 9.31764C21.0555 9.28386 21.0749 9.24831 21.0914 9.21137C21.0958 9.20158 21.0999 9.19169 21.1039 9.18169C21.119 9.14353 21.1316 9.10433 21.1402 9.06392C21.1431 9.05068 21.1449 9.03721 21.1469 9.02371C21.1527 8.98657 21.1565 8.94889 21.1565 8.91074C21.1565 8.87393 21.1533 8.83747 21.1479 8.80159C21.1457 8.78646 21.1434 8.77141 21.1402 8.75659C21.1315 8.71562 21.1194 8.67556 21.1039 8.63692C21.1002 8.62788 21.0963 8.61897 21.0924 8.61011C21.0757 8.57279 21.0557 8.53697 21.033 8.50288C21.0308 8.49964 21.0285 8.49651 21.0263 8.49331C20.9842 8.43228 20.933 8.37715 20.8731 8.33054L16.4613 4.89917Z" fill="#BCBDBD"/>
</svg>
