<?xml version="1.0" encoding="UTF-8"?>
<svg id="Layer_1" xmlns="http://www.w3.org/2000/svg" version="1.1" viewBox="0 0 26 26">
  <!-- Generator: Adobe Illustrator 29.7.1, SVG Export Plug-In . SVG Version: 2.1.1 Build 8)  -->
  <defs>
    <style>
      .st0 {
        fill: #797a7b;
      }
    </style>
  </defs>
  <path class="st0" d="M18.6,4.6c.7-.4,1.5-.5,2.1-.3.3.1.6.4.8.7.2.3.2.7,0,1h0c-1.6,8.4-2.9,14.7-3.1,15.6-.1.6-.3,1.1-.6,1.4-.2.4-.7.8-1.3.8-.3,0-.6-.2-.7-.3-.1-.1-.3-.2-.4-.3-.1-.1-.2-.2-.3-.3-.1-.1-.2-.2-.3-.3-.1-.1-.9-1-1.6-1.9-.4-.4-.7-.9-1-1.2-.1-.2-.3-.3-.4-.4,0,0,0-.1-.1-.1l-3.8-3h0s-.3,0-.3,0h0s0,0,0,0c0,0,0,0,0,0,0,0,0,0-.1,0-.1,0-.3,0-.4,0-.4,0-.9-.1-1.4-.2-1-.2-2.1-.3-2.3-.4h0c-.8-.1-1.5-.8-1.5-1.7,0-.8.5-1.6,1.3-2h0s0,0,0,0c6.6-3.1,14.7-6.8,15.4-7.2ZM3.5,13.8c0,.1,0,.2.2.2h0s0,0,0,0h0c.2,0,1.3.2,2.3.3.5,0,1,.2,1.4.2.1,0,.2,0,.3,0l.6-.5h0s0,0,0,0l6.3-3.1-4.3,5,4.3,3.9c-.7-.8,0,0,0,0,.4.4.7.9,1,1.2.1.2.3.3.4.4,0,0,0,0,.1.1,0,0,0,0,0,0,0,0,.2.2.3.3,0,.1.2.2.3.3,0,0,0,0,0,0h0c.1-.2.3-.5.3-.9h0c.2-.9,1.5-7.2,3.1-15.6h0s0,0,0,0c0,0,0,0,0,0,0,0-.1,0-.2,0-.2,0-.4,0-.7.2h0s0,0,0,0c-.7.3-8.8,4.1-15.4,7.2h-.1c-.2.2-.3.4-.3.6Z"/>
</svg>