<svg width="17" height="17" viewBox="0 0 17 17" fill="none" xmlns="http://www.w3.org/2000/svg">
<path d="M11.4339 10.2836C11.0398 10.2836 10.6872 10.4443 10.4176 10.6959L6.72057 8.47373C6.7465 8.35057 6.76724 8.22741 6.76724 8.09889C6.76724 7.97038 6.7465 7.84722 6.72057 7.72406L10.3761 5.52326C10.6561 5.79099 11.0243 5.95699 11.4339 5.95699C12.2946 5.95699 12.9895 5.23945 12.9895 4.35057C12.9895 3.46168 12.2946 2.74414 11.4339 2.74414C10.5732 2.74414 9.87835 3.46168 9.87835 4.35057C9.87835 4.47908 9.89909 4.60224 9.92502 4.7254L6.26946 6.9262C5.98946 6.65846 5.62131 6.49247 5.21168 6.49247C4.35094 6.49247 3.65613 7.21 3.65613 8.09889C3.65613 8.98778 4.35094 9.70532 5.21168 9.70532C5.62131 9.70532 5.98946 9.53932 6.26946 9.27158L9.96131 11.4992C9.93539 11.6116 9.91983 11.7294 9.91983 11.8472C9.91983 12.7093 10.5991 13.4108 11.4339 13.4108C12.2687 13.4108 12.948 12.7093 12.948 11.8472C12.948 10.9851 12.2687 10.2836 11.4339 10.2836Z" fill="#2250F7"/>
</svg>
