<svg width="25" height="25" viewBox="0 0 25 25" fill="none" xmlns="http://www.w3.org/2000/svg">
<circle cx="12.8691" cy="12.0156" r="10" fill="white"/>
<path fill-rule="evenodd" clip-rule="evenodd" d="M12.8691 22.0156C18.392 22.0156 22.8691 17.5385 22.8691 12.0156C22.8691 6.49278 18.392 2.01562 12.8691 2.01562C7.34629 2.01562 2.86914 6.49278 2.86914 12.0156C2.86914 17.5385 7.34629 22.0156 12.8691 22.0156ZM18.1867 8.19098C18.071 8.07386 17.9133 8.00775 17.7487 8.00733C17.584 8.0069 17.426 8.07219 17.3096 8.18871L10.9223 14.7518L8.42883 12.2563C8.31274 12.1401 8.15519 12.0749 7.99094 12.0751C7.8267 12.0753 7.66928 12.1408 7.55343 12.2572L7.12466 12.688C6.88445 12.9294 6.88471 13.3196 7.12523 13.5607L10.4849 16.9278C10.6009 17.044 10.7583 17.1093 10.9224 17.1094C11.0866 17.1094 11.244 17.0441 11.3599 16.9279L18.6133 9.49607C18.8533 9.25563 18.8543 8.86654 18.6155 8.62488L18.1867 8.19098Z" fill="#5AC47D"/>
</svg>
