<svg width="18" height="18" viewBox="0 0 18 18" fill="none" xmlns="http://www.w3.org/2000/svg">
<path fill-rule="evenodd" clip-rule="evenodd" d="M11.8925 3.25313C12.1414 3.00417 12.5451 3.00417 12.7941 3.25313L15.1316 5.59063C15.3805 5.83959 15.3805 6.24323 15.1316 6.49219L12.7941 8.82969C12.5451 9.07865 12.1415 9.07865 11.8925 8.82969C11.6435 8.58073 11.6435 8.17709 11.8925 7.92813L13.1417 6.67891H8.05279C7.70071 6.67891 7.41529 6.39349 7.41529 6.04141C7.41529 5.68933 7.70071 5.40391 8.05279 5.40391H13.1417L11.8925 4.15469C11.6435 3.90573 11.6435 3.50208 11.8925 3.25313ZM6.84595 9.20312C7.09491 9.45208 7.09491 9.85573 6.84595 10.1047L5.59673 11.3539L10.6856 11.3539C11.0377 11.3539 11.3231 11.6393 11.3231 11.9914C11.3231 12.3435 11.0377 12.6289 10.6856 12.6289L5.59673 12.6289L6.84595 13.8781C7.09491 14.1271 7.09491 14.5307 6.84595 14.7797C6.59699 15.0286 6.19334 15.0286 5.94439 14.7797L3.60689 12.4422C3.35793 12.1932 3.35793 11.7896 3.60689 11.5406L5.94438 9.20312C6.19334 8.95416 6.59699 8.95416 6.84595 9.20312Z" fill="#797A7B"/>
</svg>
