<svg width="26" height="26" viewBox="0 0 26 26" fill="none" xmlns="http://www.w3.org/2000/svg">
<path d="M20.3749 19.8484C20.8064 19.8484 21.1561 20.1982 21.1562 20.6296C21.1562 21.0611 20.8064 21.4109 20.3749 21.4109L5.27075 21.4109C4.83928 21.4109 4.4895 21.0611 4.4895 20.6296C4.48956 20.1982 4.83932 19.8484 5.27075 19.8484H20.3749Z" fill="#BCBDBD"/>
<path d="M8.65617 11.7755C9.08761 11.7755 9.43736 12.1253 9.43742 12.5567L9.43742 18.2859C9.43742 18.7174 9.08764 19.0671 8.65617 19.0671C8.2247 19.0671 7.87492 18.7174 7.87492 18.2859V12.5567C7.87498 12.1253 8.22473 11.7755 8.65617 11.7755Z" fill="#BCBDBD"/>
<path d="M12.8228 11.7755C13.2543 11.7755 13.604 12.1253 13.6041 12.5567V18.2859C13.6041 18.7174 13.2543 19.0671 12.8228 19.0671C12.3914 19.0671 12.0416 18.7174 12.0416 18.2859L12.0416 12.5567C12.0416 12.1253 12.3914 11.7755 12.8228 11.7755Z" fill="#BCBDBD"/>
<path d="M16.9895 11.7755C17.4209 11.7755 17.7707 12.1253 17.7708 12.5567V18.2859C17.7708 18.7174 17.421 19.0671 16.9895 19.0671C16.558 19.0671 16.2083 18.7174 16.2083 18.2859V12.5567C16.2083 12.1253 16.5581 11.7755 16.9895 11.7755Z" fill="#BCBDBD"/>
<path fill-rule="evenodd" clip-rule="evenodd" d="M12.4831 4.82154C12.7331 4.70077 13.0328 4.7215 13.2664 4.88257L20.8184 10.0909L20.8815 10.1397C21.1831 10.3963 21.2474 10.8443 21.0178 11.1773C20.7882 11.5102 20.3465 11.6099 19.9996 11.4194L19.9314 11.3767L18.2438 10.212L18.2397 10.213L7.40597 10.213L7.40088 10.212L5.71427 11.3767C5.35911 11.6217 4.87283 11.5324 4.62785 11.1773C4.38296 10.8222 4.47214 10.3359 4.82723 10.0909L12.3793 4.88257L12.4831 4.82154ZM9.6663 8.65048L15.9794 8.65048L12.8228 6.47356L9.6663 8.65048Z" fill="#BCBDBD"/>
</svg>
