<svg width="77" height="77" viewBox="0 0 77 77" fill="none" xmlns="http://www.w3.org/2000/svg">
<path d="M52.3457 57.1268C51.5209 56.3014 50.2244 56.2155 49.2232 56.8143C47.5023 57.8434 45.624 58.6349 43.6331 59.1419C42.5034 59.4296 41.648 60.4074 41.648 61.5741V63.376C41.648 64.7891 42.8826 65.8943 44.2628 65.5966C47.5459 64.8884 50.6108 63.5943 53.3441 61.829C54.531 61.0624 54.6237 59.4064 53.6248 58.4068L52.3457 57.1268Z" fill="#2250F7"/>
<path d="M61.3336 41.8715C60.1681 41.8716 59.1913 42.7275 58.9039 43.858C58.3972 45.8508 57.6065 47.7307 56.5783 49.4533C55.9801 50.4554 56.0659 51.753 56.8907 52.5785L58.1693 53.8582C59.1682 54.8579 60.8227 54.7651 61.5886 53.5772C63.3525 50.8415 64.6456 47.7743 65.3532 44.4883C65.6506 43.1069 64.5462 41.8712 63.1343 41.8714L61.3336 41.8715Z" fill="#2250F7"/>
<path d="M56.8904 24.7307C56.0657 25.5561 55.9798 26.8538 56.578 27.8559C57.6064 29.5784 58.3972 31.4585 58.9037 33.4517C59.1911 34.5825 60.1681 35.4386 61.3339 35.4386H63.1341C64.546 35.4386 65.6503 34.203 65.3528 32.8216C64.6452 29.5357 63.3522 26.4681 61.5883 23.7321C60.8224 22.5441 59.1679 22.4513 58.169 23.451L56.8904 24.7307Z" fill="#2250F7"/>
<path d="M41.8977 15.3241C41.8805 16.4913 42.7221 17.4822 43.8488 17.7841C45.7855 18.303 47.6614 19.1005 49.4122 20.1774C50.4053 20.7883 51.7022 20.7214 52.5386 19.9086L53.8302 18.6535C54.8432 17.6691 54.7754 16.0127 53.6005 15.229C50.8058 13.3648 47.743 12.0655 44.5733 11.3323C43.197 11.014 41.9452 12.1009 41.9244 13.5145L41.8977 15.3241Z" fill="#2250F7"/>
<path d="M35.2215 61.4325C35.2483 60.2655 34.4149 59.2677 33.2908 58.9565C31.3584 58.4216 29.4892 57.6086 27.7474 56.5172C26.7593 55.8981 25.4619 55.9543 24.6188 56.7601L23.3169 58.0045C22.2958 58.9804 22.3499 60.6374 23.5183 61.4307C26.2975 63.318 29.3494 64.6427 32.513 65.4021C33.8867 65.7318 35.1473 64.6553 35.1798 63.2418L35.2215 61.4325Z" fill="#2250F7"/>
<path fill-rule="evenodd" clip-rule="evenodd" d="M43.3096 57.8695C45.1752 57.3945 46.936 56.6526 48.5503 55.6872C50.0023 54.8189 51.972 54.8961 53.2733 56.1983L54.5524 57.4784C56.0773 59.0043 56.0202 61.6634 54.0554 62.9324C51.192 64.7817 47.9802 66.138 44.5392 66.8803C42.2537 67.3733 40.3361 65.533 40.3361 63.3761V61.5742C40.3361 59.7331 41.6733 58.2862 43.3096 57.8695ZM55.4521 48.7799C56.4166 47.1641 57.1577 45.4017 57.6325 43.5343C58.0488 41.8968 59.4943 40.5588 61.3335 40.5586L63.1342 40.5584C65.2893 40.5582 67.1282 42.4774 66.6357 44.765C65.8941 48.2091 64.5388 51.4233 62.691 54.2892C61.4232 56.2555 58.7665 56.3129 57.2417 54.7868L55.963 53.507C54.6618 52.2047 54.5846 50.2332 55.4521 48.7799ZM57.6323 33.7755C57.1577 31.9078 56.4165 30.1453 55.4518 28.5295C54.5843 27.0762 54.6615 25.1047 55.9627 23.8023L57.2414 22.5226C58.7661 20.9965 61.423 21.0539 62.6907 23.0203C64.5385 25.8865 65.8937 29.1011 66.6353 32.5451C67.1279 34.8326 65.2892 36.7518 63.1342 36.7518H61.3339C59.4942 36.7518 58.0485 35.4133 57.6323 33.7755ZM48.7253 21.2961C47.0848 20.2871 45.3263 19.5393 43.5096 19.0526C41.8757 18.6148 40.5588 17.1465 40.586 15.3049L40.6126 13.4953C40.6444 11.3373 42.5905 9.52611 44.8687 10.0531C48.1893 10.8212 51.399 12.1827 54.3282 14.1365C56.2737 15.4343 56.2903 18.0932 54.7441 19.5957L53.4525 20.8508C52.1326 22.1334 50.1638 22.181 48.7253 21.2961ZM28.4436 55.4044C30.0757 56.427 31.8279 57.1893 33.6405 57.6911C35.2708 58.1424 36.5754 59.6216 36.5331 61.4629L36.4914 63.2722C36.4418 65.4298 34.4809 67.2248 32.2071 66.679C28.893 65.8835 25.6946 64.4954 22.7817 62.5174C20.847 61.2036 20.8523 58.5447 22.4108 57.055L23.7128 55.8106C25.0432 54.539 27.0124 54.5077 28.4436 55.4044ZM41.8977 15.3241C41.8805 16.4913 42.7221 17.4822 43.8488 17.7841C45.7855 18.303 47.6614 19.1005 49.4122 20.1774C50.4053 20.7883 51.7022 20.7214 52.5386 19.9086L53.8302 18.6535C54.8432 17.6691 54.7754 16.0127 53.6005 15.229C50.8058 13.3648 47.743 12.0655 44.5733 11.3323C43.197 11.014 41.9452 12.1009 41.9244 13.5145L41.8977 15.3241ZM49.2232 56.8143C50.2244 56.2155 51.5209 56.3014 52.3457 57.1268L53.6248 58.4068C54.6237 59.4064 54.531 61.0624 53.3441 61.829C50.6108 63.5943 47.5459 64.8884 44.2628 65.5966C42.8826 65.8943 41.648 64.7891 41.648 63.376V61.5741C41.648 60.4074 42.5034 59.4296 43.6331 59.1419C45.624 58.6349 47.5023 57.8434 49.2232 56.8143ZM61.3336 41.8715C60.1681 41.8716 59.1913 42.7275 58.9039 43.858C58.3972 45.8508 57.6065 47.7307 56.5783 49.4533C55.9801 50.4554 56.0659 51.753 56.8907 52.5785L58.1693 53.8582C59.1682 54.8579 60.8227 54.7651 61.5886 53.5772C63.3525 50.8415 64.6456 47.7743 65.3532 44.4883C65.6506 43.1069 64.5462 41.8712 63.1343 41.8714L61.3336 41.8715ZM56.578 27.8559C55.9798 26.8538 56.0657 25.5561 56.8904 24.7307L58.169 23.451C59.1679 22.4513 60.8224 22.5441 61.5883 23.7321C63.3522 26.4681 64.6452 29.5357 65.3528 32.8216C65.6503 34.203 64.546 35.4386 63.1341 35.4386H61.3339C60.1681 35.4386 59.1911 34.5825 58.9037 33.4517C58.3972 31.4585 57.6064 29.5784 56.578 27.8559ZM33.2908 58.9565C34.4149 59.2677 35.2483 60.2655 35.2215 61.4325L35.1798 63.2418C35.1473 64.6553 33.8867 65.7318 32.513 65.4021C29.3494 64.6427 26.2975 63.318 23.5183 61.4307C22.3499 60.6374 22.2958 58.9804 23.3169 58.0045L24.6188 56.7601C25.4619 55.9543 26.7593 55.8981 27.7474 56.5172C29.4892 57.6086 31.3584 58.4216 33.2908 58.9565Z" fill="#2250F7"/>
<path opacity="0.15" fill-rule="evenodd" clip-rule="evenodd" d="M33.1229 19.3961C31.2574 19.8712 29.4966 20.613 27.8822 21.5784C26.4303 22.4467 24.4605 22.3695 23.1593 21.0673L21.8802 19.7873C20.3553 18.2613 20.4124 15.6022 22.3771 14.3333C25.2406 12.484 28.4524 11.1276 31.8934 10.3854C34.1789 9.89237 36.0965 11.7326 36.0965 13.8895V15.6914C36.0965 17.5326 34.7592 18.9794 33.1229 19.3961ZM20.9805 28.4857C20.016 30.1015 19.2749 31.8639 18.8001 33.7313C18.3838 35.3688 16.9383 36.7069 15.0991 36.707L13.2984 36.7072C11.1432 36.7074 9.30434 34.7882 9.79691 32.5006C10.5385 29.0565 11.8938 25.8423 13.7416 22.9764C15.0094 21.0101 17.6661 20.9528 19.1909 22.4788L20.4696 23.7586C21.7708 25.0609 21.848 27.0325 20.9805 28.4857ZM18.8002 43.4901C19.2749 45.3579 20.0161 47.1204 20.9807 48.7362C21.8483 50.1894 21.7711 52.161 20.4698 53.4633L19.1912 54.743C17.6664 56.2691 15.0096 56.2118 13.7419 54.2453C11.8941 51.3792 10.5389 48.1645 9.79725 44.7206C9.30467 42.4331 11.1433 40.5138 13.2984 40.5138H15.0987C16.9383 40.5138 18.384 41.8523 18.8002 43.4901Z" fill="#2250F7"/>
</svg>
