<svg width="17" height="21" viewBox="0 0 17 21" fill="none" xmlns="http://www.w3.org/2000/svg">
<path d="M3.41626 10.7023C3.41626 8.05138 5.56529 5.90234 8.21626 5.90234C10.8672 5.90234 13.0163 8.05138 13.0163 10.7023C13.0163 13.3533 10.8672 15.5023 8.21626 15.5023C5.56529 15.5023 3.41626 13.3533 3.41626 10.7023Z" fill="white"/>
<path fill-rule="evenodd" clip-rule="evenodd" d="M8.21623 4.03516C4.53433 4.03516 1.54956 7.01992 1.54956 10.7018C1.54956 14.3837 4.53433 17.3685 8.21623 17.3685C11.8981 17.3685 14.8829 14.3837 14.8829 10.7018C14.8829 7.01992 11.8981 4.03516 8.21623 4.03516ZM8.21742 14.7424C7.66795 14.7424 7.22251 14.297 7.22251 13.7475V10.3389C7.22251 9.78938 7.66795 9.34395 8.21742 9.34395C8.76689 9.34395 9.21232 9.78938 9.21232 10.3389V13.7475C9.21232 14.297 8.76689 14.7424 8.21742 14.7424ZM7.31371 7.56771C7.31371 7.06564 7.72072 6.65862 8.2228 6.65862C8.72487 6.65862 9.13189 7.06564 9.13189 7.56771C9.13189 8.06979 8.72487 8.4768 8.2228 8.4768C7.72072 8.4768 7.31371 8.06979 7.31371 7.56771Z" fill="#4D88FF"/>
</svg>
