<svg width="16" height="16" viewBox="0 0 16 16" fill="none" xmlns="http://www.w3.org/2000/svg">
<path d="M6.98446 5.4821C6.98446 5.08281 7.30815 4.75912 7.70744 4.75912C8.10673 4.75912 8.43042 5.08281 8.43042 5.4821C8.43042 5.88139 8.10673 6.20508 7.70744 6.20508C7.30815 6.20508 6.98446 5.88139 6.98446 5.4821Z" fill="#2F9752"/>
<path d="M13.2661 8.0013C13.2661 4.9331 10.7789 2.44549 7.71077 2.44531C4.64247 2.44531 2.15479 4.93299 2.15479 8.0013C2.15496 11.0695 4.64257 13.5566 7.71077 13.5566V14.5566L7.37288 14.5482C4.02097 14.3782 1.33326 11.6905 1.16325 8.33854L1.15479 8.0013C1.15479 4.38071 4.09018 1.44531 7.71077 1.44531L8.04801 1.45378C11.5117 1.62946 14.2661 4.49392 14.2661 8.0013L14.2577 8.33854C14.082 11.8022 11.218 14.5565 7.71077 14.5566V13.5566C10.7788 13.5565 13.2659 11.0694 13.2661 8.0013Z" fill="#2F9752"/>
<path d="M7.20752 11.2402L7.20752 7.4069L8.20752 7.4069L8.20752 11.2402L7.20752 11.2402Z" fill="#2F9752"/>
</svg>
