<svg width="22" height="22" viewBox="0 0 22 22" fill="none" xmlns="http://www.w3.org/2000/svg">
<path d="M4.88846 17.7769C4.13873 17.7767 3.62352 17.3077 3.56199 16.5893L3.55566 16.4427L3.55566 15.5529C3.55566 13.3339 7.02726 11.5484 10.6663 11.5484C14.3055 11.5484 17.7779 13.3339 17.7779 15.5529L17.777 16.4427L17.7716 16.5893C17.7141 17.26 17.2607 17.7132 16.5907 17.7706L16.4442 17.7769H4.88846ZM12.6718 6.89119C12.6716 5.83983 11.7972 4.94505 10.6663 4.94505C9.53554 4.94516 8.6619 5.83989 8.6617 6.89119C8.6617 7.94264 9.53541 8.83812 10.6663 8.83824C11.7973 8.83824 12.6718 7.94271 12.6718 6.89119ZM4.94452 16.3865H16.3881L16.389 15.5529L16.3854 15.4859C16.3484 15.1348 16.0163 14.5375 14.9206 13.938C13.8241 13.3382 12.2796 12.9387 10.6663 12.9387C9.05305 12.9387 7.50849 13.3382 6.41204 13.938C5.24389 14.5772 4.94452 15.2144 4.94452 15.5529V16.3865ZM14.0562 7.06317C13.9653 8.82632 12.4822 10.2286 10.6663 10.2286C8.8506 10.2285 7.36822 8.82624 7.27737 7.06317L7.27285 6.89119C7.27305 5.04853 8.79217 3.5548 10.6663 3.55469C12.5406 3.55469 14.0605 5.04846 14.0607 6.89119L14.0562 7.06317Z" fill="#797A7B"/>
</svg>
