<svg width="26" height="26" viewBox="0 0 26 26" fill="none" xmlns="http://www.w3.org/2000/svg">
<path d="M18.6431 4.60382C19.363 4.24955 20.1251 4.08911 20.7544 4.32257C21.0949 4.44904 21.3852 4.69153 21.5493 5.0423C21.7056 5.37661 21.7152 5.74047 21.645 6.07941L21.646 6.08038C20.0146 14.4823 18.7084 20.8037 18.5112 21.722C18.3991 22.2762 18.2062 22.7816 17.9399 23.1692C17.691 23.5316 17.266 23.9426 16.6694 23.9427C16.3439 23.9427 16.0904 23.7651 15.9897 23.6917C15.8522 23.5914 15.7198 23.4675 15.6089 23.3567C15.495 23.2431 15.3814 23.1206 15.2837 23.015C15.1807 22.9036 15.0992 22.8147 15.0308 22.7464C14.9078 22.6236 14.1266 21.7252 13.4038 20.8929C13.0325 20.4653 12.6643 20.0402 12.3804 19.7142C12.2383 19.5511 12.1181 19.4133 12.0298 19.3128C11.9732 19.2485 11.9372 19.208 11.9175 19.1859L8.08936 16.1487L8.06592 16.1683L7.75146 16.1204H7.74854C7.74854 16.1204 7.74346 16.119 7.73975 16.1185C7.73239 16.1174 7.72158 16.1157 7.70752 16.1136C7.6788 16.1093 7.63627 16.1031 7.58252 16.095C7.47469 16.0789 7.31988 16.0556 7.1333 16.0276C6.76018 15.9717 6.25849 15.897 5.74463 15.8196C4.72224 15.6658 3.63632 15.5019 3.43311 15.4681V15.4661C2.64336 15.3449 1.95858 14.667 1.9585 13.7513C1.9585 12.925 2.46539 12.1553 3.22217 11.7776L3.23096 11.7728L3.24072 11.7689C9.82354 8.71143 17.9215 4.93117 18.6431 4.60382ZM3.4585 13.7513C3.45857 13.8554 3.52606 13.9434 3.62061 13.9749L3.6626 13.9857L3.67139 13.9866L3.6792 13.9876C3.8674 14.0189 4.93568 14.1808 5.96826 14.3362C6.48167 14.4135 6.98307 14.4883 7.35596 14.5442C7.46995 14.5613 7.57201 14.5762 7.65869 14.5892L8.25342 14.1331L8.26318 14.1253L8.27393 14.1175L14.5366 11.0156L10.2817 15.9739L14.5366 19.9085C13.8161 19.0788 14.6271 19.9988 14.5366 19.9085C14.9077 20.3359 15.2801 20.7653 15.5718 21.0989C15.7175 21.2657 15.8422 21.4081 15.936 21.514C15.9829 21.5669 16.0216 21.6092 16.0503 21.6409C16.0763 21.6696 16.0881 21.6825 16.0903 21.6849C16.1849 21.7792 16.2907 21.8943 16.3853 21.9964C16.485 22.1042 16.5796 22.2056 16.6694 22.2952C16.6796 22.3053 16.6902 22.3142 16.6997 22.3235L16.7036 22.3196C16.827 22.14 16.9587 21.8353 17.0425 21.4173L17.0444 21.4075C17.2387 20.5027 18.5429 14.1912 20.1733 5.79425L20.1743 5.78741L20.1763 5.78058C20.1814 5.75659 20.1805 5.73604 20.1821 5.72003C20.1367 5.71379 20.0623 5.70875 19.9526 5.72589C19.7845 5.75222 19.5604 5.8212 19.2876 5.95734L19.2749 5.96417L19.2622 5.96905C18.5492 6.29253 10.4828 10.0589 3.89111 13.1204L3.79053 13.179C3.57018 13.3301 3.4585 13.5627 3.4585 13.7513Z" fill="#194AF9"/>
</svg>
