<svg width="20" height="20" viewBox="0 0 20 20" fill="none" xmlns="http://www.w3.org/2000/svg">
<path fill-rule="evenodd" clip-rule="evenodd" d="M9.99969 3.28937C9.75262 3.28937 9.55232 3.48966 9.55232 3.73674C9.55232 4.0685 9.31157 4.34403 8.99524 4.39815C8.10999 4.68296 7.20908 5.30547 6.52532 6.10239C5.82242 6.92162 5.40718 7.8551 5.40718 8.70253V12.5658C5.40718 12.6946 5.37013 12.8206 5.30046 12.9289L4.74254 13.7961H15.2568L14.6989 12.9289C14.6293 12.8206 14.5922 12.6946 14.5922 12.5658V8.70253C14.5922 7.8551 14.177 6.92162 13.4741 6.10239C12.7903 5.30547 11.8894 4.68296 11.0041 4.39815C10.6878 4.34403 10.4471 4.0685 10.4471 3.73674C10.4471 3.48966 10.2468 3.28937 9.99969 3.28937ZM11.7154 3.22671C12.7585 3.62874 13.7426 4.35434 14.4926 5.22846C15.3307 6.20517 15.9343 7.43709 15.9343 8.70253V12.3686L17.0509 14.1041C17.1837 14.3105 17.1932 14.5731 17.0756 14.7886C16.958 15.0041 16.7321 15.1382 16.4865 15.1382H12.6434C12.6696 15.21 12.6839 15.2875 12.6839 15.3683C12.6839 16.8508 11.4821 18.0525 9.99969 18.0525C8.51724 18.0525 7.31548 16.8508 7.31548 15.3683C7.31548 15.2875 7.32978 15.21 7.35598 15.1382H3.51285C3.26733 15.1382 3.04141 15.0041 2.9238 14.7886C2.80619 14.5731 2.81567 14.3105 2.94851 14.1041L4.06507 12.3686V8.70253C4.06507 7.43709 4.66873 6.20517 5.50675 5.22846C6.25674 4.35434 7.24092 3.62874 8.28395 3.22671C8.50354 2.48689 9.1886 1.94727 9.99969 1.94727C10.8108 1.94727 11.4958 2.48689 11.7154 3.22671ZM8.61709 15.1382C8.64329 15.21 8.65759 15.2875 8.65759 15.3683C8.65759 16.1095 9.25847 16.7104 9.99969 16.7104C10.7409 16.7104 11.3418 16.1095 11.3418 15.3683C11.3418 15.2875 11.3561 15.21 11.3823 15.1382H8.61709Z" fill="#797A7B"/>
</svg>
