<?xml version="1.0" encoding="UTF-8"?>
<svg id="Layer_1" xmlns="http://www.w3.org/2000/svg" version="1.1" viewBox="0 0 21 21">
  <!-- Generator: Adobe Illustrator 29.8.1, SVG Export Plug-In . SVG Version: 2.1.1 Build 2)  -->
  <defs>
    <style>
      .st0 {
        fill: #2250f7;
      }
    </style>
  </defs>
  <path class="st0" d="M7.4,17.3c-1,0-2-.4-2.8-1.1-.7-.7-1.1-1.7-1.1-2.8s.4-2,1.1-2.8l1.6-1.6c1.5-1.5,4-1.5,5.5,0l-.7.7c-1.1-1.1-3-1.1-4.1,0l-1.6,1.6c-.5.5-.8,1.3-.8,2s.3,1.5.8,2c1.1,1.1,3,1.1,4.1,0l1.6-1.6.7.7-1.6,1.6c-.7.7-1.7,1.1-2.8,1.1Z"/>
  <path class="st0" d="M11.7,13c-1,0-2-.4-2.8-1.1l.7-.7c1.1,1.1,3,1.1,4.1,0l1.6-1.6c1.1-1.1,1.1-3,0-4.1-1.1-1.1-3-1.1-4.1,0l-1.6,1.6-.7-.7,1.6-1.6c1.5-1.5,4-1.5,5.5,0,1.5,1.5,1.5,4,0,5.5l-1.6,1.6c-.7.7-1.7,1.1-2.8,1.1Z"/>
</svg>