<svg width="16" height="16" viewBox="0 0 16 16" fill="none" xmlns="http://www.w3.org/2000/svg">
<path d="M2.08387 2.79109L2.79098 2.08398L13.9161 13.2091L13.209 13.9162L2.08387 2.79109Z" fill="#797A7B"/>
<path fill-rule="evenodd" clip-rule="evenodd" d="M2 6.64594C2 6.06118 2.16966 5.51576 2.46275 5.05559L3.26375 5.85659C3.15277 6.09691 3.09091 6.36425 3.09091 6.64594C3.09091 7.43704 3.57882 8.11494 4.27211 8.3991C4.52299 8.50191 4.72727 8.72274 4.72727 8.99228V9.02028C4.72727 9.33862 4.44922 9.59239 4.14199 9.5015C2.90323 9.13495 2 7.99518 2 6.64594ZM6.25938 3.66677H7.72727C9.38415 3.66677 10.7273 5.00059 10.7273 6.64594C10.7273 7.08237 10.6328 7.49687 10.463 7.87038L9.60143 7.00882C9.62435 6.89137 9.63636 6.77005 9.63636 6.64594C9.63636 5.5989 8.78164 4.75011 7.72727 4.75011H7.34272L6.25938 3.66677ZM14 9.35427C14 9.93905 13.8303 10.4845 13.5372 10.9446L12.7362 10.1436C12.8472 9.90331 12.9091 9.63597 12.9091 9.35427C12.9091 8.56317 12.4212 7.88527 11.7279 7.60112C11.477 7.49825 11.2727 7.27747 11.2727 7.00794V6.97993C11.2727 6.66158 11.5508 6.40783 11.858 6.49873C13.0968 6.86525 14 8.00504 14 9.35427ZM8.65727 11.2501L9.7406 12.3334H8.27273C6.61587 12.3334 5.27273 10.9996 5.27273 9.35427C5.27273 8.91785 5.36722 8.50335 5.537 8.12984L6.39857 8.99141C6.37564 9.10886 6.36364 9.23017 6.36364 9.35427C6.36364 10.4013 7.21836 11.2501 8.27273 11.2501H8.65727Z" fill="#797A7B"/>
</svg>
