<svg width="25" height="25" viewBox="0 0 25 25" fill="none" xmlns="http://www.w3.org/2000/svg">
<path d="M11.1979 6.25001C11.6294 6.25001 11.9792 6.59979 11.9792 7.03126C11.9792 7.46272 11.6294 7.8125 11.1979 7.81251L9.11457 7.81251C8.39545 7.81251 7.81249 8.39547 7.81249 9.11459L7.81249 16.3005L9.65575 14.7644C9.98715 14.4883 10.4802 14.5328 10.7564 14.8641C11.0326 15.1955 10.988 15.6885 10.6567 15.9648L7.53173 18.5689C7.24201 18.8104 6.82048 18.8104 6.53075 18.5689L3.40575 15.9648L3.34777 15.9109C3.07038 15.6279 3.04698 15.175 3.30606 14.8641C3.56511 14.5535 4.01445 14.495 4.34264 14.7166L4.40673 14.7644L6.24999 16.3005L6.24999 9.11459C6.24999 7.53252 7.53251 6.25001 9.11457 6.25001H11.1979Z" fill="#336AFF"/>
<path d="M13.8021 18.75C13.3706 18.75 13.0208 18.4002 13.0208 17.9688C13.0208 17.5373 13.3706 17.1875 13.8021 17.1875H15.8854C16.6045 17.1875 17.1875 16.6045 17.1875 15.8854V8.69955L15.3442 10.2356C15.0128 10.5117 14.5198 10.4672 14.2435 10.1359C13.9674 9.80452 14.012 9.3115 14.3432 9.03524L17.4682 6.43108C17.758 6.18964 18.1795 6.18964 18.4692 6.43108L21.5942 9.03524L21.6522 9.08916C21.9296 9.37207 21.953 9.82502 21.6939 10.1359C21.4349 10.4465 20.9855 10.505 20.6573 10.2834L20.5932 10.2356L18.75 8.69955V15.8854C18.75 17.4675 17.4675 18.75 15.8854 18.75H13.8021Z" fill="#336AFF"/>
</svg>
