<svg width="18" height="18" viewBox="0 0 18 18" fill="none" xmlns="http://www.w3.org/2000/svg">
<path fill-rule="evenodd" clip-rule="evenodd" d="M8.24864 3.48984C5.81607 3.48984 3.84409 5.46183 3.84409 7.89439C3.84409 10.327 5.81607 12.2989 8.24864 12.2989C10.6812 12.2989 12.6532 10.327 12.6532 7.89439C12.6532 5.46183 10.6812 3.48984 8.24864 3.48984ZM2.56909 7.89439C2.56909 4.75766 5.11191 2.21484 8.24864 2.21484C11.3854 2.21484 13.9282 4.75766 13.9282 7.89439C13.9282 9.23307 13.465 10.4636 12.6902 11.4344L15.9824 14.7266C16.2313 14.9755 16.2313 15.3792 15.9824 15.6281C15.7334 15.8771 15.3298 15.8771 15.0808 15.6281L11.7887 12.336C10.8178 13.1108 9.58732 13.5739 8.24864 13.5739C5.11191 13.5739 2.56909 11.0311 2.56909 7.89439Z" fill="#797A7B"/>
<path fill-rule="evenodd" clip-rule="evenodd" d="M10.5419 5.85352C10.8314 6.05382 10.9038 6.45093 10.7034 6.74048L8.26628 10.2277C8.14955 10.3964 7.95876 10.4987 7.75362 10.5024C7.54849 10.5061 7.35409 10.4109 7.23129 10.2465L5.7904 8.31791C5.57968 8.03585 5.6375 7.63637 5.91956 7.42564C6.20162 7.21492 6.6011 7.27274 6.81182 7.5548L7.7221 8.77322L9.65489 6.0151C9.8552 5.72556 10.2523 5.65321 10.5419 5.85352Z" fill="#797A7B"/>
</svg>
