<?xml version="1.0" encoding="UTF-8"?>
<svg id="Layer_1" xmlns="http://www.w3.org/2000/svg" version="1.1" viewBox="0 0 26 26">
  <!-- Generator: Adobe Illustrator 29.7.1, SVG Export Plug-In . SVG Version: 2.1.1 Build 8)  -->
  <defs>
    <style>
      .st0 {
        fill: #336AFF;
      }
    </style>
  </defs>
  <path class="st0" d="M6.1,21.4c-.9,0-1.5-.5-1.6-1.4v-.2s0-1,0-1c0-2.6,4.1-4.7,8.3-4.7,4.3,0,8.3,2.1,8.3,4.7v1s0,.2,0,.2c0,.8-.6,1.3-1.4,1.4h-.2s-13.5,0-13.5,0ZM15.2,8.7c0-1.2-1-2.3-2.4-2.3-1.3,0-2.3,1-2.3,2.3,0,1.2,1,2.3,2.3,2.3,1.3,0,2.4-1,2.4-2.3ZM6.1,19.8h13.4v-1s0,0,0,0c0-.4-.4-1.1-1.7-1.8-1.3-.7-3.1-1.2-5-1.2-1.9,0-3.7.5-5,1.2-1.4.7-1.7,1.5-1.7,1.9v1ZM16.8,8.9c-.1,2.1-1.8,3.7-4,3.7-2.1,0-3.9-1.6-4-3.7v-.2c0-2.2,1.8-3.9,4-3.9,2.2,0,4,1.8,4,3.9v.2Z"/>
</svg>
