<svg width="16" height="16" viewBox="0 0 16 16" fill="none" xmlns="http://www.w3.org/2000/svg">
<path d="M6.98446 5.48308C6.98446 5.08379 7.30815 4.7601 7.70744 4.7601C8.10673 4.7601 8.43042 5.08379 8.43042 5.48308C8.43042 5.88237 8.10673 6.20605 7.70744 6.20605C7.30815 6.20605 6.98446 5.88237 6.98446 5.48308Z" fill="#BCBDBD"/>
<path d="M13.2661 8.00033C13.2661 4.93213 10.7789 2.44451 7.71077 2.44434C4.64247 2.44434 2.15479 4.93202 2.15479 8.00033C2.15496 11.0685 4.64257 13.5557 7.71077 13.5557V14.5557L7.37288 14.5472C4.02097 14.3772 1.33326 11.6895 1.16325 8.33757L1.15479 8.00033C1.15479 4.37973 4.09018 1.44434 7.71077 1.44434L8.04801 1.4528C11.5117 1.62848 14.2661 4.49295 14.2661 8.00033L14.2577 8.33757C14.082 11.8012 11.218 14.5555 7.71077 14.5557V13.5557C10.7788 13.5555 13.2659 11.0684 13.2661 8.00033Z" fill="#BCBDBD"/>
<path d="M7.20752 11.2402L7.20752 7.4069L8.20752 7.4069L8.20752 11.2402L7.20752 11.2402Z" fill="#BCBDBD"/>
</svg>
