<svg width="21" height="21" viewBox="0 0 21 21" fill="none" xmlns="http://www.w3.org/2000/svg">
<path fill-rule="evenodd" clip-rule="evenodd" d="M5.57616 6.82968C7.52246 2.34389 13.8897 2.27403 15.9737 6.62006L16.0694 6.82968L16.2241 7.18687C16.9633 7.4643 17.4893 8.16871 17.4895 8.99627V10.5461C17.4895 11.4135 16.9123 12.1472 16.1169 12.3941V12.4834C16.1169 14.3023 14.6245 15.7768 12.7836 15.7768H12.6687C12.436 16.3448 11.8733 16.7454 11.215 16.7454H10.4306C9.56431 16.7454 8.86201 16.0516 8.86201 15.1956C8.86218 14.3398 9.56442 13.6458 10.4306 13.6458H11.215C11.873 13.6458 12.4358 14.0467 12.6687 14.6144H12.7836C13.9748 14.6144 14.9404 13.6603 14.9404 12.4834V12.3941C14.1451 12.1472 13.5679 11.4135 13.5679 10.5461V8.99627C13.568 8.13411 14.1386 7.40468 14.9267 7.15357L14.9121 7.12103C13.2786 3.71498 8.33168 3.72622 6.71893 7.15357C7.50703 7.40468 8.07756 8.13411 8.0777 8.99627V10.5461C8.0777 11.616 7.19982 12.4834 6.11691 12.4834C5.034 12.4834 4.15613 11.616 4.15613 10.5461V8.99627C4.15626 8.16896 4.6819 7.46448 5.42068 7.18687L5.57616 6.82968ZM10.8228 14.5259C10.7042 14.5938 10.6051 14.691 10.5363 14.8081H10.4306C10.2142 14.8081 10.0387 14.9818 10.0385 15.1956C10.0385 15.4096 10.2141 15.5831 10.4306 15.5831H10.5363C10.6051 15.7003 10.7042 15.7974 10.8228 15.8653C10.9414 15.7974 11.0405 15.7003 11.1093 15.5831H11.215C11.4315 15.5831 11.6071 15.4096 11.6071 15.1956C11.607 15.0084 11.4725 14.8518 11.2938 14.8157L11.215 14.8081H11.1093C11.0405 14.691 10.9414 14.5938 10.8228 14.5259ZM6.11691 8.22135C5.68386 8.22135 5.33277 8.56844 5.3326 8.99627V10.5461C5.3326 10.9741 5.68375 11.321 6.11691 11.321C6.52293 11.321 6.85714 11.0162 6.8974 10.6256L6.90123 10.5461V8.99627C6.90105 8.56844 6.54997 8.22135 6.11691 8.22135ZM15.5287 8.22135C15.0956 8.22135 14.7445 8.56844 14.7444 8.99627V10.5461C14.7444 10.9741 15.0955 11.321 15.5287 11.321C15.9347 11.321 16.2689 11.0162 16.3092 10.6256L16.313 10.5461V8.99627C16.3128 8.56844 15.9617 8.22135 15.5287 8.22135Z" fill="#797A7B"/>
</svg>
