<svg width="20" height="20" viewBox="0 0 20 20" fill="none" xmlns="http://www.w3.org/2000/svg">
<path d="M16.5825 9.99984C16.5824 6.16465 13.4727 3.05566 9.63753 3.05566C5.80243 3.0558 2.6935 6.16474 2.69336 9.99984C2.69336 13.8351 5.80235 16.9447 9.63753 16.9448V18.1948L9.21598 18.1842C4.88634 17.9647 1.44336 14.384 1.44336 9.99984C1.4435 5.47438 5.11208 1.8058 9.63753 1.80566C14.1631 1.80566 17.8324 5.4743 17.8325 9.99984L17.8268 10.2969C17.7742 11.7746 17.3302 13.1529 16.5955 14.3309L17.8325 18.1948L13.9686 16.9578C12.7121 17.7415 11.2274 18.1948 9.63753 18.1948V16.9448C10.9868 16.9448 12.2432 16.561 13.307 15.8975L13.7977 15.5915L14.3494 15.7673L15.9014 16.2637L15.4049 14.7118L15.2292 14.16L15.5352 13.6693C16.1987 12.6055 16.5825 11.3491 16.5825 9.99984Z" fill="#797A7B"/>
<path d="M11.2573 8.35807V8.24658C11.2573 7.96294 11.1924 7.72936 11.0742 7.52962C10.9576 7.33265 10.7893 7.1719 10.5501 7.04785L10.5436 7.0446L10.5379 7.04134C10.3189 6.92151 10.0319 6.84767 9.65332 6.84766C9.23106 6.84766 8.91818 6.93129 8.68571 7.06413L8.67839 7.0682C8.42743 7.20713 8.25153 7.3852 8.13151 7.60449C8.07206 7.71315 8.02665 7.82627 7.99479 7.94466L7.39095 7.7819L6.78711 7.61995C6.84484 7.40539 6.92771 7.19994 7.03451 7.00472C7.27368 6.5676 7.62393 6.22553 8.06559 5.97933V5.97852C8.06664 5.97791 8.06779 5.97749 8.06885 5.97689C8.07023 5.97612 8.07153 5.97521 8.07292 5.97445V5.97526C8.53521 5.713 9.07131 5.59766 9.65332 5.59766C10.1899 5.59767 10.6876 5.70341 11.1247 5.93945L11.1255 5.93864C11.1278 5.93981 11.1297 5.94153 11.132 5.94271C11.1337 5.94366 11.1359 5.94419 11.1377 5.94515L11.1369 5.94596C11.5634 6.16972 11.9075 6.48483 12.1493 6.89323C12.3916 7.30271 12.5073 7.75944 12.5073 8.24658V8.35807C12.5073 8.84091 12.3912 9.29398 12.1468 9.69841C11.8967 10.1123 11.5326 10.4252 11.0856 10.6449L11.0807 10.6465C11.0143 10.6785 10.9251 10.7176 10.8333 10.7563C10.5003 10.8971 10.2915 11.2107 10.2913 11.5465H9.04134C9.04148 10.6829 9.57478 9.93102 10.3467 9.60482C10.4326 9.56851 10.4964 9.54051 10.5339 9.52262C10.7954 9.39413 10.9662 9.23428 11.0767 9.05143C11.1929 8.85902 11.2573 8.63369 11.2573 8.35807Z" fill="#797A7B"/>
<path d="M10.5379 13.6303C10.5379 14.1294 10.1333 14.534 9.63419 14.534C9.13508 14.534 8.73047 14.1294 8.73047 13.6303C8.73047 13.1312 9.13508 12.7266 9.63419 12.7266C10.1333 12.7266 10.5379 13.1312 10.5379 13.6303Z" fill="#797A7B"/>
</svg>
