<svg width="25" height="25" viewBox="0 0 25 25" fill="none" xmlns="http://www.w3.org/2000/svg">
<path d="M20.7162 4.53685C20.9067 4.84506 20.8609 5.2438 20.6047 5.5L12.0112 14.0936C11.8019 14.3028 11.4921 14.3756 11.2113 14.282L2.61705 11.4177C2.29842 11.3113 2.08342 11.0128 2.08333 10.6768C2.08333 10.3406 2.29876 10.0416 2.61777 9.93524L19.8049 4.20669C20.1485 4.09213 20.5257 4.22875 20.7162 4.53685ZM5.33531 10.6761L11.248 12.647L17.16 6.73505L5.33531 10.6761Z" fill="#336AFF"/>
<path d="M20.4628 4.28344C20.1546 4.09295 19.7559 4.13873 19.4997 4.39493L10.9061 12.9885C10.6969 13.1977 10.6241 13.5076 10.7177 13.7884L13.5819 22.3826C13.6884 22.7013 13.9868 22.9163 14.3228 22.9163C14.6591 22.9163 14.9581 22.7009 15.0644 22.3819L20.793 5.1948C20.9075 4.85113 20.7709 4.47396 20.4628 4.28344ZM14.3235 19.6644L12.3526 13.7517L18.2646 7.83969L14.3235 19.6644Z" fill="#336AFF"/>
</svg>
