<svg width="25" height="25" viewBox="0 0 25 25" fill="none" xmlns="http://www.w3.org/2000/svg">
<path d="M18.8564 5.3837C18.4423 4.96959 17.7734 4.96959 17.3593 5.3837L12.167 10.5653L6.97473 5.37308C6.56062 4.95897 5.89168 4.95897 5.47757 5.37308C5.06347 5.78719 5.06347 6.45613 5.47757 6.87024L10.6698 12.0625L5.47757 17.2548C5.06347 17.6689 5.06347 18.3378 5.47757 18.7519C5.89168 19.166 6.56062 19.166 6.97473 18.7519L12.167 13.5597L17.3593 18.7519C17.7734 19.166 18.4423 19.166 18.8564 18.7519C19.2705 18.3378 19.2705 17.6689 18.8564 17.2548L13.6641 12.0625L18.8564 6.87024C19.2599 6.46675 19.2599 5.78719 18.8564 5.3837Z" fill="#7C7C7C"/>
</svg>
