<svg width="25" height="25" viewBox="0 0 25 25" fill="none" xmlns="http://www.w3.org/2000/svg">
<path d="M10.557 13.5417C10.9332 13.5417 11.2375 13.8584 11.2376 14.2508L11.2376 18.4591L12.381 17.2659C12.6454 16.9886 13.0763 16.9902 13.3423 17.2659C13.6082 17.5417 13.6082 17.9915 13.3423 18.2689L11.0382 20.6717C10.9052 20.8104 10.7308 20.8802 10.557 20.8802C10.3833 20.8801 10.2098 20.8103 10.0769 20.6717L7.77282 18.2689C7.50687 17.9931 7.50687 17.5433 7.77282 17.2659C8.03719 16.989 8.46725 16.989 8.7331 17.2659L9.87751 18.4581L9.87751 14.2508C9.87763 13.8585 10.181 13.5419 10.557 13.5417Z" fill="#336AFF"/>
<path d="M16.6667 4.16675C17.8173 4.16675 18.75 5.09949 18.75 6.25008H17.1875C17.1875 5.96243 16.9543 5.72925 16.6667 5.72925L6.24999 5.72925C5.96234 5.72925 5.72916 5.96243 5.72916 6.25008V7.3599C5.89581 7.31696 6.06993 7.29175 6.24999 7.29175L19.7917 7.29175C20.9423 7.29175 21.875 8.22449 21.875 9.37508L21.875 18.7501C21.875 19.9007 20.9423 20.8334 19.7917 20.8334L12.4827 20.8334L14.036 19.2709H19.7917C20.0793 19.2709 20.3125 19.0377 20.3125 18.7501L20.3125 9.37508C20.3125 9.08743 20.0793 8.85425 19.7917 8.85425L6.24999 8.85425C5.96234 8.85425 5.72916 9.08743 5.72916 9.37508L5.72916 18.6463C5.72938 18.9912 6.00889 19.2707 6.35375 19.2709H7.07803L8.63138 20.8334H6.04145C5.00608 20.8333 4.16677 19.994 4.16666 18.9586L4.16666 6.25008C4.16666 5.09949 5.0994 4.16675 6.24999 4.16675L16.6667 4.16675Z" fill="#336AFF"/>
<path d="M17.7083 13.0209C18.2836 13.0209 18.75 13.4873 18.75 14.0626C18.75 14.6379 18.2836 15.1042 17.7083 15.1042C17.133 15.1042 16.6667 14.6379 16.6667 14.0626C16.6667 13.4873 17.133 13.0209 17.7083 13.0209Z" fill="#336AFF"/>
</svg>
