<svg width="20" height="20" viewBox="0 0 20 20" fill="none" xmlns="http://www.w3.org/2000/svg">
<path d="M5 7.08203L15.8333 7.08203C16.0635 7.08203 16.25 7.26858 16.25 7.4987V14.9987C16.25 15.2288 16.0635 15.4154 15.8333 15.4154H10.7283C10.3753 15.9061 9.93553 16.3302 9.4315 16.6654H15.8333C16.7538 16.6654 17.5 15.9192 17.5 14.9987V7.4987C17.5 6.57822 16.7538 5.83203 15.8333 5.83203L5 5.83203C4.07953 5.83203 3.33333 6.57822 3.33333 7.4987V8.77185C3.70433 8.4398 4.12521 8.16233 4.58333 7.95207V7.4987C4.58333 7.26858 4.76988 7.08203 5 7.08203Z" fill="#797A7B"/>
<path d="M5 4.58203L13.3333 4.58203C13.5635 4.58203 13.75 4.76858 13.75 4.9987H15C15 4.07822 14.2538 3.33203 13.3333 3.33203L5 3.33203C4.07953 3.33203 3.33333 4.07822 3.33333 4.9987L3.33333 7.4987L4.58333 7.27142V4.9987C4.58333 4.76858 4.76988 4.58203 5 4.58203Z" fill="#797A7B"/>
<path d="M15 11.2487C15 11.7089 14.6269 12.082 14.1667 12.082C13.7064 12.082 13.3333 11.7089 13.3333 11.2487C13.3333 10.7885 13.7064 10.4154 14.1667 10.4154C14.6269 10.4154 15 10.7885 15 11.2487Z" fill="#797A7B"/>
<path fill-rule="evenodd" clip-rule="evenodd" d="M6.66667 15.4154C8.2775 15.4154 9.58333 14.1095 9.58333 12.4987C9.58333 10.8879 8.2775 9.58203 6.66667 9.58203C5.05584 9.58203 3.75 10.8879 3.75 12.4987C3.75 14.1095 5.05584 15.4154 6.66667 15.4154ZM6.66667 16.6654C8.96785 16.6654 10.8333 14.7999 10.8333 12.4987C10.8333 10.1975 8.96785 8.33203 6.66667 8.33203C4.36548 8.33203 2.5 10.1975 2.5 12.4987C2.5 14.7999 4.36548 16.6654 6.66667 16.6654Z" fill="#797A7B"/>
<path fill-rule="evenodd" clip-rule="evenodd" d="M6.66667 10.832C6.89679 10.832 7.08333 11.0186 7.08333 11.2487L7.08333 13.7487C7.08333 13.9788 6.89679 14.1654 6.66667 14.1654C6.43655 14.1654 6.25 13.9788 6.25 13.7487V11.2487C6.25 11.0186 6.43655 10.832 6.66667 10.832Z" fill="#797A7B"/>
<path fill-rule="evenodd" clip-rule="evenodd" d="M8.33333 12.4987C8.33333 12.7288 8.14679 12.9154 7.91667 12.9154H5.41667C5.18655 12.9154 5 12.7288 5 12.4987C5 12.2686 5.18655 12.082 5.41667 12.082H7.91667C8.14679 12.082 8.33333 12.2686 8.33333 12.4987Z" fill="#797A7B"/>
</svg>
