<svg width="32" height="32" viewBox="0 0 32 32" fill="none" xmlns="http://www.w3.org/2000/svg">
<path fill-rule="evenodd" clip-rule="evenodd" d="M16.0013 2.66406C8.63775 2.66406 2.66797 8.63384 2.66797 15.9974C2.66797 23.361 8.63775 29.3307 16.0013 29.3307C23.3649 29.3307 29.3346 23.361 29.3346 15.9974C29.3346 8.63384 23.3649 2.66406 16.0013 2.66406Z" fill="#01D183"/>
<mask id="mask0_37062_42258" style="mask-type:alpha" maskUnits="userSpaceOnUse" x="2" y="2" width="28" height="28">
<circle cx="16.0013" cy="15.9974" r="13.3333" fill="#D80027"/>
</mask>
<g mask="url(#mask0_37062_42258)">
<g clip-path="url(#clip0_37062_42258)">
<path d="M-19 -8.78906H41.8333V36.6217H-19" fill="#D80027"/>
<path d="M-19 -3.55469H41.8333H-19ZM-19 3.41776H41.8333H-19ZM-19 10.4186H41.8333H-19ZM-19 17.4194H41.8333H-19ZM-19 24.4203H41.8333H-19ZM-19 31.4211H41.8333H-19Z" fill="black"/>
<path fill-rule="evenodd" clip-rule="evenodd" d="M41.8333 -1.80427H-19V-5.30469H41.8333V-1.80427ZM41.8333 5.16818H-19V1.66776H41.8333V5.16818ZM41.8333 12.169H-19V8.6686H41.8333V12.169ZM41.8333 19.1698H-19V15.6694H41.8333V19.1698ZM41.8333 26.1707H-19V22.6703H41.8333V26.1707ZM41.8333 33.1715H-19V29.6711H41.8333V33.1715Z" fill="white"/>
<path d="M-19 -8.78906H15.675V15.6665H-19" fill="#0052B4"/>
<path d="M7.04557 2.09375L7.90104 4.64811L5.71484 3.03981H8.3763L6.1901 4.64811L7.04557 2.09375Z" fill="white"/>
<path d="M12.7487 2.09375L13.6042 4.64811L11.418 3.03981H14.0794L11.8932 4.64811L12.7487 2.09375Z" fill="white"/>
<path d="M4.09635 4.54688L4.95182 7.10123L2.76562 5.49293H5.42708L3.24089 7.10123L4.09635 4.54688Z" fill="white"/>
<path d="M9.89714 4.54688L10.7526 7.10123L8.56641 5.49293H11.2279L9.04167 7.10123L9.89714 4.54688Z" fill="white"/>
<path d="M7.04557 6.91406L7.90104 9.46842L5.71484 7.86012H8.3763L6.1901 9.46842L7.04557 6.91406Z" fill="white"/>
<path d="M12.7487 6.91406L13.6042 9.46842L11.418 7.86012H14.0794L11.8932 9.46842L12.7487 6.91406Z" fill="white"/>
<path d="M4.09635 9.375L4.95182 11.9294L2.76562 10.3211H5.42708L3.24089 11.9294L4.09635 9.375Z" fill="white"/>
<path d="M9.89714 9.375L10.7526 11.9294L8.56641 10.3211H11.2279L9.04167 11.9294L9.89714 9.375Z" fill="white"/>
<path d="M7.04557 11.8359L7.90104 14.3903L5.71484 12.782H8.3763L6.1901 14.3903L7.04557 11.8359Z" fill="white"/>
<path d="M12.7487 11.8359L13.6042 14.3903L11.418 12.782H14.0794L11.8932 14.3903L12.7487 11.8359Z" fill="white"/>
</g>
</g>
<defs>
<clipPath id="clip0_37062_42258">
<rect width="60.8333" height="45.4108" fill="white" transform="translate(-19 -8.78906)"/>
</clipPath>
</defs>
</svg>
