<svg width="26" height="26" viewBox="0 0 26 26" fill="none" xmlns="http://www.w3.org/2000/svg">
<path d="M17.0461 21.4947V23.0696H8.15388V21.4947H17.0461ZM19.1461 19.3947V10.3396H6.05388V19.3947C6.05398 20.5544 6.99414 21.4947 8.15388 21.4947V23.0696L7.96521 23.0645C6.0858 22.9695 4.57915 21.4627 4.48401 19.5834L4.47888 19.3947V8.7646H20.7211V19.3947L20.7159 19.5834C20.6208 21.4627 19.1141 22.9695 17.2347 23.0645L17.0461 23.0696V21.4947C18.2058 21.4947 19.146 20.5544 19.1461 19.3947Z" fill="#BCBDBD"/>
<path d="M15.7956 5.53037C15.7954 3.76571 14.3642 2.33526 12.5995 2.33526C10.835 2.33552 9.40465 3.76588 9.40438 5.53037V10.0664H7.82938V5.53037C7.82965 2.89603 9.96515 0.760524 12.5995 0.760257C15.2341 0.760257 17.3704 2.89587 17.3706 5.53037V7.00899H15.7956V5.53037Z" fill="#BCBDBD"/>
<path d="M13.3875 15.2158V18.335H11.8125V15.2158H13.3875Z" fill="#BCBDBD"/>
<path d="M14.2172 15.1161C14.2172 16.0092 13.4931 16.7333 12.6 16.7333C11.7068 16.7333 10.9828 16.0092 10.9828 15.1161C10.9828 14.2229 11.7068 13.4989 12.6 13.4989C13.4931 13.4989 14.2172 14.2229 14.2172 15.1161Z" fill="#BCBDBD"/>
</svg>
