<svg width="18" height="18" viewBox="0 0 18 18" fill="none" xmlns="http://www.w3.org/2000/svg">
<path fill-rule="evenodd" clip-rule="evenodd" d="M9.4414 3.50281C9.39434 3.48557 9.34271 3.48552 9.29562 3.50267L4.83399 5.127C4.75006 5.15756 4.69419 5.23735 4.69419 5.32668L4.69419 9.0191C4.69419 10.9999 5.79616 12.8161 7.55299 13.731L8.87845 14.4212C9.18601 14.5814 9.55237 14.5814 9.85993 14.4212L11.1854 13.731C12.9422 12.8161 14.0442 10.9999 14.0442 9.0191L14.0442 5.33705C14.0442 5.24787 13.9885 5.16818 13.9048 5.13752L9.4414 3.50281ZM8.85944 2.30459C9.18907 2.18459 9.55049 2.18494 9.87988 2.30558L14.3433 3.94029C14.9294 4.15497 15.3192 4.71281 15.3192 5.33705L15.3192 9.0191C15.3192 11.4753 13.9527 13.7274 11.7743 14.8619L10.4488 15.5521C9.77219 15.9044 8.96619 15.9044 8.28956 15.5521L6.96411 14.8619C4.78563 13.7274 3.41919 11.4753 3.41919 9.0191L3.41919 5.32668C3.41919 4.70138 3.81025 4.14284 4.39781 3.92893L8.85944 2.30459ZM12.0694 6.2347C12.3589 6.435 12.4313 6.83211 12.231 7.12166L8.99686 11.7967C8.88013 11.9654 8.68933 12.0676 8.4842 12.0714C8.27906 12.0751 8.08467 11.9799 7.96187 11.8155L6.52098 9.88688C6.31025 9.60482 6.36808 9.20535 6.65014 8.99462C6.93219 8.78389 7.33167 8.84172 7.5424 9.12378L8.45268 10.3422L11.1824 6.39628C11.3827 6.10673 11.7798 6.03439 12.0694 6.2347Z" fill="#797A7B"/>
</svg>
