<svg width="20" height="20" viewBox="0 0 20 20" fill="none" xmlns="http://www.w3.org/2000/svg">
<path d="M10.9149 3.32442C9.28142 3.32746 7.70559 3.92839 6.48486 5.01376C5.26412 6.09913 4.48296 7.59387 4.28884 9.21576H3.18953C3.07128 9.21572 2.95568 9.25075 2.85736 9.31645C2.75904 9.38215 2.68241 9.47552 2.63719 9.58479C2.59198 9.69406 2.58021 9.81432 2.60337 9.93028C2.62652 10.0462 2.68355 10.1527 2.76726 10.2362L4.4141 11.8831C4.52613 11.995 4.67801 12.0578 4.83637 12.0578C4.99472 12.0578 5.1466 11.995 5.25864 11.8831L6.90548 10.2362C6.98919 10.1527 7.04624 10.0462 7.06939 9.93028C7.09255 9.81432 7.08076 9.69406 7.03554 9.58479C6.99033 9.47552 6.91372 9.38215 6.8154 9.31645C6.71707 9.25075 6.60146 9.21572 6.48321 9.21576H5.49792C5.67668 7.99686 6.26155 6.87394 7.15784 6.02875C8.05413 5.18356 9.20938 4.66555 10.4367 4.55856C11.664 4.45158 12.8914 4.76188 13.9205 5.43923C14.9495 6.11658 15.7198 7.12135 16.1068 8.29094C16.4938 9.46052 16.4747 10.7265 16.0528 11.8839C15.6309 13.0413 14.8307 14.0225 13.7818 14.6686C12.7329 15.3147 11.4966 15.588 10.2731 15.4442C9.04958 15.3004 7.91039 14.7479 7.0399 13.8762C6.98516 13.8177 6.91919 13.7707 6.84594 13.7382C6.77269 13.7057 6.69364 13.6883 6.61351 13.6869C6.53338 13.6856 6.45381 13.7004 6.37951 13.7304C6.30522 13.7605 6.23773 13.8052 6.18106 13.8618C6.12439 13.9185 6.07969 13.986 6.04964 14.0603C6.01959 14.1346 6.00479 14.2142 6.00612 14.2943C6.00746 14.3744 6.0249 14.4535 6.05741 14.5267C6.08992 14.6 6.13684 14.6659 6.19536 14.7207C6.9717 15.4969 7.92748 16.0698 8.97806 16.3884C10.0286 16.7071 11.1416 16.7617 12.2183 16.5475C13.2951 16.3333 14.3024 15.8568 15.151 15.1604C15.9997 14.4639 16.6635 13.5689 17.0836 12.5546C17.5037 11.5404 17.6672 10.4381 17.5597 9.34557C17.4521 8.25302 17.0768 7.20388 16.4669 6.29103C15.857 5.37818 15.0314 4.6298 14.0632 4.11222C13.095 3.59464 12.0141 3.32382 10.9163 3.32373L10.9149 3.32442Z" fill="#797A7B"/>
<path d="M10.803 6.90312C10.7244 6.90302 10.6466 6.91845 10.574 6.94848C10.5014 6.97851 10.4354 7.02255 10.3798 7.07811C10.3243 7.13368 10.2802 7.19965 10.2502 7.27227C10.2201 7.34489 10.2047 7.42272 10.2048 7.50131V10.0011C10.2047 10.0796 10.2202 10.1573 10.2502 10.2298C10.2803 10.3023 10.3245 10.3681 10.3801 10.4234L12.1803 12.2237C12.2351 12.2822 12.301 12.3291 12.3743 12.3616C12.4475 12.3942 12.5266 12.4116 12.6067 12.4129C12.6869 12.4143 12.7664 12.3995 12.8407 12.3694C12.915 12.3394 12.9825 12.2946 13.0392 12.238C13.0959 12.1813 13.1405 12.1138 13.1706 12.0395C13.2006 11.9652 13.2154 11.8857 13.2141 11.8055C13.2128 11.7254 13.1953 11.6464 13.1628 11.5731C13.1303 11.4999 13.0834 11.4339 13.0249 11.3791L11.3999 9.7534V7.50131C11.4 7.42282 11.3847 7.34506 11.3548 7.27249C11.3249 7.19992 11.281 7.13398 11.2255 7.07842C11.1701 7.02285 11.1042 6.97877 11.0317 6.94869C10.9592 6.91861 10.8815 6.90312 10.803 6.90312Z" fill="#797A7B"/>
</svg>
