<?xml version="1.0" encoding="UTF-8"?>
<svg id="Layer_1" xmlns="http://www.w3.org/2000/svg" version="1.1" viewBox="0 0 26 26">
  <!-- Generator: Adobe Illustrator 29.7.1, SVG Export Plug-In . SVG Version: 2.1.1 Build 8)  -->
  <defs>
    <style>
      .st0 {
        fill-rule: evenodd;
      }

      .st0, .st1 {
        fill: #BCBDBD;
      }
    </style>
  </defs>
  <path class="st1" d="M20.4,19.8c.4,0,.8.3.8.8,0,.4-.3.8-.8.8H5.3c-.4,0-.8-.3-.8-.8,0-.4.3-.8.8-.8h15.1Z"/>
  <path class="st1" d="M8.7,11.8c.4,0,.8.3.8.8v5.7c0,.4-.3.8-.8.8s-.8-.3-.8-.8v-5.7c0-.4.3-.8.8-.8Z"/>
  <path class="st1" d="M12.8,11.8c.4,0,.8.3.8.8v5.7c0,.4-.3.8-.8.8s-.8-.3-.8-.8v-5.7c0-.4.3-.8.8-.8Z"/>
  <path class="st1" d="M17,11.8c.4,0,.8.3.8.8v5.7c0,.4-.3.8-.8.8s-.8-.3-.8-.8v-5.7c0-.4.3-.8.8-.8Z"/>
  <path class="st0" d="M12.5,4.8c.2-.1.5-.1.8,0l7.6,5.2h0c.3.3.4.8.1,1.1-.2.3-.7.4-1,.2h0s-1.7-1.2-1.7-1.2h0s-10.8,0-10.8,0h0s-1.7,1.2-1.7,1.2c-.4.2-.8.2-1.1-.2-.2-.4-.2-.8.2-1.1l7.6-5.2h.1ZM9.7,8.7h6.3l-3.2-2.2-3.2,2.2Z"/>
</svg>
