<svg width="55" height="56" viewBox="0 0 55 56" fill="none" xmlns="http://www.w3.org/2000/svg">
<path d="M39.9022 28.9468C39.9022 35.4963 34.6876 40.8058 28.2551 40.8058V39.2685C33.8538 39.2685 38.3924 34.6473 38.3924 28.9468H39.9022ZM27.5001 13.6016C33.9327 13.6016 39.1473 18.911 39.1473 25.4605H37.6375C37.6375 19.76 33.0989 15.1388 27.5001 15.1388C21.9014 15.1388 17.3628 19.76 17.3628 25.4605H15.853C15.853 18.911 21.0676 13.6016 27.5001 13.6016Z" fill="#2563EB"/>
<path d="M13.75 27.739C13.75 26.1319 15.0295 24.8291 16.6079 24.8291C18.1862 24.8291 19.4657 26.1319 19.4657 27.739V31.5822C19.4657 33.1892 18.1862 34.492 16.6079 34.492C15.0295 34.492 13.75 33.1892 13.75 31.5822V27.739Z" fill="#2563EB"/>
<path d="M35.5345 27.739C35.5345 26.1319 36.8141 24.8291 38.3924 24.8291C39.9708 24.8291 41.2503 26.1319 41.2503 27.739V31.5822C41.2503 33.1892 39.9708 34.492 38.3924 34.492C36.8141 34.492 35.5345 33.1892 35.5345 31.5822V27.739Z" fill="#2563EB"/>
<path d="M29.8188 40.0371C29.8188 41.341 28.7807 42.398 27.5001 42.398C26.2196 42.398 25.1815 41.341 25.1815 40.0371C25.1815 38.7333 26.2196 37.6763 27.5001 37.6763C28.7807 37.6763 29.8188 38.7333 29.8188 40.0371Z" fill="#2563EB"/>
</svg>
