<svg width="20" height="20" viewBox="0 0 20 20" fill="none" xmlns="http://www.w3.org/2000/svg">
<path d="M16.5733 3.62831C16.7257 3.87488 16.6891 4.19387 16.4841 4.39883L9.60928 11.2737C9.44189 11.4411 9.19397 11.4993 8.96939 11.4244L2.09397 9.13302C1.83906 9.04783 1.66707 8.8091 1.66699 8.54031C1.66699 8.27129 1.83933 8.03209 2.09455 7.94702L15.8442 3.36418C16.1192 3.27253 16.4209 3.38183 16.5733 3.62831ZM4.26858 8.53973L8.99874 10.1165L13.7283 5.38687L4.26858 8.53973Z" fill="#797A7B"/>
<path d="M16.3706 3.42558C16.124 3.27319 15.805 3.30981 15.6001 3.51477L8.72523 10.3896C8.55783 10.557 8.4996 10.8049 8.57446 11.0295L10.8659 17.9049C10.9511 18.1598 11.1898 18.3318 11.4586 18.3319C11.7276 18.3319 11.9668 18.1596 12.0519 17.9043L16.6347 4.15467C16.7264 3.87973 16.6171 3.57799 16.3706 3.42558ZM11.4592 15.7303L9.88245 11.0002L14.612 6.27058L11.4592 15.7303Z" fill="#797A7B"/>
</svg>
