<svg width="20" height="20" viewBox="0 0 20 20" fill="none" xmlns="http://www.w3.org/2000/svg">
<path d="M11.3636 8.646C11.3636 8.27205 11.0584 7.96891 10.6818 7.96891H10.3409C8.26984 7.96891 6.59091 9.63616 6.59091 11.6929C6.59091 13.7496 8.26984 15.4168 10.3409 15.4168H13.75C15.8211 15.4168 17.5 13.7496 17.5 11.6929C17.5 10.0063 16.371 8.58159 14.8225 8.12344C14.4385 8.00982 14.0909 8.327 14.0909 8.72494V8.75995C14.0909 9.09687 14.3462 9.37285 14.6599 9.50142C15.5265 9.85662 16.1364 10.704 16.1364 11.6929C16.1364 13.0017 15.068 14.0627 13.75 14.0627H10.3409C9.02295 14.0627 7.95455 13.0017 7.95455 11.6929C7.95455 10.3841 9.02295 9.32308 10.3409 9.32308H10.6818C11.0584 9.32308 11.3636 9.01995 11.3636 8.646Z" fill="#797A7B"/>
<path d="M9.65909 4.5835C11.7302 4.5835 13.4091 6.25077 13.4091 8.30745C13.4091 10.3642 11.7302 12.0314 9.65909 12.0314H9.31818C8.94161 12.0314 8.63636 11.7283 8.63636 11.3543C8.63636 10.9804 8.94161 10.6772 9.31818 10.6772H9.65909C10.977 10.6772 12.0455 9.61626 12.0455 8.30745C12.0455 6.99865 10.977 5.93766 9.65909 5.93766H6.25C4.93205 5.93766 3.86364 6.99865 3.86364 8.30745C3.86364 9.29633 4.47353 10.1437 5.34013 10.4989C5.65374 10.6274 5.90909 10.9035 5.90909 11.2404V11.2754C5.90909 11.6733 5.56153 11.9905 5.17749 11.8769C3.62904 11.4187 2.5 9.994 2.5 8.30745C2.5 6.25077 4.17893 4.5835 6.25 4.5835H9.65909Z" fill="#797A7B"/>
</svg>
