<svg width="55" height="56" viewBox="0 0 55 56" fill="none" xmlns="http://www.w3.org/2000/svg">
<path d="M16.2666 18.7065C16.2666 15.9799 18.4375 13.7695 21.1154 13.7695H38.7331V33.6344H37.2888V15.2401H21.1154C19.2351 15.2401 17.7109 16.7921 17.7109 18.7065V36.9958H16.2666V18.7065Z" fill="#2563EB"/>
<path fill-rule="evenodd" clip-rule="evenodd" d="M38.7331 34.2363V32.7653H20.9131C18.3471 32.7653 16.2666 34.8836 16.2666 37.4962C16.2668 40.1087 18.3472 42.2264 20.9131 42.2264H38.7331V40.7563H20.9131C19.1449 40.7563 17.7111 39.297 17.7109 37.4967C17.7109 35.6963 19.1448 34.2363 20.9131 34.2363H38.7331Z" fill="#2563EB"/>
<path fill-rule="evenodd" clip-rule="evenodd" d="M37.5574 35.4087H20.9536C19.8208 35.4087 18.9021 36.344 18.9021 37.4974C18.9023 38.6506 19.8208 39.5855 20.9536 39.5855H37.5574V35.4087Z" fill="#2563EB"/>
<path d="M29.4042 22.048V21.9138C29.4042 21.5723 29.3274 21.291 29.1877 21.0505C29.0498 20.8133 28.8508 20.6197 28.5679 20.4703L28.5602 20.4664L28.5534 20.4625C28.2944 20.3182 27.9549 20.2293 27.5073 20.2293C27.0079 20.2293 26.6379 20.33 26.3629 20.4899L26.3543 20.4948C26.0575 20.6621 25.8494 20.8766 25.7075 21.1406C25.6372 21.2715 25.5835 21.4077 25.5458 21.5502L24.8317 21.3542L24.1175 21.1592C24.1858 20.9009 24.2838 20.6535 24.4101 20.4184C24.693 19.892 25.1072 19.4801 25.6295 19.1837C25.6308 19.183 25.6321 19.1815 25.6334 19.1807C25.635 19.1798 25.6366 19.1787 25.6382 19.1778C26.1849 18.862 26.8189 18.7241 27.5073 18.7241C28.1418 18.7241 28.7305 18.8514 29.2474 19.1357L29.2483 19.1347C29.251 19.1361 29.2534 19.1382 29.256 19.1396C29.2581 19.1407 29.2607 19.1414 29.2628 19.1425L29.2618 19.1435C29.7663 19.4129 30.1732 19.7924 30.4591 20.2842C30.7456 20.7772 30.8826 21.3272 30.8826 21.9138V22.048C30.8826 22.6295 30.7452 23.175 30.4562 23.662C30.1604 24.1604 29.7298 24.5372 29.2012 24.8017L29.1954 24.8036C29.1169 24.8422 29.0113 24.8892 28.9028 24.9359C28.5089 25.1054 28.262 25.483 28.2618 25.8875H26.7835C26.7837 24.8475 27.4144 23.9421 28.3273 23.5493C28.4289 23.5056 28.5043 23.4719 28.5486 23.4503C28.858 23.2956 29.0599 23.1031 29.1906 22.883C29.328 22.6513 29.4042 22.3799 29.4042 22.048Z" fill="#2563EB"/>
<path d="M28.5535 28.3963C28.5535 28.9973 28.0749 29.4845 27.4847 29.4845C26.8944 29.4845 26.4159 28.9973 26.4159 28.3963C26.4159 27.7953 26.8944 27.3081 27.4847 27.3081C28.0749 27.3081 28.5535 27.7953 28.5535 28.3963Z" fill="#2563EB"/>
</svg>
