<svg width="20" height="20" viewBox="0 0 20 20" fill="none" xmlns="http://www.w3.org/2000/svg">
<path d="M11.3636 8.64648C11.3636 8.27254 11.0584 7.9694 10.6818 7.9694H10.3409C8.26984 7.9694 6.59091 9.63665 6.59091 11.6934C6.59091 13.7501 8.26984 15.4173 10.3409 15.4173H13.75C15.8211 15.4173 17.5 13.7501 17.5 11.6934C17.5 10.0068 16.371 8.58208 14.8225 8.12393C14.4385 8.01031 14.0909 8.32749 14.0909 8.72543V8.76044C14.0909 9.09735 14.3462 9.37333 14.6599 9.50191C15.5265 9.85711 16.1364 10.7045 16.1364 11.6934C16.1364 13.0022 15.068 14.0632 13.75 14.0632H10.3409C9.02295 14.0632 7.95455 13.0022 7.95455 11.6934C7.95455 10.3846 9.02295 9.32357 10.3409 9.32357H10.6818C11.0584 9.32357 11.3636 9.02044 11.3636 8.64648Z" fill="#2B63F1"/>
<path d="M9.65909 4.58398C11.7302 4.58398 13.4091 6.25125 13.4091 8.30794C13.4091 10.3647 11.7302 12.0319 9.65909 12.0319H9.31818C8.94161 12.0319 8.63636 11.7288 8.63636 11.3548C8.63636 10.9809 8.94161 10.6777 9.31818 10.6777H9.65909C10.977 10.6777 12.0455 9.61674 12.0455 8.30794C12.0455 6.99914 10.977 5.93815 9.65909 5.93815H6.25C4.93205 5.93815 3.86364 6.99914 3.86364 8.30794C3.86364 9.29682 4.47353 10.1442 5.34013 10.4994C5.65374 10.6279 5.90909 10.9039 5.90909 11.2409V11.2759C5.90909 11.6738 5.56153 11.991 5.17749 11.8774C3.62904 11.4192 2.5 9.99449 2.5 8.30794C2.5 6.25125 4.17893 4.58398 6.25 4.58398H9.65909Z" fill="#2B63F1"/>
</svg>
