<svg width="25" height="25" viewBox="0 0 25 25" fill="none" xmlns="http://www.w3.org/2000/svg">
<path d="M20.5357 10.8925C20.5061 10.389 20.2839 9.05051 18.7596 7.56871C17.65 6.51892 16.6292 6.10173 15.9485 5.94343C15.6823 5.88593 15.4601 5.85715 15.3416 5.85711C15.2824 5.85711 15.2378 5.8715 15.1786 5.88588L15.121 5.9164C15.1045 5.92893 15.0895 5.94307 15.0748 5.95738L14.8385 6.18757L12.1599 8.76325L10.117 10.7626C10.0875 10.7913 10.0734 10.8062 10.0586 10.835L9.37762 11.4968C9.31849 11.5542 9.27401 11.6546 9.28868 11.7409C9.30348 11.8272 9.34809 11.8992 9.42208 11.9423C9.70323 12.1005 10.0138 12.1873 10.3394 12.1873C10.7833 12.1873 11.2127 12.0286 11.5383 11.7409C11.5677 11.7123 11.5828 11.6977 11.6124 11.6833L12.9438 10.3746L13.0031 10.4173C13.521 10.9207 14.2164 11.1941 14.9414 11.1942C15.0894 11.1942 15.2381 11.1802 15.3861 11.1515C15.7115 11.0939 16.0075 10.9932 16.2885 10.835C16.5105 10.7199 16.7178 10.5616 16.8806 10.4034L16.9399 10.3458L17.0288 10.2883C17.1028 10.2308 17.206 10.2015 17.2947 10.1871C17.6054 10.1584 17.8719 10.3887 17.9016 10.6763L17.9042 10.7626C17.8987 10.8483 17.8682 10.9321 17.8127 11.0076L17.8275 11.0216L17.6793 11.1654C17.5165 11.3237 17.3537 11.4536 17.1762 11.5831L18.5974 12.9206L20.432 11.1515C20.4875 11.0975 20.5178 11.0351 20.5296 10.9649L20.5357 10.8925ZM10.9907 18.2298C10.7539 18.2298 10.5318 18.3157 10.369 18.4739L10.117 18.719C9.95448 18.8772 9.8659 19.0928 9.8659 19.3084C9.8659 19.5386 9.95423 19.7404 10.117 19.8987C10.2797 20.0569 10.502 20.1428 10.7239 20.1428C10.918 20.1428 11.1125 20.0769 11.2671 19.9545L11.3307 19.8987L11.5827 19.6537C11.7602 19.481 11.8486 19.2508 11.8338 19.0206C11.8338 18.9343 11.8189 18.848 11.7746 18.7617C11.7302 18.6468 11.6713 18.5462 11.5827 18.46C11.4348 18.3162 11.2274 18.2294 11.0203 18.215L10.9907 18.2298ZM8.91898 16.2296C8.6822 16.2296 8.4749 16.3164 8.31212 16.4746L8.06013 16.7187C7.89739 16.877 7.80901 17.0933 7.80901 17.309C7.8091 17.539 7.89753 17.7403 8.06013 17.8985C8.20261 18.037 8.39068 18.1205 8.58416 18.1391L8.66699 18.1435C8.90377 18.1435 9.11107 18.0567 9.27386 17.8985L9.52584 17.6543C9.68862 17.4961 9.77696 17.2654 9.77696 17.0353C9.77693 16.8197 9.68836 16.6184 9.52584 16.4746C9.37793 16.3164 9.17048 16.2297 8.94863 16.2296H8.91898ZM4.46429 10.9501C4.46429 11.0508 4.49406 11.1371 4.56805 11.209L6.63975 13.2232C6.67668 13.216 6.71356 13.2119 6.75049 13.2101L6.8621 13.2084V14.2154L6.77403 14.2198C6.57365 14.2385 6.3976 14.3221 6.25523 14.4604L6.00324 14.7046C5.84046 14.8628 5.75213 15.0791 5.75213 15.2949C5.7522 15.5249 5.8406 15.7261 6.00324 15.8843C6.14576 16.0229 6.33374 16.1063 6.52727 16.125L6.61011 16.1293C6.84688 16.1293 7.05419 16.0426 7.21697 15.8843L7.46809 15.6402C7.63087 15.4819 7.72008 15.2513 7.72008 15.0211C7.72003 14.8054 7.63083 14.6043 7.46809 14.4604C7.3201 14.3166 7.11283 14.2298 6.89087 14.2154H6.8621V13.2084H6.93534C7.4089 13.2227 7.86799 13.4102 8.20836 13.7411C8.54863 14.0719 8.74106 14.5177 8.75593 14.9923C8.75593 15.0642 8.75586 15.1363 8.74111 15.2225C8.8003 15.2225 8.85979 15.2086 8.91898 15.2086H8.99309C9.46641 15.223 9.92499 15.4098 10.2652 15.7404C10.6056 16.0713 10.798 16.5178 10.8128 16.9925C10.8128 17.0644 10.8128 17.1509 10.798 17.2227C10.8572 17.2227 10.9167 17.2079 10.9907 17.2079H11.0796C11.5531 17.2224 11.9967 17.4242 12.3369 17.7407C12.5293 17.9277 12.6771 18.1579 12.7659 18.4024C12.8399 18.575 12.8697 18.7618 12.8845 18.9631C12.8845 19.0638 12.8845 19.1502 12.8697 19.2508L13.521 19.8839C13.6635 20.0224 13.8515 20.1059 14.0451 20.1245L14.1279 20.1289C14.335 20.1289 14.5192 20.0621 14.6711 19.9397L14.7348 19.8839C14.8772 19.7453 14.9632 19.5627 14.9824 19.3747L14.9859 19.2944C14.9859 19.0642 14.8975 18.8624 14.7348 18.7041L13.2847 17.2942C13.27 17.2799 13.2698 17.2798 13.2551 17.2654C13.1515 17.1504 13.092 17.0209 13.092 16.8626C13.0922 16.5462 13.3586 16.2871 13.6841 16.2871C13.8468 16.2872 14.0096 16.3596 14.1279 16.4746L15.5779 17.8845C15.7407 18.0427 15.9628 18.1286 16.1848 18.1287C16.392 18.1287 16.5769 18.0629 16.7289 17.9403L16.7916 17.8845C16.9341 17.7461 17.02 17.5633 17.0393 17.3753L17.0436 17.2942C17.0436 17.0642 16.9543 16.863 16.7916 16.7048L15.3268 15.2801C15.2084 15.165 15.1341 15.0211 15.1341 14.8485C15.1343 14.5321 15.4007 14.273 15.7261 14.273C15.9037 14.273 16.0812 14.3598 16.1996 14.4892L16.2292 14.5032L17.6496 15.8843C17.99 16.2152 18.5378 16.2152 18.8634 15.8843C19.0056 15.746 19.0917 15.5638 19.111 15.376L19.1153 15.2949C19.1005 15.0647 19.0113 14.8628 18.8485 14.7046L16.1848 12.0722C16.022 12.1298 15.8444 12.1725 15.6965 12.2013C15.4449 12.2444 15.193 12.2736 14.9266 12.2736C14.2608 12.2736 13.6098 12.1149 13.0327 11.7984L12.3814 12.4315C12.337 12.4746 12.2924 12.5178 12.248 12.5466C11.7153 13.0069 11.0348 13.252 10.3245 13.252C9.80665 13.2519 9.28878 13.108 8.84487 12.8491C8.47491 12.6333 8.22312 12.2736 8.17871 11.842C8.11952 11.4248 8.26728 11.0072 8.57806 10.705L9.21456 10.0868C9.24416 10.0581 9.27393 10.0149 9.31832 9.97175L11.6717 7.68467L10.1022 6.18844L9.92519 6.00098C9.85119 5.92904 9.76197 5.9007 9.65838 5.9007C9.14022 5.92954 7.7792 6.14559 6.24041 7.62713C4.71617 9.1233 4.49388 10.4465 4.46429 10.9501ZM21.875 10.8925C21.875 11.2913 21.7413 11.7463 21.3658 12.1115L21.3614 12.115L19.7274 13.6905L19.7902 13.7524H19.7893C20.1987 14.1541 20.4164 14.6697 20.4511 15.2086L20.4546 15.2513V15.2949C20.4546 15.8627 20.2262 16.4149 19.8172 16.8234C19.8148 16.8259 19.8127 16.8287 19.8103 16.8312C19.8058 16.8357 19.8017 16.8408 19.7972 16.8452L19.7954 16.8434C19.3961 17.2385 18.8885 17.4421 18.3733 17.4669C18.3315 17.9826 18.1054 18.4751 17.7255 18.8445C17.3444 19.2149 16.852 19.4301 16.3164 19.461C16.2758 19.9788 16.0491 20.474 15.6677 20.8447C15.2557 21.2451 14.714 21.4681 14.1279 21.4682C13.5685 21.4682 13.0079 21.2537 12.5872 20.8447L12.432 20.6939L12.2646 20.8587C11.8439 21.2676 11.2833 21.4821 10.7239 21.4821C10.1646 21.482 9.60464 21.2675 9.18405 20.8587C8.80948 20.4945 8.57518 20.013 8.53446 19.4758C8.02 19.4446 7.51453 19.235 7.12716 18.8585C6.74925 18.4911 6.51426 18.0046 6.4767 17.4616C5.96249 17.4303 5.45659 17.2207 5.06941 16.8443C4.70815 16.4929 4.47652 16.0325 4.42418 15.5181L4.41284 15.2949L4.4233 15.0786C4.47414 14.5788 4.70022 14.1036 5.06941 13.7446L5.16183 13.6539L3.63421 12.169C3.2587 11.8039 3.125 11.3489 3.125 10.9501V10.9108L3.12762 10.8716C3.17433 10.0768 3.51332 8.42655 5.30221 6.67062L5.31093 6.6619C7.1142 4.92573 8.7952 4.60701 9.58426 4.56316L9.62176 4.56142H9.65838C10.038 4.56142 10.4866 4.67984 10.8582 5.04098L10.8782 5.05929L10.8965 5.07935L11.043 5.23455L12.4756 6.60086L13.9099 5.22234L14.1418 4.99738L14.1889 4.95117C14.2764 4.8705 14.4804 4.70458 14.7661 4.61199L14.8132 4.5963L14.8621 4.58409C14.8705 4.58203 14.8681 4.58283 14.8943 4.57624C14.9125 4.57167 14.9466 4.56367 14.9867 4.55532C15.076 4.53672 15.1967 4.51782 15.3416 4.51782L15.5491 4.52741C15.6944 4.53929 15.8506 4.56146 16.0043 4.58932L16.231 4.63466L16.2415 4.6364L16.251 4.63902C17.1005 4.8365 18.2401 5.31353 19.4397 6.37591L19.6804 6.59651L19.6873 6.60261L19.6934 6.60871C21.4898 8.35501 21.826 10.0242 21.8724 10.814L21.875 10.8533V10.8925Z" fill="#336AFF"/>
</svg>
