<svg width="20" height="20" viewBox="0 0 20 20" fill="none" xmlns="http://www.w3.org/2000/svg">
<path d="M7.42492 10.023C7.42492 11.3765 8.57715 12.4737 9.99851 12.4737C11.4199 12.4737 12.5721 11.3765 12.5721 10.023C12.5721 8.66961 11.4199 7.57243 9.99851 7.57243C8.57715 7.57243 7.42492 8.66961 7.42492 10.023Z" fill="#7C7C7C"/>
<path fill-rule="evenodd" clip-rule="evenodd" d="M10 5C12.4394 5 14.2963 5.73785 15.5559 6.72963C16.7874 7.6993 17.5 8.96273 17.5 10.025C17.5 11.0873 16.7874 12.3507 15.5559 13.3204C14.2963 14.3122 12.4394 15.05 10 15.05C7.56058 15.05 5.70366 14.3122 4.4441 13.3204C3.21264 12.3507 2.5 11.0873 2.5 10.025C2.5 8.96273 3.21264 7.6993 4.4441 6.72963C5.70366 5.73785 7.56058 5 10 5ZM16.1771 10.025C16.1771 9.49921 15.7723 8.5795 14.7354 7.76304C13.7266 6.96869 12.1642 6.31742 10 6.31742C7.83578 6.31742 6.27343 6.96869 5.26462 7.76304C4.22772 8.5795 3.82291 9.49921 3.82291 10.025C3.82291 10.5508 4.22772 11.4705 5.26462 12.287C6.27343 13.0813 7.83578 13.7326 10 13.7326C12.1642 13.7326 13.7266 13.0813 14.7354 12.287C15.7723 11.4705 16.1771 10.5508 16.1771 10.025Z" fill="#7C7C7C"/>
</svg>
