<svg width="26" height="26" viewBox="0 0 26 26" fill="none" xmlns="http://www.w3.org/2000/svg">
<path d="M14.3182 10.8937C14.3182 10.4225 13.9336 10.0405 13.4591 10.0405H13.0296C10.42 10.0405 8.30457 12.1413 8.30457 14.7327C8.30457 17.3242 10.42 19.4249 13.0296 19.4249H17.325C19.9346 19.4249 22.05 17.3242 22.05 14.7327C22.05 12.6077 20.6275 10.8125 18.6764 10.2352C18.1925 10.0921 17.7546 10.4917 17.7546 10.9931V11.0372C17.7546 11.4617 18.0763 11.8095 18.4715 11.9715C19.5634 12.419 20.3318 13.4867 20.3318 14.7327C20.3318 16.3818 18.9856 17.7187 17.325 17.7187H13.0296C11.3689 17.7187 10.0228 16.3818 10.0228 14.7327C10.0228 13.0836 11.3689 11.7468 13.0296 11.7468H13.4591C13.9336 11.7468 14.3182 11.3648 14.3182 10.8937Z" fill="#BCBDBD"/>
<path d="M12.1705 5.7749C14.7801 5.7749 16.8955 7.87566 16.8955 10.4671C16.8955 13.0585 14.7801 15.1593 12.1705 15.1593H11.7409C11.2665 15.1593 10.8818 14.7773 10.8818 14.3062C10.8818 13.835 11.2665 13.453 11.7409 13.453H12.1705C13.8311 13.453 15.1773 12.1162 15.1773 10.4671C15.1773 8.818 13.8311 7.48115 12.1705 7.48115H7.87502C6.2144 7.48115 4.86821 8.818 4.86821 10.4671C4.86821 11.7131 5.63667 12.7808 6.72859 13.2283C7.12373 13.3902 7.44548 13.7381 7.44548 14.1626V14.2067C7.44548 14.7081 7.00755 15.1077 6.52367 14.9646C4.57261 14.3873 3.15002 12.5921 3.15002 10.4671C3.15002 7.87566 5.26548 5.7749 7.87502 5.7749H12.1705Z" fill="#BCBDBD"/>
</svg>
