<svg width="20" height="20" viewBox="0 0 20 20" fill="none" xmlns="http://www.w3.org/2000/svg">
<path d="M13.0559 5.00151C10.8318 2.77752 7.226 2.77746 5.00195 5.00151C2.778 7.22557 2.778 10.8314 5.00195 13.0554C7.226 15.2795 10.8318 15.2794 13.0559 13.0554L13.9398 13.9393C11.2275 16.6515 6.83027 16.6515 4.11807 13.9393C1.40596 11.2271 1.40596 6.82984 4.11807 4.11763C6.83027 1.40542 11.2275 1.40549 13.9398 4.11763C16.652 6.82987 16.652 11.2271 13.9398 13.9393L13.0559 13.0554C15.28 10.8314 15.28 7.2256 13.0559 5.00151Z" fill="#797A7B"/>
<path d="M12.4165 7.59328L8.22055 11.7892L5.64161 9.21031L6.5254 8.32652L8.22055 10.0217L11.5327 6.70949L12.4165 7.59328Z" fill="#797A7B"/>
<path d="M17.6616 16.7772L16.7778 17.6609L12.7812 13.6644L13.665 12.7806L17.6616 16.7772Z" fill="#797A7B"/>
</svg>
