<svg width="14" height="14" viewBox="0 0 14 14" fill="none" xmlns="http://www.w3.org/2000/svg">
<g clip-path="url(#clip0_4946_39899)">
<path d="M1.82007 6.50027C1.82007 3.91563 3.91537 1.82031 6.50007 1.82031C9.08473 1.82031 11.1801 3.91563 11.1801 6.50027C11.1801 9.08499 9.08473 11.1803 6.50007 11.1803C3.91537 11.1803 1.82007 9.08499 1.82007 6.50027Z" fill="white"/>
<path fill-rule="evenodd" clip-rule="evenodd" d="M7 0C3.13401 0 0 3.134 0 6.99997C0 10.866 3.13401 14 7 14C10.866 14 14 10.866 14 6.99997C14 3.134 10.866 0 7 0ZM7.00125 11.2426C6.42431 11.2426 5.95659 10.7749 5.95659 10.198V6.61892C5.95659 6.04193 6.42431 5.57423 7.00125 5.57423C7.57819 5.57423 8.04589 6.04193 8.04589 6.61892V10.198C8.04589 10.7749 7.57819 11.2426 7.00125 11.2426ZM6.05235 3.70918C6.05235 3.182 6.47971 2.75463 7.0069 2.75463C7.53407 2.75463 7.96144 3.182 7.96144 3.70918C7.96144 4.23636 7.53407 4.66372 7.0069 4.66372C6.47971 4.66372 6.05235 4.23636 6.05235 3.70918Z" fill="#4D88FF"/>
</g>
<defs>
<clipPath id="clip0_4946_39899">
<rect width="14" height="14" fill="white"/>
</clipPath>
</defs>
</svg>
