<svg width="24" height="24" viewBox="0 0 24 24" fill="none" xmlns="http://www.w3.org/2000/svg">
<circle cx="12" cy="12" r="10" transform="rotate(180 12 12)" fill="white"/>
<path d="M12 22C6.47715 22 2 17.5228 2 12C2 6.47715 6.47715 2 12 2C17.5228 2 22 6.47715 22 12C22 17.5228 17.5228 22 12 22ZM7.22168 16.7783C7.51741 17.074 7.99521 17.0739 8.29102 16.7783L12 13.0693L15.709 16.7783C16.0048 17.0739 16.4826 17.074 16.7783 16.7783C17.074 16.4826 17.0739 16.0048 16.7783 15.709L13.0693 12L16.7783 8.29102C17.0663 8.00282 17.0663 7.51765 16.7783 7.22949C16.4826 6.93373 16.0048 6.93378 15.709 7.22949L12 10.9307L8.29101 7.22168C7.99521 6.92608 7.5174 6.92596 7.22168 7.22168C6.92595 7.51741 6.92608 7.99521 7.22168 8.29102L10.9307 12L7.22168 15.709C6.92608 16.0048 6.92595 16.4826 7.22168 16.7783Z" fill="#DD483C"/>
</svg>
