<?xml version="1.0" encoding="UTF-8"?>
<svg id="Layer_1" xmlns="http://www.w3.org/2000/svg" version="1.1" viewBox="0 0 16 17">
  <!-- Generator: Adobe Illustrator 29.7.1, SVG Export Plug-In . SVG Version: 2.1.1 Build 8)  -->
  <defs>
    <style>
      .st0 {
        fill: #336aff;
      }
    </style>
  </defs>
  <path class="st0" d="M11.9,4.6c-.3-.3-.9-.3-1.2,0l-2.7,2.7-2.7-2.7c-.3-.3-.9-.3-1.2,0-.3.3-.3.9,0,1.2l2.7,2.7-2.7,2.7c-.3.3-.3.9,0,1.2.3.3.9.3,1.2,0l2.7-2.7,2.7,2.7c.3.3.9.3,1.2,0,.3-.3.3-.9,0-1.2l-2.7-2.7,2.7-2.7c.3-.3.3-.9,0-1.2h0Z"/>
</svg>