<svg width="20" height="20" viewBox="0 0 20 20" fill="none" xmlns="http://www.w3.org/2000/svg">
<path d="M2.97951 4.86437C2.97951 3.64796 3.95153 2.66187 5.15056 2.66187L14.8498 2.66187C16.0489 2.66187 17.0209 3.64796 17.0209 4.86437V6.45684C17.0209 6.78859 16.7558 7.05752 16.4288 7.05752C16.1018 7.05752 15.8367 6.78859 15.8367 6.45684V4.86437C15.8367 4.31146 15.3948 3.86323 14.8498 3.86323L5.15056 3.86323C4.60555 3.86323 4.16372 4.31146 4.16372 4.86437L4.16372 6.45684C4.16372 6.78859 3.89863 7.05752 3.57162 7.05752C3.24461 7.05752 2.97951 6.78859 2.97951 6.45684L2.97951 4.86437Z" fill="#2B63F1"/>
<path d="M17.0209 15.1356C17.0209 16.352 16.0489 17.3381 14.8498 17.3381L5.15056 17.3381C3.95153 17.3381 2.97951 16.352 2.97951 15.1356L2.97951 13.8093C2.97951 13.4776 3.24461 13.2087 3.57162 13.2087C3.89863 13.2087 4.16372 13.4776 4.16372 13.8094L4.16372 15.1356C4.16372 15.6885 4.60555 16.1368 5.15056 16.1368H14.8498C15.3948 16.1368 15.8367 15.6885 15.8367 15.1356V13.8094C15.8367 13.4776 16.1018 13.2087 16.4288 13.2087C16.7558 13.2087 17.0209 13.4776 17.0209 13.8094V15.1356Z" fill="#2B63F1"/>
<path d="M3.24517 9.41736C2.91816 9.41736 2.65306 9.68629 2.65306 10.018C2.65306 10.3498 2.91816 10.6187 3.24517 10.6187H16.7548C17.0818 10.6187 17.3469 10.3498 17.3469 10.018C17.3469 9.68629 17.0818 9.41736 16.7548 9.41736H3.24517Z" fill="#2B63F1"/>
<path fill-rule="evenodd" clip-rule="evenodd" d="M2.82645 4.86437C2.82645 3.55228 3.87305 2.5 5.15056 2.5L14.8498 2.5C16.1273 2.5 17.1739 3.55228 17.1739 4.86437V6.45684C17.1739 6.88427 16.8342 7.21939 16.4288 7.21939C16.0233 7.21939 15.6836 6.88427 15.6836 6.45684V4.86437C15.6836 4.40713 15.3164 4.0251 14.8498 4.0251L5.15056 4.02511C4.68402 4.02511 4.31678 4.40713 4.31678 4.86437L4.31678 6.45684C4.31678 6.88427 3.9771 7.2194 3.57162 7.2194C3.16614 7.2194 2.82645 6.88427 2.82645 6.45684L2.82645 4.86437ZM17.1739 15.1356C17.1739 16.4477 16.1273 17.5 14.8498 17.5L5.15056 17.5C3.87305 17.5 2.82645 16.4477 2.82645 15.1356L2.82645 13.8093C2.82645 13.3819 3.16613 13.0468 3.57162 13.0468C3.9771 13.0468 4.31678 13.3819 4.31678 13.8094L4.31678 15.1356C4.31678 15.5929 4.68402 15.9749 5.15056 15.9749H14.8498C15.3164 15.9749 15.6836 15.5929 15.6836 15.1356V13.8094C15.6836 13.3819 16.0233 13.0468 16.4288 13.0468C16.8342 13.0468 17.1739 13.3819 17.1739 13.8094V15.1356ZM2.5 10.018C2.5 9.59061 2.83968 9.25549 3.24517 9.25549H16.7548C17.1603 9.25549 17.5 9.59061 17.5 10.018C17.5 10.4455 17.1603 10.7806 16.7548 10.7806H3.24517C2.83968 10.7806 2.5 10.4455 2.5 10.018ZM2.97951 4.86437C2.97951 3.64796 3.95153 2.66187 5.15056 2.66187L14.8498 2.66187C16.0489 2.66187 17.0209 3.64796 17.0209 4.86437V6.45684C17.0209 6.78859 16.7558 7.05752 16.4288 7.05752C16.1018 7.05752 15.8367 6.78859 15.8367 6.45684V4.86437C15.8367 4.31146 15.3948 3.86323 14.8498 3.86323L5.15056 3.86323C4.60555 3.86323 4.16372 4.31146 4.16372 4.86437L4.16372 6.45684C4.16372 6.78859 3.89863 7.05752 3.57162 7.05752C3.24461 7.05752 2.97951 6.78859 2.97951 6.45684L2.97951 4.86437ZM17.0209 15.1356C17.0209 16.352 16.0489 17.3381 14.8498 17.3381L5.15056 17.3381C3.95153 17.3381 2.97951 16.352 2.97951 15.1356L2.97951 13.8093C2.97951 13.4776 3.24461 13.2087 3.57162 13.2087C3.89863 13.2087 4.16372 13.4776 4.16372 13.8094L4.16372 15.1356C4.16372 15.6885 4.60555 16.1368 5.15056 16.1368H14.8498C15.3948 16.1368 15.8367 15.6885 15.8367 15.1356V13.8094C15.8367 13.4776 16.1018 13.2087 16.4288 13.2087C16.7558 13.2087 17.0209 13.4776 17.0209 13.8094V15.1356ZM2.65306 10.018C2.65306 9.68629 2.91816 9.41736 3.24517 9.41736H16.7548C17.0818 9.41736 17.3469 9.68629 17.3469 10.018C17.3469 10.3498 17.0818 10.6187 16.7548 10.6187H3.24517C2.91816 10.6187 2.65306 10.3498 2.65306 10.018Z" fill="#2B63F1"/>
</svg>
