<svg width="16" height="16" viewBox="0 0 16 16" fill="none" xmlns="http://www.w3.org/2000/svg">
<path d="M13.2661 7.99967C13.266 4.93153 10.7783 2.44434 7.71012 2.44434C4.64204 2.44445 2.1549 4.93159 2.15479 7.99967C2.15479 11.0678 4.64198 13.5556 7.71012 13.5557V14.5557L7.37288 14.5472C3.90917 14.3716 1.15479 11.507 1.15479 7.99967C1.1549 4.37931 4.08976 1.44445 7.71012 1.44434C11.3306 1.44434 14.266 4.37924 14.2661 7.99967L14.2616 8.2373C14.2195 9.41947 13.8643 10.5222 13.2765 11.4645L14.2661 14.5557L11.175 13.5661C10.1698 14.193 8.98204 14.5557 7.71012 14.5557V13.5557C8.78957 13.5557 9.79463 13.2486 10.6457 12.7178L11.0382 12.473L11.4797 12.6136L12.7212 13.0107L12.3241 11.7692L12.1834 11.3278L12.4282 10.9352C12.959 10.0842 13.2661 9.07912 13.2661 7.99967Z" fill="#2563eb"/>
<path d="M9.0061 6.68587V6.59668C9.0061 6.36977 8.95414 6.1829 8.85962 6.02311C8.76636 5.86553 8.6317 5.73693 8.44035 5.6377L8.43514 5.63509L8.43058 5.63249C8.25537 5.53662 8.02573 5.47755 7.7229 5.47754C7.38509 5.47754 7.13479 5.54444 6.94881 5.65072L6.94295 5.65397C6.74219 5.76512 6.60147 5.90757 6.50545 6.08301C6.45789 6.16993 6.42156 6.26043 6.39608 6.35514L5.913 6.22493L5.42993 6.09538C5.47611 5.92373 5.54241 5.75937 5.62785 5.60319C5.81919 5.25349 6.09939 4.97984 6.45272 4.78288V4.78223C6.45356 4.78175 6.45448 4.7814 6.45532 4.78092C6.45643 4.78031 6.45747 4.77958 6.45858 4.77897V4.77962C6.82841 4.56982 7.25729 4.47754 7.7229 4.47754C8.15213 4.47755 8.55034 4.56214 8.89998 4.75098L8.90063 4.75033C8.90245 4.75127 8.90403 4.75264 8.90584 4.75358C8.90724 4.75434 8.909 4.75477 8.9104 4.75553L8.90975 4.75618C9.25099 4.93519 9.52628 5.18728 9.71965 5.514C9.91349 5.84158 10.0061 6.20696 10.0061 6.59668V6.68587C10.0061 7.07214 9.91317 7.4346 9.71769 7.75814C9.51762 8.08922 9.22636 8.33959 8.86873 8.5153L8.86483 8.5166C8.8117 8.54221 8.74033 8.57346 8.66691 8.60449C8.40046 8.71709 8.23343 8.96794 8.23332 9.23665H7.23332C7.23343 8.54574 7.66007 7.94423 8.27759 7.68327C8.34632 7.65422 8.39734 7.63182 8.42733 7.61751C8.63659 7.51472 8.7732 7.38684 8.86157 7.24056C8.95455 7.08663 9.0061 6.90637 9.0061 6.68587Z" fill="#2563eb"/>
<path d="M8.43045 10.9036C8.43045 11.3029 8.10677 11.6266 7.70748 11.6266C7.30819 11.6266 6.9845 11.3029 6.9845 10.9036C6.9845 10.5044 7.30819 10.1807 7.70748 10.1807C8.10677 10.1807 8.43045 10.5044 8.43045 10.9036Z" fill="#2563eb"/>
</svg>
