<svg width="20" height="20" viewBox="0 0 20 20" fill="none" xmlns="http://www.w3.org/2000/svg">
<path d="M10.0002 3.33398C13.6823 3.33398 16.6668 6.31849 16.6668 10.0007C16.6668 13.6828 13.6823 16.6673 10.0002 16.6673C6.318 16.6673 3.3335 13.6828 3.3335 10.0007C3.3335 6.31849 6.318 3.33398 10.0002 3.33398ZM10.0002 4.58398C7.00836 4.58398 4.5835 7.00884 4.5835 10.0007C4.5835 12.9925 7.00836 15.4173 10.0002 15.4173C12.992 15.4173 15.4168 12.9925 15.4168 10.0007C15.4168 7.00884 12.992 4.58398 10.0002 4.58398Z" fill="#3F78FF"/>
<path d="M9.13164 6.79858C9.13164 6.56846 9.31819 6.38192 9.5483 6.38192H9.96497C10.1951 6.38192 10.3816 6.56846 10.3816 6.79858V9.90838C10.3816 10.0551 10.4588 10.191 10.5848 10.2662L12.7937 11.5846L12.9725 11.691C13.1704 11.8088 13.2352 12.0648 13.1172 12.2625L12.9039 12.62C12.786 12.8176 12.5302 12.8822 12.3326 12.7643L9.43681 11.0369L9.33534 10.9765C9.20904 10.9014 9.13164 10.7653 9.13164 10.6184V6.79858Z" fill="#3F78FF"/>
</svg>
