<?xml version="1.0" encoding="UTF-8"?>
<svg id="Layer_1" xmlns="http://www.w3.org/2000/svg" version="1.1" viewBox="0 0 26 26">
  <!-- Generator: Adobe Illustrator 29.7.1, SVG Export Plug-In . SVG Version: 2.1.1 Build 8)  -->
  <defs>
    <style>
      .st0 {
        fill: #BCBDBD;
      }
    </style>
  </defs>
  <path class="st0" d="M9.2,13.2c.3-.2.8-.2,1,.1.2.3.2.8-.1,1l-2.7,2.1h11.1c.4,0,.7.3.7.7,0,.4-.3.7-.7.7H7.4l2.7,2.1h0c.3.3.3.7,0,1-.2.3-.7.4-1,.1l-4.4-3.4c0,0-.1-.1-.2-.2,0,0,0,0,0,0,0,0,0,0,0-.1,0,0,0,0,0,0,0,0,0,0,0-.1,0,0,0,0,0,0,0,0,0,0,0-.1,0,0,0,0,0-.1,0,0,0,0,0,0,0,0,0,0,0-.1,0,0,0,0,0,0,0,0,0,0,0-.1,0,0,0,0,0,0,0,0,0-.1.2-.2l4.4-3.4Z"/>
  <path class="st0" d="M16.5,4.9c-.3-.2-.8-.2-1,.1-.2.3-.2.8.1,1l2.7,2.1H7.2c-.4,0-.7.3-.7.7,0,.4.3.7.7.7h11.1l-2.7,2.1h0c-.3.3-.3.7,0,1,.2.3.7.4,1,.1l4.4-3.4c0,0,.1-.1.2-.2,0,0,0,0,0,0,0,0,0,0,0-.1,0,0,0,0,0,0,0,0,0,0,0-.1,0,0,0,0,0,0,0,0,0,0,0-.1s0,0,0-.1c0,0,0,0,0,0,0,0,0,0,0-.1,0,0,0,0,0,0,0,0,0,0,0-.1,0,0,0,0,0,0,0,0,0-.1-.2-.2l-4.4-3.4Z"/>
</svg>
