<svg width="28" height="28" viewBox="0 0 28 28" fill="none" xmlns="http://www.w3.org/2000/svg">
<path d="M23 11.6396C22.9669 11.0757 22.7179 9.57661 21.0107 7.91699C19.768 6.74123 18.6247 6.27397 17.8623 6.09668C17.5642 6.03228 17.3153 6.00005 17.1826 6C17.1163 6 17.0663 6.01611 17 6.03223L16.9355 6.06641C16.917 6.08044 16.9003 6.09627 16.8838 6.1123L16.6191 6.37012L13.6191 9.25488L11.3311 11.4941C11.298 11.5263 11.2822 11.543 11.2656 11.5752L10.5029 12.3164C10.4367 12.3808 10.3869 12.4932 10.4033 12.5898C10.4199 12.6865 10.4699 12.7671 10.5527 12.8154C10.8676 12.9926 11.2155 13.0898 11.5801 13.0898C12.0773 13.0898 12.5582 12.9121 12.9229 12.5898C12.9558 12.5578 12.9728 12.5415 13.0059 12.5254L14.4971 11.0596L14.5635 11.1074C15.1435 11.6713 15.9224 11.9774 16.7344 11.9775C16.9001 11.9775 17.0667 11.9619 17.2324 11.9297C17.5969 11.8652 17.9283 11.7524 18.2432 11.5752C18.4918 11.4463 18.7239 11.269 18.9062 11.0918L18.9727 11.0273L19.0723 10.9629C19.1551 10.8985 19.2707 10.8657 19.3701 10.8496C19.7181 10.8174 20.0165 11.0754 20.0498 11.3975L20.0527 11.4941C20.0465 11.5901 20.0124 11.6839 19.9502 11.7686L19.9668 11.7842L19.8008 11.9453C19.6185 12.1225 19.4362 12.2681 19.2373 12.4131L20.8291 13.9111L22.8838 11.9297C22.946 11.8692 22.98 11.7994 22.9932 11.7207L23 11.6396ZM12.3096 19.8574C12.0444 19.8574 11.7956 19.9536 11.6133 20.1309L11.3311 20.4053C11.149 20.5825 11.0498 20.8239 11.0498 21.0654C11.0498 21.3232 11.1487 21.5493 11.3311 21.7266C11.5133 21.9037 11.7622 21.9999 12.0107 22C12.2282 22 12.446 21.9262 12.6191 21.7891L12.6904 21.7266L12.9727 21.4521C13.1714 21.2588 13.2705 21.0009 13.2539 20.7432C13.2539 20.6465 13.2372 20.5498 13.1875 20.4531C13.1378 20.3244 13.0719 20.2118 12.9727 20.1152C12.807 19.9542 12.5747 19.857 12.3428 19.8408L12.3096 19.8574ZM9.98926 17.6172C9.72406 17.6172 9.49189 17.7144 9.30957 17.8916L9.02734 18.165C8.84508 18.3423 8.74609 18.5845 8.74609 18.8262C8.74619 19.0837 8.84523 19.3092 9.02734 19.4863C9.18692 19.6415 9.39756 19.735 9.61426 19.7559L9.70703 19.7607C9.97222 19.7607 10.2044 19.6636 10.3867 19.4863L10.6689 19.2129C10.8512 19.0356 10.9502 18.7773 10.9502 18.5195C10.9502 18.2781 10.851 18.0527 10.6689 17.8916C10.5033 17.7144 10.2709 17.6173 10.0225 17.6172H9.98926ZM5 11.7041C5 11.8169 5.03334 11.9136 5.11621 11.9941L7.43652 14.25C7.47788 14.242 7.51919 14.2374 7.56055 14.2354L7.68555 14.2334V15.3613L7.58691 15.3662C7.36249 15.3872 7.16531 15.4807 7.00586 15.6357L6.72363 15.9092C6.54131 16.0864 6.44238 16.3286 6.44238 16.5703C6.44247 16.8279 6.54147 17.0533 6.72363 17.2305C6.88325 17.3856 7.09379 17.4791 7.31055 17.5L7.40332 17.5049C7.6685 17.5049 7.90069 17.4077 8.08301 17.2305L8.36426 16.957C8.54658 16.7798 8.64648 16.5215 8.64648 16.2637C8.64644 16.022 8.54653 15.7968 8.36426 15.6357C8.19851 15.4746 7.96637 15.3774 7.71777 15.3613H7.68555V14.2334H7.76758C8.29796 14.2495 8.81214 14.4595 9.19336 14.8301C9.57446 15.2006 9.78999 15.6999 9.80664 16.2314C9.80664 16.3119 9.80656 16.3927 9.79004 16.4893C9.85634 16.4893 9.92296 16.4736 9.98926 16.4736H10.0723C10.6024 16.4898 11.116 16.699 11.4971 17.0693C11.8783 17.4399 12.0938 17.94 12.1104 18.4717C12.1104 18.5522 12.1103 18.649 12.0938 18.7295C12.16 18.7295 12.2267 18.7129 12.3096 18.7129H12.4092C12.9394 18.7291 13.4363 18.9552 13.8174 19.3096C14.0329 19.519 14.1984 19.7769 14.2979 20.0508C14.3807 20.2441 14.4141 20.4532 14.4307 20.6787C14.4307 20.7915 14.4306 20.8882 14.4141 21.001L15.1436 21.71C15.3032 21.8651 15.5137 21.9586 15.7305 21.9795L15.8232 21.9844C16.0552 21.9844 16.2615 21.9096 16.4316 21.7725L16.5029 21.71C16.6625 21.5548 16.7588 21.3503 16.7803 21.1396L16.7842 21.0498C16.7842 20.792 16.6852 20.5659 16.5029 20.3887L14.8789 18.8096C14.8624 18.7935 14.8622 18.7934 14.8457 18.7773C14.7297 18.6484 14.6631 18.5034 14.6631 18.3262C14.6632 17.9718 14.9616 17.6816 15.3262 17.6816C15.5084 17.6817 15.6907 17.7627 15.8232 17.8916L17.4473 19.4707C17.6296 19.6479 17.8784 19.7441 18.127 19.7441C18.3591 19.7441 18.5661 19.6705 18.7363 19.5332L18.8066 19.4707C18.9662 19.3156 19.0624 19.111 19.084 18.9004L19.0889 18.8096C19.0888 18.5519 18.9888 18.3266 18.8066 18.1494L17.166 16.5537C17.0334 16.4248 16.9502 16.2637 16.9502 16.0703C16.9504 15.716 17.2488 15.4258 17.6133 15.4258C17.8122 15.4258 18.011 15.523 18.1436 15.668L18.1768 15.6836L19.7676 17.2305C20.1488 17.6011 20.7623 17.6011 21.127 17.2305C21.2863 17.0755 21.3827 16.8715 21.4043 16.6611L21.4092 16.5703C21.3926 16.3125 21.2927 16.0864 21.1104 15.9092L18.127 12.9609C17.9447 13.0254 17.7458 13.0732 17.5801 13.1055C17.2983 13.1538 17.0161 13.1865 16.7178 13.1865C15.9721 13.1865 15.243 13.0087 14.5967 12.6543L13.8672 13.3633C13.8175 13.4116 13.7675 13.46 13.7178 13.4922C13.1211 14.0078 12.359 14.2822 11.5635 14.2822C10.9835 14.2822 10.4034 14.121 9.90625 13.8311C9.4919 13.5894 9.20989 13.1865 9.16016 12.7031C9.09386 12.2359 9.25936 11.7681 9.60742 11.4297L10.3203 10.7373C10.3535 10.7051 10.3868 10.6567 10.4365 10.6084L13.0723 8.04687L11.3145 6.37109L11.1162 6.16113C11.0333 6.08057 10.9334 6.04883 10.8174 6.04883C10.237 6.08112 8.71271 6.3231 6.98926 7.98242C5.28212 9.65813 5.03315 11.1402 5 11.7041ZM24.5 11.6396C24.5 12.0863 24.3503 12.5959 23.9297 13.0049L23.9248 13.0088L22.0947 14.7734L22.165 14.8428H22.1641C22.6225 15.2926 22.8664 15.8701 22.9053 16.4736L22.9092 16.5215V16.5703C22.9091 17.2062 22.6533 17.8247 22.1953 18.2822C22.1926 18.285 22.1903 18.2882 22.1875 18.291C22.1825 18.296 22.178 18.3017 22.1729 18.3066L22.1709 18.3047C21.7237 18.7472 21.1551 18.9752 20.5781 19.0029C20.5312 19.5805 20.278 20.1322 19.8525 20.5459C19.4258 20.9608 18.8742 21.2018 18.2744 21.2363C18.2289 21.8163 17.975 22.3709 17.5479 22.7861C17.0864 23.2345 16.4797 23.4844 15.8232 23.4844C15.1967 23.4844 14.5688 23.2441 14.0977 22.7861L13.9238 22.6172L13.7363 22.8018C13.2652 23.2598 12.6373 23.5 12.0107 23.5C11.3843 23.4999 10.7572 23.2596 10.2861 22.8018C9.86662 22.3939 9.6042 21.8546 9.55859 21.2529C8.9824 21.218 8.41628 20.9833 7.98242 20.5615C7.55916 20.15 7.29597 19.6052 7.25391 18.9971C6.67799 18.962 6.11138 18.7272 5.67773 18.3057C5.27313 17.9121 5.01371 17.3964 4.95508 16.8203L4.94238 16.5703L4.9541 16.3281C5.01103 15.7683 5.26425 15.2361 5.67773 14.834L5.78125 14.7324L4.07031 13.0693C3.64975 12.6604 3.50001 12.1508 3.5 11.7041V11.6602L3.50293 11.6162C3.55525 10.7261 3.93492 8.87778 5.93848 6.91113L5.94824 6.90137C7.9679 4.95686 9.85062 4.59989 10.7344 4.55078L10.7764 4.54883H10.8174C11.2426 4.54883 11.745 4.68146 12.1611 5.08594L12.1836 5.10645L12.2041 5.12891L12.3682 5.30273L13.9727 6.83301L15.5791 5.28906L15.8389 5.03711L15.8916 4.98535C15.9895 4.895 16.2181 4.70917 16.5381 4.60547L16.5908 4.58789L16.6455 4.57422C16.655 4.57191 16.6523 4.57281 16.6816 4.56543C16.702 4.56031 16.7402 4.55135 16.7852 4.54199C16.8851 4.52117 17.0203 4.5 17.1826 4.5L17.415 4.51074C17.5777 4.52404 17.7527 4.54887 17.9248 4.58008L18.1787 4.63086L18.1904 4.63281L18.2012 4.63574C19.1526 4.85692 20.4289 5.39119 21.7725 6.58105L22.042 6.82812L22.0498 6.83496L22.0566 6.8418C24.0685 8.79765 24.4451 10.6672 24.4971 11.5518L24.5 11.5957V11.6396Z" fill="#336AFF"/>
</svg>
