<svg width="29" height="30" viewBox="0 0 29 30" fill="none" xmlns="http://www.w3.org/2000/svg">
<path d="M8.91797 24.0382L20.3125 24.0382C20.8648 24.0382 21.3125 23.5905 21.3125 23.0382L21.3125 13.2227C21.3125 12.6704 20.8648 12.2227 20.3125 12.2227L8.91797 12.2227C8.36568 12.2227 7.91797 12.6704 7.91797 13.2227L7.91797 23.0382C7.91797 23.5905 8.36568 24.0382 8.91797 24.0382Z" stroke="#B4B4B4" stroke-width="1.5"/>
<path d="M10.9878 11.7715L10.9878 8.03095C10.9878 6.02763 12.6118 4.40362 14.6151 4.40362C16.6184 4.40362 18.2424 6.02763 18.2424 8.03095L18.2424 9.98787" stroke="#B4B4B4" stroke-width="1.5" stroke-linecap="round"/>
<path d="M14.5425 20.043L14.5425 17.1341" stroke="#B4B4B4" stroke-width="1.5" stroke-linecap="round"/>
<circle cx="14.5424" cy="17.132" r="1.41914" fill="#B4B4B4"/>
</svg>
