<svg width="28" height="28" viewBox="0 0 28 28" fill="none" xmlns="http://www.w3.org/2000/svg">
<path d="M12.5417 7.00001C13.0249 7.00001 13.4167 7.39176 13.4167 7.87501C13.4167 8.35825 13.0249 8.75 12.5417 8.75001H10.2083C9.40291 8.75001 8.74999 9.40292 8.74999 10.2083V18.2565L10.8144 16.5361C11.1856 16.2269 11.7378 16.2768 12.0472 16.6478C12.3565 17.019 12.3066 17.5711 11.9355 17.8805L8.43554 20.7972C8.11105 21.0676 7.63893 21.0676 7.31444 20.7972L3.81444 17.8805L3.7495 17.8202C3.43882 17.5033 3.41262 16.996 3.70279 16.6478C3.99293 16.2999 4.49618 16.2344 4.86376 16.4826L4.93554 16.5361L6.99999 18.2565V10.2083C6.99999 8.43643 8.43641 7.00001 10.2083 7.00001H12.5417Z" fill="#BCBDBD"/>
<path d="M15.4583 21C14.9751 21 14.5833 20.6083 14.5833 20.125C14.5833 19.6418 14.9751 19.25 15.4583 19.25H17.7916C18.5971 19.25 19.25 18.5971 19.25 17.7917V9.7435L17.1855 11.4639C16.8144 11.7732 16.2622 11.7232 15.9528 11.3522C15.6435 10.9811 15.6934 10.4289 16.0644 10.1195L19.5644 7.20281C19.8889 6.9324 20.361 6.9324 20.6855 7.20281L24.1855 10.1195L24.2505 10.1799C24.5611 10.4967 24.5873 11.004 24.2972 11.3522C24.007 11.7001 23.5038 11.7656 23.1362 11.5174L23.0644 11.4639L21 9.7435V17.7917C21 19.5636 19.5636 21 17.7916 21H15.4583Z" fill="#BCBDBD"/>
</svg>
