<?xml version="1.0" encoding="UTF-8"?>
<svg id="Layer_1" xmlns="http://www.w3.org/2000/svg" version="1.1" viewBox="0 0 26 26">
  <!-- Generator: Adobe Illustrator 29.7.1, SVG Export Plug-In . SVG Version: 2.1.1 Build 8)  -->
  <defs>
    <style>
      .st0 {
        fill-rule: evenodd;
      }

      .st0, .st1 {
        fill: #BCBDBD;
      }
    </style>
  </defs>
  <path class="st1" d="M14.9,16.5c.4,0,.8.3.8.8s-.3.8-.8.8h-6.3c-.4,0-.8-.3-.8-.8s.3-.8.8-.8h6.3Z"/>
  <path class="st1" d="M13.3,12.8c.4,0,.8.3.8.8s-.3.8-.8.8h-4.7c-.4,0-.8-.3-.8-.8s.3-.8.8-.8h4.7Z"/>
  <path class="st0" d="M15.3,3.7c.3,0,.6.1.8.3l4.3,4.6c.2.2.3.4.3.7v12.1c0,.6-.5,1-1,1H6.1c-.6,0-1-.5-1-1V4.7c0-.6.5-1,1-1h9.2ZM7.1,5.3c-.3,0-.5.2-.5.5v14.6c0,.3.2.5.5.5h11.5c.3,0,.5-.2.5-.5v-9.6h-4.2c-.4,0-.8-.3-.8-.8v-4.7h-7ZM15.7,9.2h3.1l-3.1-3.3v3.3Z"/>
</svg>
