<svg width="18" height="18" viewBox="0 0 18 18" fill="none" xmlns="http://www.w3.org/2000/svg">
<path d="M8.97296 11.3294C8.96795 10.3554 9.27495 9.88832 9.89504 9.36492C10.5151 8.84152 10.8824 8.40833 10.8824 7.5106C10.7671 6.50745 9.88756 5.76825 8.87939 5.82755C7.87124 5.88602 7.08442 6.72212 7.08692 7.73279" stroke="#797A7B" stroke-width="1.3"/>
<path d="M8.98438 2.81836C12.6381 2.81836 15.5996 5.77988 15.5996 9.43359C15.5996 13.0873 12.6381 16.0488 8.98438 16.0488C7.80526 16.0488 6.69959 15.7415 5.74219 15.2021L5.56738 15.1035L5.36719 15.1211L3.09766 15.3193L3.29688 13.0508L3.31445 12.8506L3.21582 12.6758C2.6765 11.7184 2.36914 10.6127 2.36914 9.43359C2.36914 5.77988 5.33067 2.81836 8.98438 2.81836Z" stroke="#797A7B" stroke-width="1.3"/>
<circle cx="8.9839" cy="12.9107" r="0.65" fill="#797A7B" stroke="#797A7B" stroke-width="0.255682"/>
</svg>
