<svg width="80" height="80" viewBox="0 0 80 80" fill="none" xmlns="http://www.w3.org/2000/svg">
<path d="M40.0003 19.6353C49.3567 19.6353 56.9416 27.2202 56.9416 36.5766H54.7455C54.7455 28.433 48.1438 21.8314 40.0003 21.8314C31.8567 21.8314 25.255 28.433 25.255 36.5766H23.0589C23.0589 27.2202 30.6438 19.6353 40.0003 19.6353Z" fill="#3F78FF"/>
<path d="M43.3728 57.4004C43.3728 57.7357 43.3239 58.0595 43.2328 58.3652C48.6465 57.6847 53.2652 54.4495 55.8436 49.9049L53.6963 49.2236C51.4434 52.9177 47.6115 55.5433 43.1384 56.1623C43.2897 56.5456 43.3728 56.9633 43.3728 57.4004Z" fill="#3F78FF"/>
<path d="M27.4066 39.832C27.4066 38.0886 25.9937 36.675 24.2503 36.6748C22.5068 36.6748 21.0931 38.0885 21.0931 39.832V45.3223C21.0932 47.0656 22.5069 48.4785 24.2503 48.4785C25.9936 48.4783 27.4064 47.0655 27.4066 45.3223V39.832ZM29.4066 45.3223C29.4064 48.1701 27.0981 50.4783 24.2503 50.4785C21.4023 50.4785 19.0932 48.1702 19.0931 45.3223V39.832C19.0931 36.984 21.4022 34.6748 24.2503 34.6748C27.0982 34.675 29.4066 36.9841 29.4066 39.832V45.3223Z" fill="#3F78FF"/>
<path d="M58.9066 39.832C58.9066 38.0886 57.4937 36.675 55.7503 36.6748C54.0068 36.6748 52.5931 38.0885 52.5931 39.832V45.3223C52.5932 47.0656 54.0069 48.4785 55.7503 48.4785C57.4936 48.4783 58.9064 47.0655 58.9066 45.3223V39.832ZM60.9066 45.3223C60.9064 48.1701 58.5981 50.4783 55.7503 50.4785C52.9023 50.4785 50.5932 48.1702 50.5931 45.3223V39.832C50.5931 36.984 52.9022 34.6748 55.7503 34.6748C58.5982 34.675 60.9066 36.9841 60.9066 39.832V45.3223Z" fill="#3F78FF"/>
<path d="M40.9945 55.8389C42.2444 55.8389 43.2576 56.8521 43.2576 58.102C43.2576 59.3519 42.2444 60.3651 40.9945 60.3651H39.0055C37.7556 60.3651 36.7424 59.3519 36.7424 58.102C36.7424 56.8521 37.7556 55.8389 39.0055 55.8389H40.9945Z" fill="#3F78FF"/>
<path d="M40.9949 59.3652C41.6923 59.365 42.2576 58.799 42.2576 58.1016C42.2574 57.4043 41.6922 56.8391 40.9949 56.8389H39.0057L38.8768 56.8457C38.2398 56.9102 37.7422 57.4476 37.742 58.1016C37.742 58.7992 38.3081 59.3652 39.0057 59.3652H40.9949ZM39.0057 61.3652C37.2035 61.3652 35.742 59.9037 35.742 58.1016C35.7422 56.3559 37.1137 54.9301 38.8377 54.8428L39.0057 54.8389H40.9949C42.7968 54.8391 44.2574 56.2997 44.2576 58.1016C44.2576 59.9036 42.7969 61.365 40.9949 61.3652H39.0057Z" fill="#3F78FF"/>
</svg>
