<svg width="25" height="25" viewBox="0 0 25 25" fill="none" xmlns="http://www.w3.org/2000/svg">
<path d="M6.25 8.85425L19.7917 8.85425C20.0793 8.85425 20.3125 9.08743 20.3125 9.37508L20.3125 18.7501C20.3125 19.0377 20.0793 19.2709 19.7917 19.2709L13.4104 19.2709C12.9691 19.8843 12.4194 20.4145 11.7894 20.8334L19.7917 20.8334C20.9423 20.8334 21.875 19.9007 21.875 18.7501L21.875 9.37508C21.875 8.22449 20.9423 7.29175 19.7917 7.29175L6.25 7.29175C5.09941 7.29175 4.16667 8.22449 4.16667 9.37508V10.9665C4.63041 10.5515 5.15651 10.2046 5.72917 9.94179V9.37508C5.72917 9.08743 5.96235 8.85425 6.25 8.85425Z" fill="#336AFF"/>
<path d="M6.25 5.72925L16.6667 5.72925C16.9543 5.72925 17.1875 5.96243 17.1875 6.25008L18.75 6.25008C18.75 5.09949 17.8173 4.16675 16.6667 4.16675L6.25 4.16675C5.09941 4.16675 4.16667 5.09949 4.16667 6.25008L4.16667 9.37508L5.72917 9.09099L5.72917 6.25008C5.72917 5.96243 5.96235 5.72925 6.25 5.72925Z" fill="#336AFF"/>
<path d="M18.75 14.0626C18.75 14.6379 18.2836 15.1042 17.7083 15.1042C17.133 15.1042 16.6667 14.6379 16.6667 14.0626C16.6667 13.4873 17.133 13.0209 17.7083 13.0209C18.2836 13.0209 18.75 13.4873 18.75 14.0626Z" fill="#336AFF"/>
<path fill-rule="evenodd" clip-rule="evenodd" d="M8.33333 19.2709C10.3469 19.2709 11.9792 17.6386 11.9792 15.6251C11.9792 13.6115 10.3469 11.9792 8.33333 11.9792C6.3198 11.9792 4.6875 13.6115 4.6875 15.6251C4.6875 17.6386 6.3198 19.2709 8.33333 19.2709ZM8.33333 20.8334C11.2098 20.8334 13.5417 18.5016 13.5417 15.6251C13.5417 12.7486 11.2098 10.4167 8.33333 10.4167C5.45685 10.4167 3.125 12.7486 3.125 15.6251C3.125 18.5016 5.45685 20.8334 8.33333 20.8334Z" fill="#336AFF"/>
<path fill-rule="evenodd" clip-rule="evenodd" d="M8.33333 13.5417C8.62098 13.5417 8.85417 13.7749 8.85417 14.0626V17.1876C8.85417 17.4752 8.62098 17.7084 8.33333 17.7084C8.04568 17.7084 7.8125 17.4752 7.8125 17.1876V14.0626C7.8125 13.7749 8.04568 13.5417 8.33333 13.5417Z" fill="#336AFF"/>
<path fill-rule="evenodd" clip-rule="evenodd" d="M10.4167 15.6251C10.4167 15.9127 10.1835 16.1459 9.89583 16.1459H6.77083C6.48318 16.1459 6.25 15.9127 6.25 15.6251C6.25 15.3374 6.48318 15.1042 6.77083 15.1042L9.89583 15.1042C10.1835 15.1042 10.4167 15.3374 10.4167 15.6251Z" fill="#336AFF"/>
</svg>
