<?xml version="1.0" encoding="UTF-8"?>
<svg id="Layer_1" xmlns="http://www.w3.org/2000/svg" version="1.1" viewBox="0 0 26 26">
  <!-- Generator: Adobe Illustrator 29.7.1, SVG Export Plug-In . SVG Version: 2.1.1 Build 8)  -->
  <defs>
    <style>
      .st0 {
        fill: #BCBDBD;
      }
    </style>
  </defs>
  <path class="st0" d="M13.9,15.2c-.7.3-1.5.4-2.1,0l-5.7-2.8v3.9l6.8,3.4,6.8-3.4v-4.1l-5.7,3ZM12.7,4.8c0,0,.2,0,.3,0l6.6,3.3c.2.1.2.4,0,.6l-6.6,3.5h0c0,0-.1,0-.2,0l-6.8-3.3c-.2-.1-.2-.4,0-.6l6.9-3.4ZM8.8,8.5l4,2,3.9-2-3.9-1.9-4,2ZM21.1,17.2c0,0,0,.2-.2.2l-8,4c0,0-.1,0-.2,0h0s-8-4.1-8-4.1c0,0-.1-.1-.2-.2h0v-6.8c0-.2.2-.4.4-.3l7.5,3.7c.2.1.5.1.7,0l7.5-3.9c.2-.1.5,0,.5.3v6.9h0Z"/>
</svg>
