<svg width="28" height="28" viewBox="0 0 28 28" fill="none" xmlns="http://www.w3.org/2000/svg">
<path d="M4.66663 7.61399C4.66663 6.95271 5.14878 6.41663 5.74355 6.41663H22.2564C22.8511 6.41663 23.3333 6.95271 23.3333 7.61399C23.3333 8.27528 22.8511 8.81136 22.2564 8.81136H5.74355C5.14878 8.81136 4.66663 8.27528 4.66663 7.61399Z" fill="#BCBDBD"/>
<path d="M4.66663 14C4.66663 13.3387 5.14878 12.8026 5.74355 12.8026H22.2564C22.8511 12.8026 23.3333 13.3387 23.3333 14C23.3333 14.6612 22.8511 15.1973 22.2564 15.1973H5.74355C5.14878 15.1973 4.66663 14.6612 4.66663 14Z" fill="#BCBDBD"/>
<path d="M4.66663 20.3859C4.66663 19.7246 5.14878 19.1886 5.74355 19.1886H22.2564C22.8511 19.1886 23.3333 19.7246 23.3333 20.3859C23.3333 21.0472 22.8511 21.5833 22.2564 21.5833H5.74355C5.14878 21.5833 4.66663 21.0472 4.66663 20.3859Z" fill="#BCBDBD"/>
</svg>
