<svg width="16" height="16" viewBox="0 0 16 16" fill="none" xmlns="http://www.w3.org/2000/svg">
<path d="M4.88922 7.11242C6.11652 7.11242 7.11144 6.1175 7.11144 4.89019C7.11144 3.66289 6.11652 2.66797 4.88922 2.66797C3.66192 2.66797 2.66699 3.66289 2.66699 4.89019C2.66699 6.1175 3.66192 7.11242 4.88922 7.11242Z" fill="#01D183"/>
<path d="M4.88922 13.3351C6.11652 13.3351 7.11144 12.3402 7.11144 11.1129C7.11144 9.88555 6.11652 8.89062 4.88922 8.89062C3.66192 8.89062 2.66699 9.88555 2.66699 11.1129C2.66699 12.3402 3.66192 13.3351 4.88922 13.3351Z" fill="#2390FF"/>
<path d="M11.1099 7.11242C12.3372 7.11242 13.3321 6.1175 13.3321 4.89019C13.3321 3.66289 12.3372 2.66797 11.1099 2.66797C9.88262 2.66797 8.8877 3.66289 8.8877 4.89019C8.8877 6.1175 9.88262 7.11242 11.1099 7.11242Z" fill="#52D5FF"/>
<path d="M11.1099 13.3351C12.3372 13.3351 13.3321 12.3402 13.3321 11.1129C13.3321 9.88555 12.3372 8.89062 11.1099 8.89062C9.88262 8.89062 8.8877 9.88555 8.8877 11.1129C8.8877 12.3402 9.88262 13.3351 11.1099 13.3351Z" fill="#FF7D43"/>
</svg>
