<svg width="15" height="15" viewBox="0 0 15 15" fill="none" xmlns="http://www.w3.org/2000/svg">
<path fill-rule="evenodd" clip-rule="evenodd" d="M7.65104 0.765625C3.96914 0.765625 0.984375 3.75039 0.984375 7.43229C0.984375 11.1142 3.96914 14.099 7.65104 14.099C11.3329 14.099 14.3177 11.1142 14.3177 7.43229C14.3177 3.75039 11.3329 0.765625 7.65104 0.765625ZM7.65223 11.4729C7.10276 11.4729 6.65733 11.0275 6.65733 10.478V7.06932C6.65733 6.51985 7.10276 6.07442 7.65223 6.07442C8.2017 6.07442 8.64714 6.51985 8.64714 7.06932V10.478C8.64714 11.0275 8.2017 11.4729 7.65223 11.4729ZM6.74852 4.29818C6.74852 3.79611 7.15553 3.38909 7.65761 3.38909C8.15969 3.38909 8.5667 3.79611 8.5667 4.29818C8.5667 4.80026 8.15969 5.20727 7.65761 5.20727C7.15553 5.20727 6.74852 4.80026 6.74852 4.29818Z" fill="#2250F7"/>
</svg>
