<svg width="25" height="25" viewBox="0 0 25 25" fill="none" xmlns="http://www.w3.org/2000/svg">
<path d="M12.0356 2.60309C12.3123 2.39242 12.6952 2.38989 12.9746 2.59699L15.3763 4.37921L15.6957 4.59182L15.9653 4.74644C16.6064 5.08866 17.3368 5.29775 18.1463 5.29779L21.8735 5.29779C22.1011 5.29779 22.3171 5.39789 22.4655 5.57042C22.6138 5.7429 22.6795 5.9711 22.6456 6.19603C22.528 6.97382 22.3729 7.76031 22.1808 8.55234H20.57C20.7162 7.98409 20.8422 7.41962 20.9478 6.86029H18.1463C16.9004 6.86022 15.7982 6.48941 14.8768 5.92239L14.8681 5.91717C14.8631 5.91425 14.8582 5.91132 14.8534 5.90815L14.4964 5.67011L14.4901 5.66597C14.4802 5.65941 14.4702 5.65278 14.4608 5.64569L14.4465 5.6345L12.5148 4.2012L10.6644 5.61212L10.6471 5.62535C10.6355 5.6345 10.6236 5.64332 10.6115 5.6518L10.5871 5.66706L10.5881 5.66807C9.56276 6.39849 8.2447 6.86007 6.93614 6.86029L4.04714 6.86029C4.493 9.25194 5.30832 11.6829 6.49058 14.1581L6.75812 14.687C8.12579 17.2947 9.95835 19.4438 12.1943 21.11C12.2616 21.156 12.3759 21.1934 12.4608 21.1934C12.4717 21.1934 12.4928 21.193 12.5412 21.1771C12.5961 21.159 12.6909 21.118 12.8423 21.0266C13.7874 20.3635 14.6556 19.605 15.4455 18.7499H17.501C16.405 20.1337 15.1409 21.3276 13.711 22.3266C13.698 22.3357 13.6849 22.3448 13.6714 22.3531C13.2025 22.6393 12.8319 22.7558 12.4608 22.7559C12.0464 22.7559 11.6209 22.6148 11.3002 22.3917C11.2935 22.3871 11.2863 22.3823 11.2798 22.3775C8.67826 20.4437 6.58809 17.9134 5.08677 14.8437L5.08372 14.8376C3.69469 11.9309 2.77393 9.05099 2.35036 6.19399C2.3171 5.96945 2.38328 5.74137 2.53144 5.5694C2.67984 5.39737 2.89628 5.29779 3.12348 5.29779L6.93512 5.29779C7.89362 5.29771 8.89951 4.95274 9.6817 4.39549L9.68781 4.39142L9.70713 4.37616L9.71731 4.36802L12.0356 2.60309Z" fill="#336AFF"/>
<path d="M12.9355 8.33327C13.1127 8.33351 13.2565 8.48573 13.2567 8.67316V9.01076C13.257 9.17 13.3632 9.30514 13.5068 9.35294C13.6036 9.3851 13.6972 9.42334 13.7872 9.46623C14.1435 9.63277 14.441 9.87598 14.6786 10.1952C14.8554 10.4272 14.9965 10.6982 15.1024 11.0055C15.1659 11.1908 15.0474 11.384 14.8638 11.4186L14.1597 11.5513C13.9898 11.5833 13.829 11.4638 13.7558 11.2984C13.7143 11.2047 13.6642 11.1168 13.6041 11.0364C13.4821 10.87 13.3287 10.7413 13.1458 10.6496C12.966 10.5544 12.7647 10.5042 12.5431 10.4973C12.3311 10.4906 12.137 10.5221 11.9635 10.5935C11.7938 10.6648 11.657 10.7646 11.5544 10.8933C11.4549 11.0189 11.4049 11.163 11.4047 11.3225C11.4048 11.4991 11.4759 11.6534 11.6171 11.7825C11.7585 11.9081 11.9841 12.0158 12.292 12.1075L13.5172 12.476C14.1302 12.6629 14.5719 12.9157 14.8419 13.2348C15.1149 13.5543 15.2529 13.9783 15.2531 14.5051C15.2531 14.9671 15.1417 15.3738 14.9203 15.7239C14.6988 16.0738 14.3882 16.3483 13.9902 16.5455C13.8436 16.6187 13.6871 16.677 13.5225 16.7218C13.3712 16.7629 13.2569 16.9033 13.2567 17.0685V17.3684C13.2565 17.5558 13.1127 17.708 12.9355 17.7083H12.2669C12.0896 17.7083 11.9449 17.556 11.9446 17.3684V17.056C11.9443 16.8932 11.8343 16.7554 11.6862 16.7115C11.5433 16.6692 11.4059 16.616 11.275 16.5513C10.883 16.3541 10.563 16.0762 10.3155 15.7193C10.1256 15.4425 9.98822 15.127 9.90434 14.774C9.8618 14.5935 9.98387 14.4208 10.1576 14.3918L10.8481 14.2796C11.0146 14.2524 11.1709 14.3662 11.2342 14.5314C11.3349 14.7946 11.4864 15.0146 11.6893 15.1894C11.9688 15.4272 12.3021 15.5464 12.6875 15.5465C13.0505 15.5464 13.3517 15.4554 13.5894 15.2753C13.8299 15.0952 13.9502 14.8728 13.9504 14.6081C13.9503 14.4281 13.8983 14.2784 13.7924 14.1629C13.6896 14.044 13.5254 13.947 13.3038 13.8722L11.5889 13.3114C10.599 12.9884 10.1042 12.349 10.1042 11.3934C10.1043 10.945 10.2034 10.5557 10.4024 10.2261C10.6049 9.89647 10.8899 9.64299 11.2562 9.46623C11.3881 9.40197 11.5291 9.34944 11.6778 9.30945C11.8301 9.26814 11.9446 9.12903 11.9446 8.96269V8.67316C11.9449 8.48558 12.0896 8.33327 12.2669 8.33327H12.9355Z" fill="#336AFF"/>
<path d="M23.805 12.8588L24.0346 13.2336L21.9542 16.3541L20.8082 15.5901L21.9309 13.9061L16.6667 13.9061V12.5288L21.991 12.5288L20.9481 10.8215L22.1228 10.1041L23.805 12.8588Z" fill="#336AFF"/>
</svg>
