<svg width="16" height="16" viewBox="0 0 16 16" fill="none" xmlns="http://www.w3.org/2000/svg">
<path d="M13.2662 8.00065C13.2661 4.9325 10.7784 2.44531 7.71019 2.44531C4.6421 2.44542 2.15496 4.93257 2.15485 8.00065C2.15485 11.0688 4.64204 13.5565 7.71019 13.5566V14.5566L7.37295 14.5482C3.90923 14.3726 1.15485 11.508 1.15485 8.00065C1.15496 4.38029 4.08982 1.44542 7.71019 1.44531C11.3306 1.44531 14.2661 4.38022 14.2662 8.00065L14.2616 8.23828C14.2195 9.42045 13.8643 10.5231 13.2766 11.4655L14.2662 14.5566L11.175 13.5671C10.1698 14.194 8.9821 14.5566 7.71019 14.5566V13.5566C8.78963 13.5566 9.79469 13.2495 10.6457 12.7188L11.0383 12.474L11.4797 12.6146L12.7213 13.0117L12.3241 11.7702L12.1835 11.3288L12.4283 10.9362C12.9591 10.0852 13.2662 9.0801 13.2662 8.00065Z" fill="#797A7B"/>
</svg>
