<svg width="28" height="28" viewBox="0 0 28 28" fill="none" xmlns="http://www.w3.org/2000/svg">
<path d="M9.52474 14.3497C9.65361 14.3497 9.7583 14.4544 9.7583 14.5833V14.8146C9.75851 14.9238 9.83518 15.0165 9.93945 15.0493C10.0098 15.0714 10.0779 15.0973 10.1434 15.1268C10.4021 15.241 10.618 15.4078 10.7905 15.6269C10.9189 15.7861 11.0212 15.972 11.0981 16.1829C11.1445 16.3102 11.0584 16.4429 10.925 16.4666L10.4134 16.5577C10.2901 16.5797 10.1738 16.498 10.1206 16.3846C10.0904 16.3201 10.0539 16.2598 10.0101 16.2045C9.92147 16.0903 9.8103 16.002 9.67741 15.9391C9.54676 15.8738 9.40087 15.8389 9.23991 15.8343C9.08597 15.8296 8.94546 15.8514 8.8195 15.9004C8.6961 15.9493 8.5967 16.0181 8.52214 16.1066C8.44993 16.1928 8.41401 16.2911 8.4139 16.4005C8.4139 16.5218 8.46512 16.6275 8.56771 16.7161C8.6703 16.8024 8.83387 16.8764 9.05762 16.9394L9.94743 17.1923C10.3925 17.3206 10.7131 17.494 10.909 17.713C11.1073 17.9323 11.2074 18.2231 11.2075 18.5846C11.2075 18.9016 11.1267 19.1807 10.966 19.4209C10.8051 19.6611 10.5795 19.8495 10.2904 19.9848C10.1838 20.0351 10.0705 20.0748 9.95085 20.1056C9.84092 20.1338 9.7583 20.2302 9.7583 20.3437V20.5488C9.7583 20.6777 9.65361 20.7823 9.52474 20.7823H9.03939C8.91052 20.7823 8.80583 20.6777 8.80583 20.5488V20.3346C8.80557 20.2229 8.72546 20.1289 8.61784 20.0988C8.51396 20.0697 8.41447 20.0327 8.31934 19.9882C8.03477 19.8529 7.80283 19.6624 7.62321 19.4174C7.48532 19.2275 7.3856 19.0114 7.32471 18.7692C7.29369 18.6453 7.38199 18.527 7.50814 18.5071L8.00944 18.4296C8.13043 18.4108 8.24374 18.4893 8.28971 18.6028C8.36279 18.7834 8.47279 18.934 8.62012 19.054C8.82305 19.2173 9.06484 19.2989 9.34473 19.299C9.60839 19.299 9.82717 19.2369 9.99984 19.1132C10.1745 18.9897 10.2617 18.8369 10.2619 18.6552C10.2618 18.5317 10.2238 18.4292 10.1468 18.3499C10.0721 18.2683 9.95336 18.2018 9.79248 18.1505L8.5472 17.7654C7.82857 17.5438 7.4694 17.1052 7.4694 16.4495C7.46948 16.1418 7.54139 15.8747 7.68587 15.6486C7.83287 15.4223 8.03972 15.2481 8.30566 15.1268C8.40145 15.0826 8.50407 15.0471 8.61214 15.0197C8.72269 14.9913 8.80583 14.8957 8.80583 14.7815V14.5833C8.80583 14.4544 8.91052 14.3497 9.03939 14.3497H9.52474Z" fill="#BCBDBD"/>
<path fill-rule="evenodd" clip-rule="evenodd" d="M9.33333 11.6666C12.555 11.6666 15.1667 14.2783 15.1667 17.5C15.1667 20.7216 12.555 23.3333 9.33333 23.3333C6.11167 23.3333 3.5 20.7216 3.5 17.5C3.5 14.2783 6.11167 11.6666 9.33333 11.6666ZM9.33333 13.4166C7.07817 13.4166 5.25 15.2448 5.25 17.5C5.25 19.7551 7.07817 21.5833 9.33333 21.5833C11.5885 21.5833 13.4167 19.7551 13.4167 17.5C13.4167 15.2448 11.5885 13.4166 9.33333 13.4166Z" fill="#BCBDBD"/>
<path d="M18.6667 4.66663C19.9553 4.66663 21 5.7113 21 6.99996H19.25C19.25 6.67779 18.9888 6.41663 18.6667 6.41663H7C6.67783 6.41663 6.41667 6.67779 6.41667 6.99996V8.24296C6.60332 8.19486 6.79833 8.16663 7 8.16663H22.1667C23.4553 8.16663 24.5 9.2113 24.5 10.5V21C24.5 22.2886 23.4553 23.3333 22.1667 23.3333H13.2036C13.9093 22.8641 14.5255 22.2703 15.0197 21.5833H22.1667C22.4888 21.5833 22.75 21.3221 22.75 21V10.5C22.75 10.1778 22.4888 9.91663 22.1667 9.91663H7C6.67783 9.91663 6.41667 10.1778 6.41667 10.5V11.1346C5.77539 11.4289 5.186 11.8171 4.66667 12.2819V6.99996C4.66667 5.7113 5.71134 4.66663 7 4.66663H18.6667Z" fill="#BCBDBD"/>
<path d="M19.8333 14.5833C20.4777 14.5833 21 15.1056 21 15.75C21 16.3943 20.4777 16.9166 19.8333 16.9166C19.189 16.9166 18.6667 16.3943 18.6667 15.75C18.6667 15.1056 19.189 14.5833 19.8333 14.5833Z" fill="#BCBDBD"/>
</svg>
