<svg width="29" height="30" viewBox="0 0 29 30" fill="none" xmlns="http://www.w3.org/2000/svg">
<path fill-rule="evenodd" clip-rule="evenodd" d="M15.5044 7.74242C17.2764 5.96346 20.149 5.96346 21.921 7.74242C23.693 9.52177 23.6931 12.4067 21.921 14.186L19.3121 16.8052C17.5401 18.5843 14.6675 18.5842 12.8955 16.8052C12.5867 16.495 12.5867 15.9918 12.8955 15.6817C13.204 15.3724 13.7038 15.3725 14.0124 15.6817C15.1671 16.841 17.0396 16.841 18.1943 15.6817L20.8032 13.0626C21.9575 11.9035 21.9574 10.0249 20.8032 8.86584C19.6485 7.70672 17.7769 7.7067 16.6222 8.86584L14.892 10.6017C14.5833 10.9115 14.0837 10.9115 13.775 10.6017C13.4662 10.2916 13.4662 9.78934 13.775 9.47921L15.5044 7.74242ZM9.91802 13.3511C11.69 11.572 14.5635 11.572 16.3355 13.3511C16.6442 13.6613 16.6443 14.1645 16.3355 14.4745C16.0461 14.7651 15.5877 14.783 15.2773 14.5285L15.2177 14.4745C14.063 13.3152 12.1905 13.3152 11.0358 14.4745L8.42695 17.0937C7.2726 18.2528 7.27254 20.1323 8.42695 21.2914C9.58158 22.4504 11.4542 22.4504 12.6088 21.2914L14.3382 19.5546C14.6468 19.2447 15.1473 19.2447 15.456 19.5546C15.7647 19.8647 15.7648 20.3679 15.456 20.678L13.7266 22.4139C11.9547 24.1929 9.08207 24.1928 7.31005 22.4139C5.53785 20.6345 5.53701 17.7496 7.30912 15.9703L9.91802 13.3511Z" fill="#B4B4B4"/>
</svg>
