<svg width="28" height="28" viewBox="0 0 28 28" fill="none" xmlns="http://www.w3.org/2000/svg">
<path d="M14 4.66663C19.155 4.66663 23.3333 8.84493 23.3333 14C23.3333 19.155 19.155 23.3333 14 23.3333C8.84493 23.3333 4.66663 19.155 4.66663 14C4.66663 8.84493 8.84493 4.66663 14 4.66663ZM14 6.41663C9.81143 6.41663 6.41663 9.81143 6.41663 14C6.41663 18.1885 9.81143 21.5833 14 21.5833C18.1885 21.5833 21.5833 18.1885 21.5833 14C21.5833 9.81143 18.1885 6.41663 14 6.41663Z" fill="#BCBDBD"/>
<path d="M12.784 9.51706C12.784 9.1949 13.0452 8.93373 13.3674 8.93373H13.9507C14.2729 8.93373 14.534 9.1949 14.534 9.51706V13.8708C14.534 14.0762 14.642 14.2664 14.8184 14.3717L17.911 16.2174L18.1613 16.3665C18.4383 16.5314 18.5289 16.8897 18.3638 17.1666L18.0652 17.667C17.9001 17.9437 17.542 18.0342 17.2654 17.8691L13.2113 15.4507L13.0692 15.3662C12.8924 15.261 12.784 15.0705 12.784 14.8648V9.51706Z" fill="#BCBDBD"/>
</svg>
