<svg width="140" height="140" viewBox="0 0 140 140" fill="none" xmlns="http://www.w3.org/2000/svg">
<rect x="0.5" y="0.5" width="139" height="139" rx="69.5" stroke="#EEEEEE"/>
<path d="M95.2901 51.6692C94.9352 51.1373 94.4027 50.9599 93.6928 50.9599H82.5119C80.9147 50.9599 79.4949 50.428 78.2526 49.5413L71.3311 44.399C70.6212 43.867 69.5563 43.867 68.6689 44.399L61.9249 49.5413C60.6826 50.428 59.0853 50.9599 57.6655 50.9599H46.1297C45.5973 50.9599 44.8874 51.1373 44.5324 51.6692C44.1775 52.0239 44 52.5558 44 53.2651C44.7099 61.0673 47.0171 68.8696 50.744 76.6718C54.2935 83.942 59.2628 89.971 65.4744 94.5814C66.7167 95.468 68.314 96 69.9113 96C71.5085 96 72.9283 95.468 74.3481 94.5814C80.7372 90.1483 85.7065 84.1193 89.256 76.6718C92.9829 68.8696 95.2901 60.89 96 53.2651C96 52.5558 95.8225 52.0239 95.2901 51.6692Z" fill="#3F78FF"/>
</svg>
