<svg width="300" height="180" viewBox="0 0 300 180" fill="none" xmlns="http://www.w3.org/2000/svg">
<g clip-path="url(#clip0_4412_31570)">
<rect width="300" height="180" fill="#F8FAFF"/>
<path d="M0 38.5H149.5H300V179.999H0V38.5Z" fill="url(#paint0_radial_4412_31570)"/>
<path d="M102.615 37.1784C97.9218 45.9096 93.4995 64.8664 91.875 73.2533L97.8888 85.2497C103.198 89.06 114.348 93.8168 116.471 82.3607C118.594 70.9046 117.283 55.1512 116.363 48.7066L102.615 37.1784Z" fill="#CEDBFE"/>
<path d="M117.16 46.1311L106.515 32.1352C103.666 35.9669 100.548 42.0419 97.719 48.3137C101.914 58.3458 108.2 64.9317 113.642 65.5353C114.722 65.655 116.077 65.5169 117.599 65.0161L117.16 46.1311Z" fill="url(#paint1_linear_4412_31570)"/>
<path d="M64.0759 180.001C61.7318 169.44 40.3042 124.939 45.9299 108.858C52.9619 88.7567 47.0903 87.3133 60.447 75.9988C67.5471 69.9843 86.08 66.6037 94.0194 65.0742L103.688 74.875L108.75 77.625L114.688 75.9988L117.611 70.5365C123.357 72.7214 131.713 77.6258 138.79 87.7638C142.518 93.1041 149.75 123 149.75 139L152.92 206.329V242.828C149.236 254.578 152.92 206.329 152.92 206.329L64.0759 180.001Z" fill="url(#paint2_linear_4412_31570)"/>
<path d="M107.013 188.375C108.605 164.682 103.525 99.7962 101.286 78.0002L117.75 75.25C120.934 93.097 116.885 159.943 114.231 183.79L107.013 188.375Z" fill="#4C6EE7"/>
<path d="M101.286 78.0002L117.75 75.25C118.339 78.5535 118.681 83.5358 118.829 89.6134L111.375 81.125L102.381 89.6134C102.381 89.6134 101.603 81.0869 101.286 78.0002Z" fill="#4263D6"/>
<path d="M72.017 110.449L112.621 155.137L64.5312 161.715L72.017 110.449Z" fill="url(#paint3_linear_4412_31570)"/>
<path d="M147.92 111.201C144.29 113.378 136.667 124.815 120 136.903L124.291 149.718C129.556 147.321 148.673 139.116 156 135.75C161.918 133.427 166.625 129.688 166.625 127.055C168.188 126.062 169.292 122.502 167.625 122.188C165.57 120.339 160.591 118.642 158.965 119.412C157.016 115.866 149.853 110.041 147.92 111.201Z" fill="#BCC7F9"/>
<path d="M129.195 127.633L121.312 134.062L121.445 135.633L126.875 150.75L137.125 146.125L129.195 127.633Z" fill="#4C6EE7"/>
<path d="M86 67L82.5 80H90.5L86 85.5C91.8333 91.3333 102 116.5 103.75 136.5" stroke="#1338B8"/>
<path d="M126.603 76.0102L130.439 86.7107L124.555 87.3857L128.398 91.6581C124.555 101.574 120.866 121.918 119.796 135.324" stroke="#1338B8"/>
<path d="M111.812 76.9766C112.895 98.8972 114.101 149.658 111.498 180.293L110.502 180.209C113.099 149.644 111.897 98.9381 110.813 77.0254L111.812 76.9766Z" fill="#3559D6"/>
<path d="M122.344 128.447L67.7072 157.77L77.6882 109.68L56.977 79.3867C56.977 79.3867 51.1267 84.1708 47.6534 92.082C45.852 96.1851 44.4845 100.516 42.8081 105.3C41.1318 110.084 39.7843 115.025 38.4913 121.762C37.1983 128.499 36.0006 136.883 35.4585 144.645C34.9163 152.408 35.066 159.295 35.5175 165.088C35.9797 171.021 37.7211 176.135 38.6717 180.001H100.372L131.644 154.08L122.344 128.447Z" fill="#1946E3"/>
<path d="M132.114 153.547C132.208 153.806 132.074 154.092 131.814 154.187C131.555 154.281 131.268 154.147 131.174 153.888L122.07 128.801L67.9453 157.847C67.7028 157.978 67.3993 157.888 67.2676 157.646C67.1359 157.403 67.2262 157.1 67.4687 156.968L122.615 127.367L132.114 153.547Z" fill="#4C6EE7"/>
<path d="M153.861 95.834L140.019 129.099C139.688 129.847 140.347 130.655 141.147 130.48L162.522 125.819C162.835 125.751 163.097 125.536 163.225 125.242L174.906 96.6382C175.195 95.9776 174.711 95.2383 173.99 95.2383H154.776C154.38 95.2383 154.021 95.4719 153.861 95.834Z" fill="#0B216F"/>
<path d="M197.997 60.375L166.251 96.5436L163.672 102.738L197.997 139.267H279.349V60.375H197.997Z" fill="#A8E8BD"/>
<path d="M164.938 119.747C164.938 117.248 160.875 116.374 139.86 125.848C118.846 135.321 148.199 134.412 148.199 134.412C156.017 132.278 165.413 126.51 167.438 122.748C169 121.624 168.188 118.249 164.938 119.747Z" fill="#BCC7F9"/>
<path d="M172.004 97.3906H165.97L163.644 102.906H169.6L172.004 97.3906Z" fill="white"/>
<path d="M119.839 62.4524C114.287 62.6507 106.752 56.1073 101.596 45.5991C101.057 44.4997 100.58 43.4855 100.158 42.5516C93.9689 44.7721 93.7389 32.5341 93.9684 31.9593L118.451 14.2695L136.495 20.6146C137.883 53.3314 125.391 62.2541 119.839 62.4524Z" fill="#CEDBFE"/>
<path d="M115.314 43.918L117.072 44.8645C120.47 46.6946 124.106 48.1457 127.892 49.1827L128.761 49.4207L124.195 55.9084C122.937 57.6948 120.316 58.3227 118.105 57.3668C116.409 56.6336 115.321 55.1166 115.32 53.4822L115.314 43.918Z" fill="white"/>
<path d="M114.892 30.6223C118.505 22.1656 127.388 22.9775 130.878 25.4405C139.846 27.7822 140.277 17.7216 137.623 14.006C134.969 10.2904 132.409 5.65608 124.708 3.32252C117.008 0.988967 110.029 1.59867 102.342 5.32148C95.346 8.71005 91.7107 16.006 90.7222 21.6922C88.8257 32.6014 94.0989 45.831 97.0073 52.5368L100.142 42.9073C100.142 42.9073 97.395 40.3931 97.395 36.6657C97.395 32.9384 100.421 30.7541 103.986 32.5221C107.271 34.1509 106.347 37.6766 107.271 39.6042C108.195 41.5318 111.28 39.0791 114.892 30.6223Z" fill="black"/>
<path d="M133.872 35.0484L132.253 47.0688L131.764 46.8502C130.759 46.3994 129.063 45.9619 127.04 46.2171L126.94 45.4232C128.833 45.1844 130.468 45.5044 131.601 45.9207L133.079 34.9416L133.872 35.0484Z" fill="#7B8ED4"/>
<path d="M165.31 120.027C164.788 120.458 163.92 120.95 162.886 121.458C161.844 121.97 160.603 122.511 159.314 123.039C156.735 124.093 153.945 125.097 152.124 125.693L151.874 124.933C153.679 124.343 156.451 123.345 159.011 122.298C160.291 121.774 161.514 121.24 162.534 120.739C163.563 120.234 164.356 119.776 164.8 119.41L165.31 120.027Z" fill="#7B8ED4"/>
<path d="M168.03 122.856C164.826 124.788 158.579 128.066 153.429 129.105L153.27 128.32C158.279 127.31 164.428 124.094 167.617 122.171L168.03 122.856Z" fill="#7B8ED4"/>
<path d="M166.315 127.298L166.51 127.647C163.212 129.493 158.788 131.621 154.947 132.481L154.771 131.699C158.497 130.866 162.839 128.785 166.119 126.949L166.315 127.298Z" fill="#7B8ED4"/>
<path d="M91.875 65.375L95.375 58.0312C97.175 64.2312 104.375 73.625 110.75 76.4375L102.5 85C95.0625 80.375 91.875 65.375 91.875 65.375Z" fill="#4C6EE7"/>
<path d="M118.625 84C121.751 77.875 117.625 64.8125 117.625 64.8125C116.438 70.875 112.875 75.125 111.813 76.3125L118.625 84Z" fill="#4C6EE7"/>
<path d="M111.969 76.1875L118.519 83.6602L117.786 84.3398L111.294 77.3398C111.141 77.4893 110.944 77.6822 110.712 77.9092C110.127 78.4822 109.322 79.2757 108.439 80.1582C106.67 81.9273 104.604 84.0411 103.378 85.4531L102.622 84.7969C103.875 83.3548 105.965 81.2185 107.732 79.4512C108.618 78.5656 109.426 77.7691 110.013 77.1943C110.306 76.9071 110.547 76.5665 110.712 76.4062C110.43 76.6806 110.46 76.6514 110.712 76.4062L111.969 76.1875Z" fill="#3559D6"/>
<path d="M236.237 80.7539C236.237 79.9988 236.849 79.3867 237.605 79.3867H237.763C238.518 79.3867 239.13 79.9988 239.13 80.7539V85.1318C239.13 85.8868 238.518 86.499 237.763 86.499H237.605C236.849 86.499 236.237 85.8868 236.237 85.1318V80.7539Z" fill="black"/>
<path d="M258.639 104.637C259.394 104.637 260.006 105.249 260.006 106.004L260.006 106.163C260.006 106.918 259.394 107.53 258.639 107.53L250.261 107.53C249.506 107.53 248.894 106.918 248.894 106.163L248.894 106.004C248.894 105.249 249.506 104.637 250.261 104.637L258.639 104.637Z" fill="black"/>
<path d="M240.456 80.7539C240.456 79.9988 241.068 79.3867 241.823 79.3867H241.982C242.737 79.3867 243.349 79.9988 243.349 80.7539V80.9126C243.349 81.6677 242.737 82.2798 241.982 82.2798H241.823C241.068 82.2798 240.456 81.6677 240.456 80.9126V80.7539Z" fill="black"/>
<path d="M240.456 84.9727C240.456 84.2176 241.069 83.6055 241.824 83.6055H243.35V92.1078V95.0009H240.456H236.237V93.475C236.237 92.7199 236.849 92.1078 237.605 92.1078H239.089C239.844 92.1078 240.456 91.4956 240.456 90.7406V84.9727Z" fill="black"/>
<path d="M243.35 83.6055V95.0011H236.237V93.475C236.237 92.767 236.775 92.185 237.465 92.1151L237.605 92.1078H239.089L239.229 92.1004C239.872 92.0352 240.384 91.5237 240.449 90.8801L240.456 90.7406V84.9727C240.456 84.2176 241.069 83.6055 241.824 83.6055H243.35ZM240.798 90.7406C240.798 91.6844 240.033 92.4496 239.089 92.4496H237.605C237.038 92.4496 236.579 92.9087 236.579 93.475V94.6593H243.008V83.9473H241.824C241.257 83.9473 240.798 84.4064 240.798 84.9727V90.7406Z" fill="#A8E8BD"/>
<path d="M240.456 106.07C240.456 105.315 241.068 104.703 241.823 104.703H241.982C242.737 104.703 243.349 105.315 243.349 106.07V106.229C243.349 106.984 242.737 107.596 241.982 107.596H241.823C241.068 107.596 240.456 106.984 240.456 106.229V106.07Z" fill="black"/>
<path d="M244.675 106.07C244.675 105.315 245.287 104.703 246.042 104.703H246.201C246.956 104.703 247.568 105.315 247.568 106.07V106.229C247.568 106.984 246.956 107.596 246.201 107.596H246.042C245.287 107.596 244.675 106.984 244.675 106.229V106.07Z" fill="black"/>
<path d="M236.237 110.289C236.237 109.534 236.849 108.922 237.605 108.922H237.763C238.518 108.922 239.13 109.534 239.13 110.289V110.448C239.13 111.203 238.518 111.815 237.763 111.815H237.605C236.849 111.815 236.237 111.203 236.237 110.448V110.289Z" fill="black"/>
<path d="M240.456 110.289C240.456 109.534 241.068 108.922 241.823 108.922H241.982C242.737 108.922 243.349 109.534 243.349 110.289V110.448C243.349 111.203 242.737 111.815 241.982 111.815H241.823C241.068 111.815 240.456 111.203 240.456 110.448V110.289Z" fill="black"/>
<path d="M248.895 110.289C248.895 109.534 249.507 108.922 250.262 108.922H250.42C251.176 108.922 251.788 109.534 251.788 110.289V110.448C251.788 111.203 251.176 111.815 250.42 111.815H250.262C249.507 111.815 248.895 111.203 248.895 110.448V110.289Z" fill="black"/>
<path d="M257.332 110.289C257.332 109.534 257.944 108.922 258.699 108.922H258.858C259.613 108.922 260.225 109.534 260.225 110.289V110.448C260.225 111.203 259.613 111.815 258.858 111.815H258.699C257.944 111.815 257.332 111.203 257.332 110.448V110.289Z" fill="black"/>
<path d="M236.236 114.508C236.236 113.753 236.848 113.141 237.604 113.141H237.762C238.517 113.141 239.129 113.753 239.129 114.508V118.886C239.129 119.641 238.517 120.253 237.762 120.253H237.604C236.848 120.253 236.236 119.641 236.236 118.886V114.508Z" fill="black"/>
<path d="M244.675 108.922H246.201C246.956 108.922 247.568 109.534 247.568 110.289V111.774C247.568 112.529 248.18 113.141 248.935 113.141H258.858C259.613 113.141 260.225 113.753 260.225 114.508V114.667C260.225 115.422 259.613 116.034 258.858 116.034H248.935C248.18 116.034 247.568 116.646 247.568 117.401V118.886C247.568 119.641 246.956 120.253 246.201 120.253H244.675V116.034V113.141V108.922Z" fill="black"/>
<path d="M240.456 118.727C240.456 117.971 241.068 117.359 241.823 117.359H241.982C242.737 117.359 243.349 117.971 243.349 118.727V118.885C243.349 119.64 242.737 120.252 241.982 120.252H241.823C241.068 120.252 240.456 119.64 240.456 118.885V118.727Z" fill="black"/>
<path d="M248.895 118.727C248.895 117.971 249.507 117.359 250.262 117.359H250.42C251.176 117.359 251.788 117.971 251.788 118.727V118.885C251.788 119.64 251.176 120.252 250.42 120.252H250.262C249.507 120.252 248.895 119.64 248.895 118.885V118.727Z" fill="black"/>
<path d="M257.332 118.727C257.332 117.971 257.944 117.359 258.699 117.359H258.858C259.613 117.359 260.225 117.971 260.225 118.727V118.885C260.225 119.64 259.613 120.252 258.858 120.252H258.699C257.944 120.252 257.332 119.64 257.332 118.885V118.727Z" fill="black"/>
<path d="M223.972 87.1956C223.972 85.448 225.388 84.0312 227.136 84.0312V84.0312C228.884 84.0312 230.3 85.448 230.3 87.1956V87.1956C230.3 88.9432 228.884 90.3599 227.136 90.3599V90.3599C225.388 90.3599 223.972 88.9432 223.972 87.1956V87.1956Z" fill="black"/>
<path d="M249.286 87.1956C249.286 85.448 250.703 84.0312 252.45 84.0312V84.0312C254.198 84.0312 255.615 85.448 255.615 87.1956V87.1956C255.615 88.9432 254.198 90.3599 252.45 90.3599V90.3599C250.703 90.3599 249.286 88.9432 249.286 87.1956V87.1956Z" fill="black"/>
<path d="M223.972 112.446C223.972 110.698 225.388 109.281 227.136 109.281V109.281C228.884 109.281 230.3 110.698 230.3 112.446V112.446C230.3 114.193 228.884 115.61 227.136 115.61V115.61C225.388 115.61 223.972 114.193 223.972 112.446V112.446Z" fill="black"/>
<path fill-rule="evenodd" clip-rule="evenodd" d="M234.911 80.7539C234.911 79.9988 234.299 79.3867 233.544 79.3867H220.728C219.972 79.3867 219.36 79.9988 219.36 80.7539V93.634C219.36 94.3891 219.972 95.0012 220.728 95.0012H233.544C234.299 95.0012 234.911 94.3891 234.911 93.634V80.7539ZM232.029 82.2798H222.241V92.1081H232.029V82.2798Z" fill="black"/>
<path fill-rule="evenodd" clip-rule="evenodd" d="M260.225 80.7539C260.225 79.9988 259.613 79.3867 258.858 79.3867H246.042C245.287 79.3867 244.675 79.9988 244.675 80.7539V93.634C244.675 94.3891 245.287 95.0012 246.042 95.0012H258.858C259.613 95.0012 260.225 94.3891 260.225 93.634V80.7539ZM257.344 82.2798H247.556V92.1081H257.344V82.2798Z" fill="black"/>
<path fill-rule="evenodd" clip-rule="evenodd" d="M234.911 106.004C234.911 105.249 234.299 104.637 233.544 104.637H220.728C219.972 104.637 219.36 105.249 219.36 106.004V118.884C219.36 119.639 219.972 120.251 220.728 120.251H233.544C234.299 120.251 234.911 119.639 234.911 118.884V106.004ZM232.029 107.53H222.241V117.358H232.029V107.53Z" fill="black"/>
<path d="M211.247 125.895V110.309H212.247V125.895L212.255 126.048C212.332 126.804 212.971 127.395 213.747 127.395H229.332V128.395H213.747C212.453 128.395 211.388 127.41 211.26 126.149L211.247 125.895ZM267.34 125.895V110.309H268.34V125.895C268.34 127.275 267.22 128.394 265.84 128.395H250.254V127.395H265.84C266.668 127.394 267.34 126.723 267.34 125.895ZM211.247 73.75C211.247 72.3693 212.366 71.25 213.747 71.25H229.332V72.25H213.747C212.919 72.25 212.247 72.9216 212.247 73.75V89.335H211.247V73.75ZM267.34 73.75C267.34 72.9735 266.749 72.3348 265.993 72.2578L265.84 72.25H250.254V71.25H265.84L266.095 71.2627C267.356 71.3905 268.34 72.4554 268.34 73.75V89.335H267.34V73.75Z" fill="black"/>
<path d="M268.059 99.3242V100.324H211.528V99.3242H268.059Z" fill="black"/>
</g>
<defs>
<radialGradient id="paint0_radial_4412_31570" cx="0" cy="0" r="1" gradientUnits="userSpaceOnUse" gradientTransform="translate(150 179.999) rotate(-90) scale(134.999 286.219)">
<stop offset="0.197115" stop-color="#DFEBFF"/>
<stop offset="1" stop-color="#F8FAFF"/>
</radialGradient>
<linearGradient id="paint1_linear_4412_31570" x1="97.4616" y1="42.1075" x2="116.339" y2="65.0169" gradientUnits="userSpaceOnUse">
<stop stop-color="#C8D2FF"/>
<stop offset="1" stop-color="#B3BEF4"/>
</linearGradient>
<linearGradient id="paint2_linear_4412_31570" x1="91.186" y1="97.5725" x2="153.338" y2="180.001" gradientUnits="userSpaceOnUse">
<stop stop-color="#1946E3"/>
<stop offset="1" stop-color="#0E277D"/>
</linearGradient>
<linearGradient id="paint3_linear_4412_31570" x1="91.9789" y1="131.772" x2="67.0265" y2="158.313" gradientUnits="userSpaceOnUse">
<stop stop-opacity="0"/>
<stop offset="1"/>
</linearGradient>
<clipPath id="clip0_4412_31570">
<rect width="300" height="180" fill="white"/>
</clipPath>
</defs>
</svg>
