<svg width="300" height="180" viewBox="0 0 300 180" fill="none" xmlns="http://www.w3.org/2000/svg">
<g clip-path="url(#clip0_4418_103742)">
<rect width="300" height="180" fill="#F8FAFF"/>
<path d="M0 38.5H149.5H300V179.999H0V38.5Z" fill="url(#paint0_radial_4418_103742)"/>
<path d="M195.735 245.054L287.652 31.2537C288.126 30.1518 288.37 28.9649 288.37 27.7655C288.37 23.8635 285.207 20.7003 281.305 20.7003L179.863 20.7012C175.853 20.7012 172.231 23.0965 170.661 26.7862L122.327 140.392L81.1266 237.229C78.3196 243.827 83.1629 251.147 90.3325 251.144L186.552 251.104C190.547 251.102 194.157 248.724 195.735 245.054Z" fill="#0B216F"/>
<path d="M271.75 26.5L182.773 21.925C170.748 21.93 159.888 28.1149 155.18 39.1799L115.819 131.692L68.6955 242.451L186.627 242.401L276.263 35.7889L271.75 26.5Z" fill="black"/>
<path d="M68.6956 242.451L71.6271 242.402L161.264 35.7895C157.32 37.9875 154.221 41.4353 152.453 45.5894L115.819 131.692L68.6956 242.451Z" fill="#163EC8"/>
<path d="M280.75 20.6443L171.072 20.6443C166.262 20.6463 161.918 23.5203 160.035 27.9463L151.833 47.388L271.192 47.388L280.75 25.625L280.75 20.6443Z" fill="url(#paint1_linear_4418_103742)"/>
<path d="M226.755 62.7973L157.76 62.8255C156.958 62.8259 156.234 63.3049 155.92 64.0425L143.376 93.5265C142.815 94.8457 143.783 96.3095 145.216 96.3095L214.068 96.3095C214.867 96.3095 215.59 95.8337 215.906 95.0995L228.594 65.5873C229.161 64.2669 228.193 62.7967 226.755 62.7973Z" fill="#3C3C3C"/>
<path d="M219.525 31.6215L213.394 31.624C212.592 31.6244 211.868 32.1033 211.554 32.841L211.219 33.6301C210.657 34.9493 211.625 36.4131 213.059 36.4131L219.185 36.4131C219.984 36.4131 220.707 35.9373 221.022 35.2031L221.363 34.4115C221.93 33.0911 220.962 31.6209 219.525 31.6215Z" fill="#CEDBFE"/>
<path d="M171.211 101.015L141.728 101.025C140.926 101.025 140.202 101.504 139.888 102.242L136.377 110.495C135.815 111.814 136.783 113.278 138.217 113.278L167.659 113.278C168.458 113.278 169.181 112.802 169.496 112.068L173.049 103.805C173.616 102.485 172.648 101.015 171.211 101.015Z" fill="#5B5B5B"/>
<path d="M210.131 101.015L180.649 101.025C179.847 101.025 179.123 101.504 178.809 102.242L175.298 110.495C174.736 111.814 175.704 113.278 177.138 113.278L206.58 113.278C207.379 113.278 208.102 112.802 208.417 112.068L211.969 103.805C212.537 102.485 211.569 101.015 210.131 101.015Z" fill="#5B5B5B"/>
<path d="M190.731 68.9051L160.915 68.906C160.698 68.9061 160.502 69.0358 160.417 69.2356C160.265 69.5929 160.527 69.9893 160.915 69.9893L190.731 69.9893C190.947 69.9893 191.143 69.8604 191.229 69.6613C191.383 69.3035 191.12 68.9051 190.731 68.9051Z" fill="white"/>
<path d="M182.457 88.3934L152.642 88.3943C152.425 88.3943 152.228 88.5241 152.143 88.7239C151.991 89.0812 152.254 89.4776 152.642 89.4776L182.457 89.4776C182.674 89.4776 182.87 89.3486 182.955 89.1496C183.109 88.7918 182.847 88.3934 182.457 88.3934Z" fill="white"/>
<path d="M161.126 106.608L148.311 106.609C148.094 106.609 147.897 106.739 147.812 106.939C147.66 107.296 147.923 107.692 148.311 107.692L161.126 107.692C161.343 107.692 161.539 107.563 161.624 107.364C161.778 107.007 161.516 106.608 161.126 106.608Z" fill="white"/>
<path d="M200.047 106.608L187.232 106.609C187.014 106.609 186.818 106.739 186.733 106.939C186.581 107.296 186.843 107.692 187.232 107.692L200.047 107.692C200.264 107.692 200.46 107.563 200.545 107.364C200.699 107.007 200.437 106.608 200.047 106.608Z" fill="white"/>
<path d="M177.331 152.765L119.382 152.778C118.58 152.778 117.856 153.257 117.542 153.995L112.457 165.945C111.896 167.264 112.864 168.728 114.298 168.728L172.188 168.728C172.987 168.728 173.71 168.252 174.025 167.518L179.169 155.555C179.736 154.235 178.768 152.764 177.331 152.765Z" fill="#505050"/>
<path d="M223.162 126.718L174.146 126.731C173.344 126.731 172.62 127.21 172.306 127.948L167.222 139.897C166.661 141.216 167.629 142.68 169.062 142.68L218.02 142.68C218.819 142.68 219.541 142.204 219.857 141.47L225 129.508C225.567 128.188 224.599 126.718 223.162 126.718Z" fill="white"/>
<path d="M190.356 82.2762L155.54 82.2771C155.323 82.2771 155.127 82.4069 155.042 82.6067C154.89 82.964 155.152 83.3604 155.54 83.3604L190.356 83.3604C190.572 83.3604 190.768 83.2315 190.854 83.0324C191.008 82.6746 190.745 82.2762 190.356 82.2762Z" fill="white"/>
<path d="M212.883 133.94L178.068 133.941C177.85 133.941 177.654 134.071 177.569 134.271C177.417 134.628 177.679 135.024 178.068 135.024L212.883 135.024C213.1 135.024 213.296 134.896 213.381 134.696C213.535 134.339 213.273 133.94 212.883 133.94Z" fill="black"/>
<path d="M168.578 160.21L121.762 160.211C121.545 160.211 121.349 160.34 121.264 160.54C121.112 160.898 121.374 161.294 121.762 161.294L168.578 161.294C168.794 161.294 168.99 161.165 169.076 160.966C169.229 160.608 168.967 160.21 168.578 160.21Z" fill="white"/>
<path d="M198.728 75.7762L158.22 75.7771C158.003 75.7771 157.807 75.9069 157.722 76.1067C157.57 76.464 157.832 76.8604 158.22 76.8604L198.728 76.8604C198.945 76.8604 199.141 76.7315 199.226 76.5324C199.38 76.1746 199.118 75.7762 198.728 75.7762Z" fill="white"/>
<path d="M271.758 47L210.96 189.196L210.04 188.804L270.242 48H156.33L93.46 194.697L92.54 194.303L155.67 47H271.758Z" fill="#32499B"/>
<path d="M129.11 122.195V142.371L114.773 122.195H129.11Z" fill="#A8E8BD"/>
<path d="M129.11 68.8945H22V128.406H129.11V68.8945Z" fill="#A8E8BD"/>
<path fill-rule="evenodd" clip-rule="evenodd" d="M61.0936 81.1328C59.1578 81.1328 57.5898 82.7007 57.5898 84.6366V109.163H61.0936V84.6366H85.6199V81.1328H61.0936ZM68.0985 88.1378C66.1627 88.1378 64.5947 89.7058 64.5947 91.6416V112.664C64.5947 114.6 66.1627 116.168 68.0985 116.168H89.121C91.0568 116.168 92.6248 114.6 92.6248 112.664V91.6416C92.6248 89.7058 91.0568 88.1378 89.121 88.1378H68.0985ZM89.1249 91.6378H68.1024V112.66H89.1249V91.6378Z" fill="black"/>
<path d="M92.25 91.6416C92.25 89.9129 90.8498 88.5127 89.1211 88.5127H68.0986C66.3699 88.5127 64.9697 89.9129 64.9697 91.6416V112.664C64.9697 114.393 66.3699 115.793 68.0986 115.793H89.1211C90.8498 115.793 92.25 114.393 92.25 112.664V91.6416ZM89.5 91.2627V113.035H67.7275V91.2627H89.5ZM68.4775 112.285H88.75V92.0127H68.4775V112.285ZM85.9951 80.7578V85.0117H61.4688V109.538H57.2148V84.6367C57.2148 82.4938 58.9508 80.7578 61.0938 80.7578H85.9951ZM93 112.664C93 114.807 91.264 116.543 89.1211 116.543H68.0986C65.9557 116.543 64.2197 114.807 64.2197 112.664V91.6416C64.2197 89.4987 65.9557 87.7627 68.0986 87.7627H89.1211C91.264 87.7627 93 89.4987 93 91.6416V112.664ZM57.9648 108.788H60.7188V84.2617H85.2451V81.5078H61.0938C59.365 81.5078 57.9648 82.908 57.9648 84.6367V108.788Z" fill="#A8E8BD"/>
<g clip-path="url(#clip1_4418_103742)">
<path fill-rule="evenodd" clip-rule="evenodd" d="M71.9695 101.725C75.7873 99.8868 78.3332 98.675 79.6069 98.0893C83.2437 96.4175 83.9996 96.1268 84.4921 96.1173C84.6005 96.1153 84.8425 96.1448 84.9997 96.2855C85.1322 96.4042 85.1686 96.5648 85.1862 96.6775C85.2037 96.7901 85.2255 97.0469 85.2082 97.2472C85.0112 99.5359 84.1584 105.09 83.7244 107.654C83.5408 108.738 83.1793 109.102 82.8294 109.138C82.0687 109.215 81.4915 108.582 80.7547 108.049C79.6019 107.213 78.9508 106.694 77.8321 105.879C76.539 104.937 77.3774 104.419 78.1142 103.574C78.307 103.352 81.658 99.9835 81.7227 99.6778C81.7309 99.6396 81.7385 99.4971 81.6617 99.4219C81.585 99.3466 81.4721 99.3724 81.3906 99.3929C81.2751 99.4219 79.4338 100.767 75.8666 103.428C75.3441 103.825 74.8705 104.018 74.4465 104.008C73.979 103.997 73.0795 103.716 72.4108 103.476C71.5907 103.181 70.9388 103.026 70.9956 102.525C71.0247 102.264 71.3495 101.998 71.9695 101.725Z" fill="black"/>
</g>
</g>
<defs>
<radialGradient id="paint0_radial_4418_103742" cx="0" cy="0" r="1" gradientUnits="userSpaceOnUse" gradientTransform="translate(150 179.999) rotate(-90) scale(134.999 286.219)">
<stop offset="0.197115" stop-color="#DFEBFF"/>
<stop offset="1" stop-color="#F8FAFF"/>
</radialGradient>
<linearGradient id="paint1_linear_4418_103742" x1="160" y1="34.0182" x2="271.5" y2="34.0182" gradientUnits="userSpaceOnUse">
<stop stop-color="#163EC8"/>
<stop offset="1" stop-color="#0B216F"/>
</linearGradient>
<clipPath id="clip0_4418_103742">
<rect width="300" height="180" fill="white"/>
</clipPath>
<clipPath id="clip1_4418_103742">
<rect width="19" height="21" fill="white" transform="translate(68.6035 92.1328)"/>
</clipPath>
</defs>
</svg>
