<svg width="301" height="180" viewBox="0 0 301 180" fill="none" xmlns="http://www.w3.org/2000/svg">
<g clip-path="url(#clip0_4418_51805)">
<rect width="300" height="180" transform="translate(0.635742)" fill="#F8FAFF"/>
<path d="M0.724609 38.5H150.225H300.725V179.999H0.724847L0.724609 38.5Z" fill="url(#paint0_radial_4418_51805)"/>
<path d="M92.1373 116.002L209.134 116.002L209.135 130.709L150.636 160.209L92.1377 130.709L92.1373 116.002Z" fill="#0B216F"/>
<path d="M150.636 116.002L209.133 116.003L209.134 130.71L150.635 160.21L150.636 134.709L150.636 116.002Z" fill="#1537AA"/>
<path d="M150.636 91.5022L209.134 116.002L150.636 145.502L92.1373 116.002L150.636 91.5022Z" fill="#1A47E3"/>
<path d="M129.817 100.32H171.25L191.25 108.5H109.817L129.817 100.32Z" fill="#CEDBFE" fill-opacity="0.1"/>
<path d="M100.25 120H201.5L170 135.562H130.5L100.25 120Z" fill="#CEDBFE" fill-opacity="0.1"/>
<path d="M166.419 106.536L166.271 106.477C166.101 106.403 165.909 106.351 165.702 106.322C165.494 106.292 165.287 106.27 165.072 106.27C164.858 106.27 164.651 106.285 164.458 106.322C164.266 106.359 164.081 106.41 163.933 106.477L160.336 108.127C160.181 108.201 160.062 108.283 159.988 108.372C159.914 108.46 159.877 108.557 159.885 108.653C159.892 108.749 159.936 108.845 160.033 108.934C160.129 109.023 160.255 109.112 160.425 109.186L160.573 109.245C160.743 109.319 160.943 109.371 161.15 109.408C161.357 109.445 161.579 109.459 161.794 109.459C162.009 109.459 162.223 109.437 162.423 109.4C162.623 109.363 162.808 109.304 162.963 109.237L166.553 107.557C166.708 107.483 166.819 107.402 166.886 107.313C166.952 107.224 166.982 107.136 166.967 107.039C166.952 106.943 166.9 106.854 166.804 106.766C166.708 106.677 166.575 106.595 166.405 106.529" fill="#1338B8"/>
<path d="M170.29 108.128L170.142 108.069C169.965 107.995 169.772 107.943 169.565 107.906C169.358 107.869 169.143 107.854 168.929 107.854C168.714 107.854 168.507 107.869 168.307 107.906C168.107 107.943 167.929 107.995 167.781 108.069L167.648 108.128C167.493 108.202 167.389 108.283 167.315 108.372C167.241 108.461 167.219 108.557 167.234 108.653C167.249 108.749 167.3 108.846 167.397 108.934C167.493 109.023 167.626 109.112 167.804 109.186L167.952 109.245C168.129 109.319 168.322 109.371 168.536 109.408C168.751 109.445 168.966 109.46 169.18 109.46C169.395 109.46 169.609 109.445 169.809 109.408C170.009 109.371 170.187 109.319 170.342 109.245L170.468 109.186C170.623 109.112 170.727 109.031 170.793 108.934C170.86 108.838 170.882 108.749 170.867 108.653C170.853 108.557 170.793 108.461 170.697 108.372C170.601 108.283 170.46 108.202 170.29 108.128Z" fill="#1338B8"/>
<path d="M168.144 110.296L166.716 109.696C166.538 109.622 166.338 109.563 166.131 109.533C165.924 109.504 165.702 109.482 165.487 109.482C165.272 109.482 165.058 109.504 164.858 109.541C164.658 109.578 164.473 109.637 164.318 109.711L159.433 112.013C159.27 112.087 159.078 112.146 158.871 112.183C158.664 112.22 158.442 112.242 158.227 112.242C158.012 112.242 157.783 112.22 157.576 112.183C157.368 112.146 157.169 112.087 156.998 112.013L155.637 111.413C155.467 111.339 155.267 111.28 155.059 111.243C154.852 111.206 154.63 111.184 154.408 111.184C154.186 111.184 153.972 111.206 153.764 111.243C153.557 111.28 153.365 111.339 153.202 111.413L151.855 112.027L158.405 114.988L168.144 110.31" fill="#1338B8"/>
<path d="M148.325 111.434L148.184 111.367C148.021 111.293 147.829 111.234 147.622 111.197C147.414 111.16 147.2 111.138 146.978 111.138C146.756 111.138 146.541 111.16 146.326 111.197C146.112 111.234 145.919 111.293 145.749 111.367L145.601 111.434C145.431 111.508 145.305 111.597 145.216 111.693C145.127 111.789 145.083 111.885 145.083 111.989C145.083 112.093 145.12 112.189 145.201 112.285C145.283 112.381 145.409 112.47 145.572 112.544L145.712 112.611C145.882 112.692 146.075 112.744 146.282 112.788C146.489 112.833 146.711 112.848 146.933 112.848C147.155 112.848 147.377 112.825 147.585 112.788C147.792 112.751 147.992 112.692 148.162 112.611L148.31 112.544C148.48 112.47 148.606 112.374 148.695 112.285C148.783 112.196 148.82 112.093 148.82 111.989C148.82 111.885 148.783 111.789 148.695 111.693C148.606 111.597 148.487 111.508 148.317 111.434" fill="#1338B8"/>
<path d="M152.107 113.159L151.959 113.092C151.788 113.011 151.589 112.959 151.381 112.914C151.174 112.87 150.952 112.855 150.73 112.855C150.508 112.855 150.286 112.877 150.079 112.914C149.872 112.951 149.672 113.011 149.502 113.092L141.516 116.748C141.339 116.829 141.198 116.926 141.102 117.029C141.006 117.133 140.954 117.244 140.946 117.347C140.939 117.451 140.976 117.569 141.057 117.673C141.139 117.777 141.265 117.873 141.435 117.962L141.583 118.036C141.753 118.117 141.953 118.184 142.175 118.228C142.397 118.272 142.619 118.295 142.856 118.287C143.093 118.28 143.322 118.265 143.544 118.221C143.766 118.176 143.973 118.117 144.151 118.028L152.136 114.298C152.306 114.217 152.432 114.128 152.521 114.032C152.61 113.936 152.647 113.832 152.647 113.728C152.647 113.625 152.602 113.521 152.514 113.425C152.425 113.329 152.299 113.24 152.121 113.159" fill="#1338B8"/>
<path d="M159.996 116.748L159.848 116.681C159.663 116.6 159.463 116.533 159.241 116.496C159.019 116.459 158.79 116.437 158.56 116.437C158.331 116.437 158.101 116.459 157.887 116.496C157.672 116.533 157.472 116.6 157.302 116.681L157.154 116.748C156.984 116.829 156.858 116.925 156.777 117.029C156.695 117.133 156.658 117.244 156.666 117.347C156.673 117.451 156.725 117.569 156.814 117.673C156.902 117.777 157.043 117.873 157.228 117.962L157.376 118.028C157.561 118.11 157.768 118.176 157.99 118.221C158.212 118.265 158.449 118.287 158.679 118.287C158.908 118.287 159.145 118.265 159.359 118.228C159.574 118.191 159.774 118.124 159.944 118.036L160.085 117.962C160.255 117.88 160.381 117.777 160.462 117.673C160.544 117.569 160.573 117.458 160.566 117.347C160.558 117.236 160.499 117.125 160.403 117.029C160.307 116.933 160.166 116.829 159.989 116.748" fill="#1338B8"/>
<path d="M164.103 118.62L163.947 118.546C163.762 118.465 163.555 118.398 163.333 118.354C163.111 118.309 162.874 118.287 162.645 118.287C162.416 118.287 162.186 118.309 161.971 118.354C161.757 118.398 161.557 118.457 161.387 118.546L161.246 118.62C161.076 118.702 160.95 118.805 160.876 118.909C160.802 119.012 160.758 119.123 160.773 119.242C160.787 119.36 160.832 119.464 160.935 119.575C161.039 119.686 161.172 119.782 161.357 119.864L161.513 119.938C161.698 120.026 161.912 120.093 162.142 120.13C162.371 120.167 162.608 120.197 162.837 120.197C163.067 120.197 163.304 120.174 163.518 120.13C163.733 120.086 163.933 120.019 164.103 119.938L164.243 119.864C164.414 119.775 164.54 119.678 164.614 119.567C164.688 119.456 164.725 119.345 164.71 119.234C164.695 119.123 164.643 119.012 164.54 118.909C164.436 118.805 164.295 118.709 164.11 118.62" fill="#1338B8"/>
<path d="M172.696 122.536L172.525 122.462C172.326 122.373 172.104 122.307 171.874 122.262C171.645 122.218 171.4 122.196 171.164 122.196C170.927 122.196 170.69 122.218 170.475 122.262C170.261 122.307 170.054 122.373 169.891 122.462L169.75 122.536C169.58 122.625 169.461 122.728 169.387 122.839C169.313 122.951 169.284 123.069 169.299 123.187C169.313 123.306 169.38 123.424 169.484 123.535C169.587 123.646 169.743 123.757 169.943 123.846L170.113 123.927C170.313 124.016 170.535 124.09 170.771 124.135C171.008 124.179 171.252 124.201 171.497 124.201C171.741 124.201 171.978 124.179 172.2 124.135C172.422 124.09 172.622 124.016 172.792 123.927L172.932 123.846C173.103 123.757 173.221 123.646 173.295 123.535C173.369 123.424 173.391 123.306 173.376 123.187C173.362 123.069 173.288 122.951 173.177 122.839C173.066 122.728 172.91 122.625 172.71 122.536" fill="#1338B8"/>
<path d="M133.738 108.119L133.605 108.06C133.45 107.986 133.272 107.934 133.072 107.897C132.872 107.86 132.665 107.845 132.451 107.845C132.236 107.845 132.021 107.86 131.814 107.897C131.607 107.934 131.407 107.986 131.237 108.06L131.089 108.119C130.919 108.193 130.778 108.275 130.682 108.363C130.586 108.452 130.526 108.548 130.512 108.645C130.497 108.741 130.519 108.837 130.593 108.926C130.667 109.015 130.771 109.103 130.926 109.177L131.059 109.237C131.215 109.311 131.4 109.362 131.592 109.399C131.784 109.436 132.007 109.451 132.221 109.451C132.436 109.451 132.658 109.429 132.865 109.399C133.072 109.37 133.272 109.311 133.442 109.237L133.59 109.177C133.768 109.103 133.901 109.022 133.997 108.926C134.093 108.83 134.145 108.741 134.16 108.645C134.175 108.548 134.145 108.452 134.071 108.363C133.997 108.275 133.886 108.193 133.731 108.119" fill="#1338B8"/>
<path d="M145.823 110.296L142.204 108.645L136.314 105.966L134.944 106.529C134.774 106.595 134.641 106.677 134.552 106.765C134.463 106.854 134.404 106.943 134.397 107.039C134.389 107.136 134.412 107.224 134.486 107.313C134.56 107.402 134.671 107.483 134.819 107.557L136.032 108.12C136.188 108.194 136.306 108.275 136.373 108.364C136.439 108.453 136.476 108.549 136.469 108.645C136.462 108.741 136.41 108.838 136.314 108.926C136.217 109.015 136.092 109.104 135.914 109.178L134.537 109.763C134.36 109.837 134.227 109.926 134.138 110.014C134.049 110.103 133.99 110.207 133.975 110.303C133.96 110.399 133.99 110.503 134.064 110.592C134.138 110.68 134.249 110.769 134.412 110.851L134.545 110.917C134.7 110.991 134.885 111.05 135.092 111.087C135.3 111.124 135.514 111.147 135.729 111.147C135.944 111.147 136.173 111.124 136.38 111.087C136.587 111.05 136.787 110.991 136.965 110.917L138.341 110.325C138.512 110.251 138.711 110.192 138.919 110.155C139.126 110.118 139.348 110.096 139.562 110.096C139.777 110.096 139.999 110.118 140.199 110.155C140.399 110.192 140.591 110.251 140.747 110.325L142.019 110.917C142.182 110.991 142.375 111.05 142.575 111.087C142.774 111.124 142.996 111.147 143.218 111.147C143.44 111.147 143.662 111.124 143.87 111.087C144.077 111.05 144.277 110.991 144.439 110.917L145.809 110.31" fill="#1338B8"/>
<path d="M144.498 113.159L144.358 113.092C144.195 113.018 144.003 112.959 143.795 112.914C143.588 112.87 143.366 112.855 143.144 112.855C142.922 112.855 142.7 112.877 142.485 112.914C142.271 112.951 142.071 113.011 141.901 113.092L141.753 113.159C141.575 113.24 141.442 113.329 141.353 113.425C141.264 113.521 141.213 113.625 141.205 113.728C141.198 113.832 141.235 113.936 141.309 114.032C141.383 114.128 141.509 114.224 141.679 114.298L141.819 114.365C141.99 114.446 142.182 114.506 142.389 114.543C142.596 114.58 142.826 114.602 143.048 114.602C143.27 114.602 143.499 114.58 143.714 114.543C143.929 114.506 144.128 114.446 144.306 114.365L144.454 114.298C144.632 114.217 144.765 114.128 144.854 114.032C144.943 113.936 144.987 113.832 144.994 113.728C145.002 113.625 144.957 113.521 144.876 113.425C144.794 113.329 144.669 113.24 144.506 113.159" fill="#1338B8"/>
<path d="M160.284 120.552L152.018 116.681C151.84 116.6 151.64 116.533 151.425 116.496C151.211 116.459 150.981 116.437 150.752 116.437C150.523 116.437 150.293 116.459 150.079 116.496C149.864 116.533 149.664 116.6 149.487 116.681L149.338 116.748C149.161 116.829 149.035 116.925 148.946 117.029C148.857 117.133 148.813 117.244 148.813 117.347C148.813 117.451 148.857 117.569 148.939 117.673C149.02 117.777 149.161 117.873 149.331 117.962L157.598 121.906C157.783 121.995 157.997 122.062 158.227 122.106C158.456 122.15 158.693 122.173 158.937 122.173C159.181 122.173 159.411 122.15 159.633 122.106C159.855 122.062 160.062 121.995 160.232 121.906L160.38 121.832C160.558 121.743 160.684 121.64 160.765 121.529C160.847 121.418 160.884 121.307 160.869 121.188C160.854 121.07 160.802 120.959 160.706 120.848C160.61 120.737 160.462 120.641 160.277 120.552" fill="#1338B8"/>
<path d="M164.525 122.536L164.362 122.462C164.17 122.373 163.955 122.307 163.726 122.262C163.496 122.218 163.26 122.196 163.015 122.196C162.771 122.196 162.542 122.218 162.32 122.262C162.098 122.307 161.89 122.373 161.72 122.462L161.572 122.536C161.395 122.625 161.269 122.728 161.187 122.839C161.106 122.951 161.069 123.069 161.076 123.187C161.084 123.306 161.143 123.424 161.239 123.543C161.335 123.661 161.483 123.765 161.676 123.853L161.839 123.935C162.031 124.024 162.253 124.098 162.483 124.142C162.712 124.186 162.956 124.209 163.2 124.209C163.445 124.209 163.681 124.186 163.903 124.142C164.125 124.098 164.333 124.024 164.503 123.935L164.651 123.853C164.829 123.765 164.954 123.654 165.036 123.543C165.117 123.432 165.147 123.313 165.132 123.195C165.117 123.076 165.058 122.958 164.954 122.847C164.851 122.736 164.703 122.632 164.51 122.543" fill="#1338B8"/>
<path d="M148.243 118.629L148.095 118.555C147.918 118.473 147.718 118.407 147.496 118.362C147.274 118.318 147.044 118.296 146.815 118.296C146.585 118.296 146.349 118.318 146.134 118.362C145.919 118.407 145.712 118.466 145.527 118.555L145.372 118.629C145.194 118.718 145.053 118.814 144.957 118.917C144.861 119.021 144.817 119.132 144.809 119.251C144.802 119.369 144.846 119.473 144.928 119.584C145.009 119.695 145.142 119.791 145.32 119.88L145.468 119.954C145.646 120.042 145.845 120.102 146.067 120.146C146.289 120.19 146.526 120.213 146.756 120.213C146.985 120.213 147.229 120.19 147.451 120.146C147.673 120.102 147.881 120.035 148.066 119.954L148.221 119.88C148.399 119.791 148.532 119.695 148.628 119.591C148.724 119.487 148.761 119.369 148.761 119.258C148.761 119.147 148.717 119.036 148.628 118.925C148.539 118.814 148.406 118.725 148.236 118.636" fill="#1338B8"/>
<path d="M152.24 120.553L152.092 120.479C151.907 120.39 151.699 120.324 151.477 120.279C151.255 120.235 151.019 120.212 150.782 120.212C150.545 120.212 150.308 120.235 150.086 120.279C149.864 120.324 149.657 120.39 149.479 120.472L149.324 120.546C149.146 120.634 149.006 120.738 148.917 120.842C148.828 120.945 148.776 121.064 148.776 121.182C148.776 121.3 148.821 121.411 148.909 121.522C148.998 121.633 149.139 121.737 149.316 121.826L149.464 121.9C149.649 121.989 149.857 122.055 150.086 122.1C150.316 122.144 150.552 122.166 150.789 122.166C151.026 122.166 151.27 122.144 151.492 122.1C151.714 122.055 151.929 121.989 152.106 121.9L152.262 121.826C152.44 121.737 152.573 121.633 152.662 121.522C152.75 121.411 152.795 121.3 152.787 121.182C152.78 121.064 152.736 120.953 152.647 120.842C152.558 120.731 152.417 120.634 152.232 120.546" fill="#1338B8"/>
<path d="M170.327 125.254L168.721 124.499C168.521 124.403 168.299 124.336 168.062 124.292C167.825 124.247 167.581 124.225 167.344 124.225C167.107 124.225 166.863 124.247 166.641 124.292C166.419 124.336 166.212 124.41 166.042 124.499L164.665 125.232C164.488 125.328 164.28 125.394 164.051 125.446C163.822 125.498 163.585 125.513 163.34 125.513C163.096 125.513 162.852 125.491 162.615 125.439C162.378 125.387 162.164 125.32 161.964 125.232L156.199 122.456C156.014 122.367 155.799 122.301 155.57 122.256C155.34 122.212 155.104 122.19 154.867 122.19C154.63 122.19 154.386 122.212 154.164 122.256C153.942 122.301 153.727 122.367 153.549 122.456L152.084 123.189L163.651 128.873L166.412 127.378L170.319 125.254" fill="#1338B8"/>
<path d="M140.303 118.629L140.155 118.555C139.985 118.473 139.785 118.407 139.57 118.362C139.356 118.318 139.126 118.296 138.889 118.296C138.653 118.296 138.423 118.318 138.201 118.362C137.979 118.407 137.772 118.466 137.587 118.555L137.431 118.629C137.246 118.718 137.106 118.814 137.002 118.917C136.899 119.021 136.847 119.132 136.839 119.251C136.832 119.369 136.862 119.473 136.943 119.584C137.024 119.695 137.15 119.791 137.32 119.88L137.468 119.954C137.639 120.042 137.838 120.109 138.06 120.146C138.283 120.183 138.512 120.213 138.749 120.213C138.986 120.213 139.222 120.19 139.444 120.146C139.666 120.102 139.881 120.035 140.066 119.954L140.221 119.88C140.406 119.791 140.547 119.695 140.643 119.591C140.74 119.487 140.791 119.369 140.799 119.258C140.806 119.147 140.769 119.036 140.688 118.925C140.606 118.814 140.481 118.718 140.31 118.636" fill="#1338B8"/>
<path d="M144.188 120.553L144.04 120.479C143.862 120.39 143.655 120.324 143.441 120.279C143.226 120.235 142.989 120.212 142.752 120.212C142.515 120.212 142.279 120.235 142.057 120.279C141.835 120.324 141.62 120.39 141.435 120.472L141.28 120.546C141.095 120.634 140.954 120.738 140.85 120.842C140.747 120.945 140.702 121.064 140.695 121.182C140.688 121.3 140.725 121.411 140.806 121.522C140.887 121.633 141.021 121.737 141.198 121.826L141.346 121.9C141.524 121.989 141.724 122.055 141.946 122.1C142.168 122.144 142.404 122.166 142.641 122.166C142.878 122.166 143.122 122.144 143.344 122.1C143.566 122.055 143.788 121.989 143.973 121.9L144.129 121.826C144.314 121.737 144.454 121.633 144.551 121.522C144.647 121.411 144.691 121.3 144.699 121.182C144.706 121.064 144.662 120.953 144.58 120.842C144.499 120.731 144.366 120.634 144.188 120.546" fill="#1338B8"/>
<path d="M152.313 124.58L152.158 124.499C151.973 124.41 151.758 124.336 151.529 124.292C151.3 124.247 151.055 124.225 150.811 124.225C150.567 124.225 150.323 124.247 150.101 124.292C149.879 124.336 149.657 124.41 149.472 124.499L149.316 124.58C149.131 124.676 148.991 124.78 148.894 124.899C148.798 125.017 148.754 125.135 148.754 125.261C148.754 125.387 148.798 125.505 148.894 125.624C148.991 125.742 149.124 125.846 149.309 125.942L149.464 126.023C149.649 126.12 149.871 126.186 150.101 126.238C150.33 126.29 150.574 126.312 150.826 126.312C151.078 126.312 151.314 126.29 151.544 126.238C151.773 126.186 151.988 126.12 152.173 126.023L152.328 125.942C152.513 125.846 152.654 125.742 152.743 125.624C152.832 125.505 152.876 125.387 152.876 125.261C152.876 125.135 152.824 125.017 152.728 124.899C152.632 124.78 152.491 124.676 152.306 124.58" fill="#1338B8"/>
<path d="M160.936 128.858L160.766 128.776C160.566 128.68 160.344 128.606 160.1 128.554C159.855 128.503 159.611 128.48 159.36 128.48C159.108 128.48 158.864 128.503 158.627 128.554C158.39 128.606 158.183 128.68 157.998 128.776L157.842 128.858C157.657 128.954 157.517 129.072 157.428 129.191C157.339 129.309 157.295 129.443 157.302 129.576C157.31 129.709 157.361 129.835 157.465 129.961C157.569 130.086 157.717 130.197 157.916 130.301L158.087 130.39C158.286 130.493 158.516 130.567 158.753 130.619C158.99 130.671 159.249 130.693 159.5 130.693C159.752 130.693 160.003 130.671 160.24 130.619C160.477 130.567 160.692 130.493 160.877 130.39L161.032 130.301C161.217 130.197 161.35 130.086 161.439 129.961C161.528 129.835 161.565 129.709 161.55 129.576C161.535 129.443 161.484 129.317 161.38 129.191C161.276 129.065 161.121 128.954 160.921 128.858" fill="#1338B8"/>
<path d="M136.136 120.553L135.988 120.479C135.818 120.39 135.618 120.324 135.396 120.279C135.174 120.235 134.944 120.212 134.715 120.212C134.485 120.212 134.241 120.235 134.019 120.279C133.797 120.324 133.575 120.39 133.383 120.479L128.891 122.536C128.698 122.625 128.543 122.729 128.432 122.84C128.321 122.951 128.262 123.069 128.239 123.188C128.217 123.306 128.247 123.424 128.321 123.543C128.395 123.661 128.521 123.765 128.691 123.854L128.839 123.935C129.009 124.024 129.216 124.098 129.438 124.142C129.66 124.187 129.897 124.209 130.141 124.209C130.386 124.209 130.63 124.187 130.867 124.142C131.103 124.098 131.325 124.024 131.518 123.935L136.017 121.833C136.21 121.744 136.358 121.641 136.454 121.53C136.55 121.419 136.609 121.308 136.624 121.189C136.639 121.071 136.602 120.96 136.521 120.849C136.439 120.738 136.313 120.642 136.143 120.553" fill="#1338B8"/>
<path d="M148.199 122.536L146.734 121.811L135.24 127.384L136.706 128.168C136.883 128.265 137.098 128.339 137.327 128.39C137.557 128.442 137.808 128.464 138.06 128.464C138.312 128.464 138.563 128.442 138.8 128.39C139.037 128.339 139.266 128.272 139.459 128.168L141.005 127.399C141.198 127.302 141.42 127.228 141.657 127.184C141.894 127.14 142.138 127.11 142.389 127.11C142.641 127.11 142.885 127.132 143.115 127.184C143.344 127.236 143.559 127.302 143.744 127.399L153.838 132.661C154.038 132.764 154.267 132.846 154.512 132.897C154.756 132.949 155.015 132.979 155.274 132.979C155.533 132.979 155.785 132.949 156.029 132.897C156.273 132.846 156.495 132.764 156.687 132.661L156.85 132.572C157.043 132.468 157.183 132.35 157.272 132.224C157.361 132.098 157.405 131.965 157.398 131.824C157.391 131.684 157.339 131.558 157.228 131.432C157.117 131.306 156.969 131.188 156.769 131.084L146.674 125.926C146.489 125.83 146.349 125.719 146.26 125.608C146.171 125.497 146.127 125.371 146.134 125.245C146.142 125.119 146.186 125.001 146.282 124.882C146.378 124.764 146.519 124.66 146.704 124.572L148.177 123.846C148.362 123.758 148.502 123.647 148.591 123.536C148.68 123.424 148.732 123.306 148.732 123.18C148.732 123.054 148.687 122.943 148.599 122.832C148.51 122.721 148.377 122.618 148.192 122.529" fill="#1338B8"/>
<path d="M135.722 124.586L135.574 124.505C135.396 124.408 135.189 124.342 134.967 124.297C134.745 124.253 134.501 124.231 134.264 124.231C134.027 124.231 133.775 124.253 133.546 124.297C133.317 124.342 133.087 124.416 132.895 124.505L132.725 124.586C132.532 124.675 132.377 124.786 132.266 124.897C132.155 125.008 132.095 125.134 132.081 125.26C132.066 125.385 132.095 125.504 132.177 125.622C132.258 125.741 132.384 125.844 132.562 125.94L132.71 126.022C132.887 126.118 133.095 126.185 133.317 126.236C133.539 126.288 133.783 126.31 134.034 126.31C134.286 126.31 134.53 126.288 134.767 126.236C135.004 126.185 135.226 126.118 135.426 126.022L135.596 125.94C135.796 125.844 135.944 125.733 136.047 125.622C136.151 125.511 136.21 125.385 136.225 125.26C136.24 125.134 136.203 125.015 136.121 124.897C136.04 124.778 135.914 124.675 135.737 124.586" fill="#1338B8"/>
<path d="M143.84 128.864L143.684 128.782C143.499 128.686 143.285 128.612 143.048 128.56C142.811 128.508 142.567 128.486 142.315 128.486C142.064 128.486 141.812 128.508 141.575 128.56C141.338 128.612 141.109 128.686 140.917 128.782L140.746 128.864C140.547 128.96 140.399 129.078 140.295 129.197C140.191 129.315 140.132 129.448 140.125 129.582C140.117 129.715 140.154 129.841 140.243 129.966C140.332 130.092 140.465 130.203 140.65 130.307L140.806 130.396C140.991 130.499 141.213 130.573 141.449 130.625C141.686 130.677 141.938 130.699 142.189 130.699C142.441 130.699 142.7 130.677 142.937 130.625C143.174 130.573 143.403 130.499 143.603 130.396L143.773 130.307C143.973 130.203 144.121 130.092 144.225 129.966C144.328 129.841 144.38 129.715 144.387 129.582C144.395 129.448 144.35 129.322 144.254 129.197C144.158 129.071 144.025 128.96 143.832 128.864" fill="#1338B8"/>
<path d="M153.306 104.347C152.935 104.191 152.506 104.073 152.055 103.992C151.603 103.91 151.122 103.873 150.641 103.873C150.16 103.873 149.679 103.91 149.228 103.992C148.776 104.073 148.347 104.184 147.984 104.347C147.622 104.51 147.333 104.687 147.148 104.88C146.963 105.072 146.86 105.287 146.86 105.494C146.86 105.701 146.941 105.916 147.126 106.116C147.311 106.315 147.585 106.5 147.955 106.663C148.325 106.826 148.762 106.952 149.22 107.033C149.679 107.115 150.175 107.159 150.663 107.159C151.152 107.159 151.648 107.115 152.107 107.033C152.565 106.952 152.995 106.826 153.365 106.663C153.735 106.5 154.009 106.315 154.186 106.116C154.364 105.916 154.453 105.709 154.445 105.494C154.438 105.279 154.342 105.08 154.149 104.88C153.957 104.68 153.676 104.502 153.306 104.347Z" fill="#1338B8"/>
<path d="M176.595 114.18C176.159 113.995 175.677 113.862 175.167 113.766C174.656 113.67 174.131 113.633 173.613 113.633C173.095 113.633 172.584 113.677 172.11 113.773C171.637 113.87 171.2 114.003 170.837 114.188C170.475 114.373 170.208 114.588 170.046 114.817C169.883 115.046 169.816 115.291 169.861 115.535C169.905 115.779 170.038 116.031 170.275 116.26C170.512 116.489 170.852 116.712 171.289 116.904C171.726 117.096 172.221 117.237 172.739 117.341C173.257 117.444 173.798 117.489 174.338 117.489C174.878 117.489 175.396 117.444 175.877 117.348C176.358 117.252 176.802 117.111 177.165 116.919C177.528 116.726 177.787 116.504 177.935 116.275C178.083 116.045 178.135 115.794 178.075 115.55C178.016 115.305 177.868 115.061 177.616 114.832C177.365 114.602 177.024 114.388 176.588 114.203" fill="#1338B8"/>
<path d="M130.63 114.159C130.26 113.974 129.824 113.841 129.35 113.745C128.876 113.648 128.366 113.604 127.848 113.604C127.329 113.604 126.804 113.648 126.293 113.737C125.783 113.826 125.302 113.967 124.872 114.152C124.443 114.337 124.095 114.551 123.851 114.781C123.607 115.01 123.459 115.254 123.407 115.499C123.355 115.743 123.407 115.994 123.563 116.224C123.718 116.453 123.977 116.683 124.347 116.868C124.717 117.053 125.161 117.201 125.642 117.297C126.123 117.393 126.649 117.445 127.189 117.445C127.729 117.445 128.262 117.393 128.78 117.297C129.298 117.201 129.787 117.053 130.223 116.868C130.66 116.683 130.993 116.453 131.23 116.224C131.466 115.994 131.6 115.743 131.637 115.499C131.674 115.254 131.607 115.01 131.437 114.781C131.267 114.551 131 114.337 130.63 114.152" fill="#1338B8"/>
<path d="M142.338 105.493L150.649 102L158.967 105.479L150.664 109.186L142.338 105.493ZM162.645 104.983L151.752 100.505C151.596 100.439 151.418 100.394 151.233 100.365C151.048 100.335 150.841 100.32 150.641 100.32C150.442 100.32 150.242 100.335 150.049 100.365C149.857 100.394 149.687 100.446 149.531 100.505L138.645 105.005C138.482 105.072 138.349 105.153 138.26 105.234C138.171 105.316 138.119 105.412 138.112 105.501C138.105 105.59 138.134 105.686 138.208 105.767C138.282 105.849 138.393 105.93 138.549 106.004L149.45 110.933C149.62 111.007 149.813 111.066 150.02 111.103C150.227 111.14 150.449 111.162 150.664 111.162C150.878 111.162 151.1 111.14 151.307 111.103C151.515 111.066 151.707 111.007 151.87 110.933L162.749 105.989C162.904 105.923 163.015 105.841 163.082 105.752C163.149 105.664 163.186 105.575 163.171 105.486C163.156 105.397 163.112 105.308 163.023 105.22C162.934 105.131 162.808 105.057 162.638 104.99" fill="#1338B8"/>
<path d="M164.969 115.536L173.228 111.45L182.967 115.521L174.76 119.88L164.969 115.536ZM186.845 114.929L174.116 109.696C173.938 109.622 173.731 109.563 173.524 109.526C173.317 109.489 173.095 109.467 172.873 109.467C172.651 109.467 172.443 109.482 172.243 109.519C172.044 109.556 171.866 109.608 171.711 109.682L160.869 114.944C160.706 115.025 160.58 115.121 160.499 115.217C160.417 115.314 160.388 115.425 160.395 115.528C160.402 115.632 160.454 115.743 160.55 115.846C160.647 115.95 160.787 116.039 160.965 116.128L173.805 121.93C174.005 122.019 174.227 122.085 174.456 122.13C174.686 122.174 174.93 122.196 175.174 122.196C175.418 122.196 175.648 122.174 175.862 122.13C176.077 122.085 176.277 122.019 176.44 121.93L187.171 116.098C187.319 116.017 187.422 115.92 187.481 115.824C187.541 115.728 187.555 115.617 187.518 115.513C187.481 115.41 187.415 115.299 187.296 115.203C187.178 115.106 187.023 115.01 186.83 114.929" fill="#1338B8"/>
<path d="M118.493 115.514L128.232 111.422L136.529 115.499L126.745 119.866L118.493 115.522M140.621 114.9L129.742 109.66C129.587 109.586 129.409 109.527 129.209 109.49C129.009 109.453 128.795 109.438 128.58 109.431C128.366 109.424 128.144 109.446 127.936 109.483C127.729 109.52 127.522 109.572 127.344 109.653L114.6 114.93C114.408 115.011 114.253 115.1 114.142 115.203C114.031 115.307 113.957 115.411 113.927 115.514C113.897 115.618 113.912 115.729 113.971 115.825C114.031 115.921 114.134 116.018 114.29 116.099L125.072 121.901C125.235 121.99 125.435 122.056 125.657 122.101C125.879 122.145 126.108 122.167 126.345 122.167C126.582 122.167 126.826 122.145 127.056 122.101C127.285 122.056 127.507 121.99 127.707 121.901L140.547 116.069C140.725 115.988 140.865 115.892 140.962 115.795C141.058 115.699 141.11 115.588 141.11 115.485C141.11 115.381 141.08 115.27 140.999 115.174C140.917 115.078 140.799 114.981 140.629 114.9" fill="#1338B8"/>
<path d="M150.636 92.0006L209.134 116.501L209.134 8.49816L92.1369 8.49887L92.1373 116.501L150.636 92.0006Z" fill="url(#paint1_linear_4418_51805)"/>
<path d="M122.203 24.5L122.204 79.5H179.068V24.5H122.203Z" fill="#A8E8BD"/>
<path d="M148.445 37C148.445 35.8954 149.341 35 150.445 35H150.825C151.93 35 152.825 35.8954 152.825 37V47.8086C152.825 48.9132 153.72 49.8086 154.825 49.8086H165.636C166.74 49.8086 167.636 50.704 167.636 51.8086V52.1881C167.636 53.2927 166.74 54.1881 165.636 54.1881H154.825C153.72 54.1881 152.825 55.0835 152.825 56.1881V67C152.825 68.1046 151.93 69 150.825 69H150.445C149.341 69 148.445 68.1046 148.445 67V56.1881C148.445 55.0835 147.55 54.1881 146.445 54.1881H135.636C134.531 54.1881 133.636 53.2927 133.636 52.1881L133.636 51.8086C133.636 50.704 134.531 49.8086 135.636 49.8086H146.445C147.55 49.8086 148.445 48.9132 148.445 47.8086V37Z" fill="black"/>
<path d="M84.1377 71.4258L86.6612 76.9765L92.2119 79.5L86.6612 82.0235L84.1377 87.5742L81.6142 82.0235L76.0635 79.5L81.6142 76.9765L84.1377 71.4258Z" fill="white"/>
<path d="M101.033 41.1641L105.383 50.7314L114.95 55.0811L105.383 59.4307L101.033 68.998L96.6836 59.4307L87.1162 55.0811L96.6836 50.7314L101.033 41.1641Z" fill="white"/>
<path d="M217.133 71L214.609 76.5507L209.059 79.0742L214.609 81.5977L217.133 87.1484L219.656 81.5977L225.207 79.0742L219.656 76.5507L217.133 71Z" fill="white"/>
<path d="M94.198 35.7773L95.9603 31.9011L99.8365 30.1389L95.9603 28.3767L94.198 24.5005L92.4358 28.3767L88.5596 30.1389L92.4358 31.9011L94.198 35.7773Z" fill="white"/>
<path d="M207.072 36.0742L205.31 32.198L201.434 30.4358L205.31 28.6735L207.072 24.7973L208.835 28.6735L212.711 30.4358L208.835 32.198L207.072 36.0742Z" fill="white"/>
<path d="M200.237 41.1641L195.888 50.7314L186.32 55.0811L195.888 59.4307L200.237 68.998L204.587 59.4307L214.154 55.0811L204.587 50.7314L200.237 41.1641Z" fill="white"/>
</g>
<defs>
<radialGradient id="paint0_radial_4418_51805" cx="0" cy="0" r="1" gradientUnits="userSpaceOnUse" gradientTransform="translate(150.725 179.999) rotate(-90) scale(134.999 286.219)">
<stop offset="0.197115" stop-color="#DFEBFF"/>
<stop offset="1" stop-color="#F8FAFF"/>
</radialGradient>
<linearGradient id="paint1_linear_4418_51805" x1="150.636" y1="11.5" x2="150.636" y2="143" gradientUnits="userSpaceOnUse">
<stop stop-color="white" stop-opacity="0"/>
<stop offset="1" stop-color="#4C6EE7" stop-opacity="0.25"/>
</linearGradient>
<clipPath id="clip0_4418_51805">
<rect width="300" height="180" fill="white" transform="translate(0.635742)"/>
</clipPath>
</defs>
</svg>
