<svg width="300" height="180" viewBox="0 0 300 180" fill="none" xmlns="http://www.w3.org/2000/svg">
<g clip-path="url(#clip0_4418_38721)">
<rect width="300" height="180" fill="#F8FAFF"/>
<path d="M0 38.5H149.5H300V179.999H0V38.5Z" fill="url(#paint0_radial_4418_38721)"/>
<path d="M102.615 37.1784C97.9218 45.9096 93.4995 64.8664 91.875 73.2533L97.8888 85.2497C103.198 89.06 114.348 93.8168 116.471 82.3607C118.594 70.9046 117.283 55.1512 116.363 48.7066L102.615 37.1784Z" fill="#CEDBFE"/>
<path d="M117.16 46.1311L106.515 32.1352C103.666 35.9669 100.548 42.0419 97.719 48.3137C101.914 58.3458 108.2 64.9317 113.642 65.5353C114.722 65.655 116.077 65.5169 117.599 65.0161L117.16 46.1311Z" fill="url(#paint1_linear_4418_38721)"/>
<path d="M45.9299 108.858C40.3042 124.939 61.7318 169.44 64.0759 180.001H154.443C154.443 180.001 167.5 160 171.184 148.25L149.75 139C149.75 123 142.518 93.1041 138.79 87.7638C131.713 77.6258 123.357 72.7214 117.611 70.5365L114.688 75.9988L108.75 77.625L103.688 74.875L94.0194 65.0742C86.08 66.6037 67.5471 69.9843 60.447 75.9988C47.0903 87.3133 52.9619 88.7567 45.9299 108.858Z" fill="url(#paint2_linear_4418_38721)"/>
<path d="M86 67L82.5 80H90.5L86 85.5C91.8333 91.3333 102 116.5 103.75 136.5" stroke="#1338B8"/>
<path d="M126.557 75.9359L130.393 86.6365L124.509 87.3115L128.352 91.5839C124.509 101.5 120.82 121.844 119.75 135.25" stroke="#1338B8"/>
<path d="M154.749 141.501L159.5 131C162.164 127.501 168.242 129.464 169.428 127.935C170.509 126.542 170.697 122.948 170.639 119.91L170.352 115.052C170.352 115.052 170.588 117.272 170.639 119.91L171.197 129.348L171.568 128.17C171.572 128.103 171.592 128.032 171.631 127.956C171.634 127.949 171.638 127.942 171.642 127.935L172.501 125.209C172.22 125.044 172.114 124.828 172.257 124.547C172.373 124.319 172.61 124.076 172.937 123.826L175.868 114.52C175.868 114.52 176.621 114.913 177.724 115.499C179.571 115.237 185.904 120.143 186 120.218L186.002 120.219C187.294 121.172 183.221 135.343 180.46 137.85C178.496 139.634 172.643 140.912 169.428 141.502C168.657 142.813 167.61 144.552 166.349 146.552L154.749 141.501Z" fill="#BCC7F9"/>
<path d="M72.017 110.449L112.621 155.137L64.5312 161.715L72.017 110.449Z" fill="url(#paint3_linear_4418_38721)"/>
<path d="M107.164 188.391C108.756 164.697 103.676 99.8119 101.438 78.0158L117.901 75.2656C121.085 93.1126 117.036 159.958 114.383 183.806L107.164 188.391Z" fill="#4C6EE7"/>
<path d="M101.438 78.0158L117.901 75.2656C118.491 78.5691 118.832 83.5514 118.981 89.629L111.526 81.1406L102.533 89.629C102.533 89.629 101.755 81.1025 101.438 78.0158Z" fill="#4263D6"/>
<path d="M111.812 76.9766C112.895 98.8972 114.101 149.658 111.498 180.293L110.502 180.209C113.099 149.644 111.897 98.9381 110.813 77.0254L111.812 76.9766Z" fill="#3559D6"/>
<path d="M111.906 76.2656L118.519 83.6607L117.786 84.3404L111.294 77.3404C111.141 77.4899 110.944 77.6828 110.712 77.9097C110.127 78.4828 109.322 79.2763 108.439 80.1588C106.67 81.9278 104.604 84.0416 103.378 85.4537L102.622 84.7974C103.875 83.3553 105.965 81.2191 107.732 79.4517C108.618 78.5661 109.426 77.7696 110.013 77.1949C110.306 76.9077 110.547 76.5905 110.712 76.4302C110.668 76.4725 110.794 76.3501 110.712 76.4302C110.65 76.4908 110.663 76.4781 110.712 76.4302L111.906 76.2656Z" fill="#3559D6"/>
<path d="M170.951 148.041C171.204 148.152 171.319 148.447 171.208 148.7C171.097 148.953 170.802 149.068 170.55 148.958L149.835 139.879C149.144 141.744 148.087 144.221 146.907 146.614C145.623 149.22 144.175 151.77 142.884 153.318C142.708 153.53 142.393 153.559 142.18 153.383C141.968 153.206 141.939 152.891 142.116 152.678C143.326 151.227 144.731 148.767 146.01 146.172C147.284 143.586 148.414 140.906 149.078 139.041L149.258 138.534L149.749 138.751L170.951 148.041Z" fill="black"/>
<path d="M113.309 137.103C116.166 133.708 125.132 124.107 126.034 123.439C127.598 122.28 135.794 119.259 137.478 119.058C139.163 118.859 155.765 121.228 155.765 121.228C155.309 125.33 143.05 124.51 143.05 124.51C143.05 124.51 146.31 126.9 146.563 130C147.173 137.496 141.85 139.456 141.116 139.312C139.465 138.986 140.756 135.762 140.756 135.762C140.756 135.762 124.506 143.882 116.331 143.844L116.331 146.633C116.331 146.633 106.743 164.511 88.2779 169.732C71.5156 168.933 73.5299 158.172 73.5299 158.172L76.6157 157.756L110.288 137.103L113.309 137.103Z" fill="#BCC7F9"/>
<path d="M117.353 130.13L109.835 136.983L110.054 138.543L116.304 153.34L126.285 148.16L117.353 130.13Z" fill="#4C6EE7"/>
<path d="M108.344 132.447L67.7072 157.77L77.6882 109.68L56.977 79.3867C56.977 79.3867 51.1267 84.1708 47.6534 92.082C45.852 96.1851 44.4845 100.516 42.8081 105.3C41.1318 110.084 39.7843 115.025 38.4913 121.762C37.1983 128.499 36.0006 136.883 35.4585 144.645C34.9163 152.408 35.066 159.295 35.5175 165.088C35.9797 171.021 37.7211 176.135 38.6717 180.001H92.3723L120.375 155.625L108.344 132.447Z" fill="#1946E3"/>
<path d="M120.939 155.138C121.071 155.38 120.982 155.684 120.739 155.816C120.497 155.948 120.193 155.858 120.061 155.616L108.061 133.58L67.7944 158.091C67.5589 158.235 67.2512 158.161 67.1069 157.926C66.9629 157.69 67.0367 157.382 67.2721 157.238L108.437 132.177L120.939 155.138Z" fill="#4C6EE7"/>
<path d="M194.941 97.3052L175.728 97.3132C175.327 97.3133 174.965 97.5528 174.808 97.9217L166.59 117.238L158.705 135.771C158.424 136.431 158.908 137.163 159.625 137.163L178.669 137.155C179.069 137.155 179.43 136.917 179.588 136.55L195.86 98.7001C196.144 98.04 195.659 97.3049 194.941 97.3052Z" fill="#0B216F"/>
<path d="M192.946 99.684L186.911 99.6865L184.587 105.203L190.543 105.2L192.946 99.684Z" fill="white"/>
<path d="M119.839 62.4524C114.287 62.6507 106.752 56.1073 101.596 45.5991C101.057 44.4997 100.58 43.4855 100.158 42.5516C93.9689 44.7721 93.7389 32.5341 93.9684 31.9593L118.451 14.2695L136.495 20.6146C137.883 53.3314 125.391 62.2541 119.839 62.4524Z" fill="#CEDBFE"/>
<path d="M115.314 43.918L117.072 44.8645C120.47 46.6946 124.106 48.1457 127.892 49.1827L128.761 49.4207L124.195 55.9084C122.937 57.6948 120.316 58.3227 118.105 57.3668C116.409 56.6336 115.321 55.1166 115.32 53.4822L115.314 43.918Z" fill="white"/>
<path d="M114.892 30.6223C118.505 22.1656 127.388 22.9775 130.878 25.4405C139.846 27.7822 140.277 17.7216 137.623 14.006C134.969 10.2904 132.409 5.65608 124.708 3.32252C117.008 0.988967 110.029 1.59867 102.342 5.32148C95.346 8.71005 91.7107 16.006 90.7222 21.6922C88.8257 32.6014 94.0989 45.831 97.0073 52.5368L100.142 42.9073C100.142 42.9073 97.395 40.3931 97.395 36.6657C97.395 32.9384 100.421 30.7541 103.986 32.5221C107.271 34.1509 106.347 37.6766 107.271 39.6042C108.195 41.5318 111.28 39.0791 114.892 30.6223Z" fill="black"/>
<path d="M133.872 35.0484L132.253 47.0688L131.764 46.8502C130.759 46.3994 129.063 45.9619 127.04 46.2171L126.94 45.4232C128.833 45.1844 130.468 45.5044 131.601 45.9207L133.079 34.9416L133.872 35.0484Z" fill="#7B8ED4"/>
<path d="M181.684 74.1836V94.3594L196.021 74.1836H181.684Z" fill="#A8E8BD"/>
<path d="M181.684 20.8828H279.5V80.3945H181.684V20.8828Z" fill="#A8E8BD"/>
<path d="M219.384 51.9494L223.526 47.8072C226.399 44.9345 231.057 44.9345 233.929 47.8072C234.478 48.3565 234.478 49.247 233.929 49.7962C233.38 50.3454 232.49 50.3453 231.94 49.7962C230.166 48.022 227.289 48.022 225.515 49.7962L221.373 53.9385C219.598 55.7127 219.599 58.5892 221.373 60.3634C223.147 62.1374 226.023 62.1374 227.798 60.3634L230.544 57.6174C231.093 57.0682 231.983 57.0682 232.533 57.6174C233.082 58.1667 233.082 59.0572 232.533 59.6064L229.787 62.3524C226.914 65.225 222.257 65.2249 219.384 62.3524C216.511 59.4797 216.511 54.8222 219.384 51.9494Z" fill="black"/>
<path d="M242.799 49.3357L238.657 53.4779C235.784 56.3507 231.126 56.3507 228.253 53.4779C227.704 52.9287 227.704 52.0381 228.253 51.4889C228.803 50.9398 229.693 50.9399 230.242 51.4889C232.017 53.2632 234.894 53.2632 236.668 51.4889L240.81 47.3467C242.584 45.5725 242.584 42.6959 240.81 40.9217C239.035 39.1478 236.159 39.1477 234.385 40.9217L231.639 43.6677C231.09 44.217 230.199 44.2169 229.65 43.6677C229.101 43.1185 229.101 42.228 229.65 41.6787L232.396 38.9327C235.269 36.0602 239.926 36.0603 242.799 38.9327C245.671 41.8054 245.672 46.463 242.799 49.3357Z" fill="black"/>
<path d="M177.607 121.847C180.464 121.494 184.937 122.308 184.937 122.308C184.937 122.308 185.276 123.06 185.453 120.828C185.666 118.155 183.847 115.275 185.453 114.638C186.516 114.216 187.443 114.763 188.563 116.373C189.634 117.913 190.065 119.663 189.913 121.582C188.586 134.582 185.338 134.918 182.103 137.183C179.368 139.098 178.43 138.648 177.126 138.648L178.688 135.869C178.966 135.115 175.672 133.638 173.781 133.712C171.247 133.81 169.889 133.192 169.966 132.22C170.043 131.248 171.609 130.553 173.728 130.229C175.719 129.924 178.711 130.198 180.313 131.059C179.418 130.32 176.181 130.029 174.077 129.986C172.226 129.948 169.885 129.748 170.259 128.539C170.558 127.568 172.127 126.624 174.942 126.191C175.842 126.052 176.794 126.031 177.699 126.071C177.314 126.043 176.914 126.016 176.503 125.99C174.035 125.835 171.643 125.593 171.995 124.394C172.278 123.435 174.475 122.234 177.607 121.847Z" fill="#BCC7F9"/>
<path d="M173.531 125.706C174.585 125.533 176.292 125.534 177.982 125.646C179.677 125.758 181.421 125.985 182.556 126.289L182.304 126.989C181.26 126.71 179.592 126.487 177.922 126.377C176.247 126.267 174.636 126.274 173.699 126.427L173.531 125.706Z" fill="#7B8ED4"/>
<path d="M148.607 124.909C147.552 125.076 145.845 125.065 144.156 124.945C142.461 124.823 140.719 124.586 139.585 124.276L139.842 123.578C140.883 123.862 142.55 124.094 144.22 124.214C145.894 124.334 147.506 124.336 148.443 124.187L148.607 124.909Z" fill="#7B8ED4"/>
<path d="M172.776 129.8C173.702 129.659 175.254 129.741 176.769 129.913C178.296 130.086 179.86 130.36 180.835 130.632L180.705 130.98L180.573 131.33C179.669 131.077 178.162 130.811 176.661 130.64C175.147 130.468 173.715 130.403 172.934 130.522L172.776 129.8Z" fill="#7B8ED4"/>
<path d="M91.875 65.375L95.375 58.0938C97.175 64.2937 104.375 73.625 110.75 76.4375L102.5 85C95.0625 80.375 91.875 65.375 91.875 65.375Z" fill="#4C6EE7"/>
<path d="M118.625 84C121.751 77.875 117.625 64.8125 117.625 64.8125C116.438 70.875 112.875 75.125 111.813 76.3125L118.625 84Z" fill="#4C6EE7"/>
</g>
<defs>
<radialGradient id="paint0_radial_4418_38721" cx="0" cy="0" r="1" gradientUnits="userSpaceOnUse" gradientTransform="translate(150 179.999) rotate(-90) scale(134.999 286.219)">
<stop offset="0.197115" stop-color="#DFEBFF"/>
<stop offset="1" stop-color="#F8FAFF"/>
</radialGradient>
<linearGradient id="paint1_linear_4418_38721" x1="97.4616" y1="42.1075" x2="116.339" y2="65.0169" gradientUnits="userSpaceOnUse">
<stop stop-color="#C8D2FF"/>
<stop offset="1" stop-color="#B3BEF4"/>
</linearGradient>
<linearGradient id="paint2_linear_4418_38721" x1="91.186" y1="97.5725" x2="153.338" y2="180.001" gradientUnits="userSpaceOnUse">
<stop stop-color="#1946E3"/>
<stop offset="1" stop-color="#0E277D"/>
</linearGradient>
<linearGradient id="paint3_linear_4418_38721" x1="91.9789" y1="131.772" x2="67.0265" y2="158.313" gradientUnits="userSpaceOnUse">
<stop stop-opacity="0"/>
<stop offset="1"/>
</linearGradient>
<clipPath id="clip0_4418_38721">
<rect width="300" height="180" fill="white"/>
</clipPath>
</defs>
</svg>
