<svg width="340" height="300" viewBox="0 0 340 300" fill="none" xmlns="http://www.w3.org/2000/svg">
<g clip-path="url(#clip0_4788_41863)">
<rect width="340" height="300" fill="white"/>
<path d="M-0.105469 198.801C-0.105469 192.173 5.26711 186.801 11.8945 186.801H169.38H328C334.627 186.801 340 192.173 340 198.801V288C340 294.627 334.627 300 328 300H11.8945C5.26711 300 -0.105469 294.627 -0.105469 288V198.801Z" fill="url(#paint0_radial_4788_41863)"/>
<rect x="208.074" y="78.9492" width="56.4966" height="56.4966" transform="rotate(135 208.074 78.9492)" fill="#A8E8BD"/>
<path d="M170.257 76.2207C170.257 75.4672 169.642 74.8564 168.883 74.8564H168.196C164.023 74.8564 160.641 78.2158 160.641 82.3599C160.641 86.5039 164.023 89.8633 168.196 89.8633H176.991C181.164 89.8633 184.547 86.5039 184.547 82.3599C184.547 78.9616 182.272 76.0909 179.152 75.1678C178.378 74.9389 177.678 75.578 177.678 76.3798V76.4503C177.678 77.1292 178.192 77.6852 178.824 77.9443C180.57 78.66 181.799 80.3674 181.799 82.3599C181.799 84.997 179.646 87.1348 176.991 87.1348H168.196C165.541 87.1348 163.388 84.997 163.388 82.3599C163.388 79.7228 165.541 77.585 168.196 77.585H168.883C169.642 77.585 170.257 76.9742 170.257 76.2207Z" fill="black"/>
<path d="M168.057 68.0352C172.23 68.0352 175.613 71.3945 175.613 75.5386C175.613 79.6826 172.23 83.042 168.057 83.042H167.37C166.612 83.042 165.997 82.4312 165.997 81.6777C165.997 80.9243 166.612 80.3135 167.37 80.3135H168.057C170.713 80.3135 172.866 78.1757 172.866 75.5386C172.866 72.9015 170.713 70.7637 168.057 70.7637H159.263C156.607 70.7637 154.455 72.9015 154.455 75.5386C154.455 77.5311 155.684 79.2384 157.43 79.9541C158.062 80.2131 158.576 80.7693 158.576 81.4481V81.5187C158.576 82.3204 157.876 82.9596 157.102 82.7307C153.982 81.8075 151.707 78.9368 151.707 75.5386C151.707 71.3945 155.09 68.0352 159.263 68.0352H168.057Z" fill="black"/>
<path d="M215.085 91.0039L216.526 94.1734L219.695 95.6143L216.526 97.0552L215.085 100.225L213.644 97.0552L210.475 95.6143L213.644 94.1734L215.085 91.0039Z" fill="#D2F5DE"/>
<path d="M223.072 69.7251L226.007 76.1817L232.464 79.1171L226.007 82.0525L223.072 88.5091L220.136 82.0525L213.68 79.1171L220.136 76.1817L223.072 69.7251Z" fill="#D2F5DE"/>
<path d="M217.779 69.186L219.061 66.3676L221.879 65.0863L219.061 63.805L217.779 60.9866L216.498 63.805L213.68 65.0863L216.498 66.3676L217.779 69.186Z" fill="#D2F5DE"/>
<path d="M123.019 89.9814L121.578 93.1509L118.408 94.5918L121.578 96.0328L123.019 99.2022L124.459 96.0328L127.629 94.5918L124.459 93.1509L123.019 89.9814Z" fill="#D2F5DE"/>
<path d="M121.769 74.4302L124.258 68.9552L129.733 66.4661L124.258 63.977L121.769 58.5021L119.28 63.977L113.805 66.4661L119.28 68.9552L121.769 74.4302Z" fill="#D2F5DE"/>
<path d="M113.807 75.0732L115.477 78.7447L119.148 80.4139L115.477 82.0831L113.807 85.7545L112.138 82.0831L108.467 80.4139L112.138 78.7447L113.807 75.0732Z" fill="#D2F5DE"/>
<path d="M221.434 193.481C206.28 209.817 207.238 235.344 223.573 250.498L225.542 248.376C210.378 234.309 209.489 210.613 223.555 195.45L221.434 193.481Z" fill="#005BAC"/>
<path d="M290.568 206.707C287.669 184.614 267.408 169.056 245.316 171.955L245.693 174.825C266.2 172.133 285.007 186.576 287.699 207.083L290.568 206.707Z" fill="#005BAC"/>
<path d="M242.012 188.719C231.944 208.596 239.896 232.872 259.773 242.94L261.081 240.358C242.629 231.013 235.248 208.478 244.594 190.026L242.012 188.719Z" fill="#005BAC"/>
<ellipse cx="287.447" cy="206.983" rx="3.23698" ry="4.09917" transform="rotate(-1.98108 287.447 206.983)" fill="#005BAC"/>
<path d="M122.293 192.887C139.015 207.612 140.635 233.106 125.909 249.829L123.737 247.916C137.406 232.393 135.903 208.728 120.38 195.059L122.293 192.887Z" fill="#0E2B9C"/>
<path d="M51.7266 209.875C49.8081 187.677 66.2491 168.125 88.448 166.207L88.6972 169.09C68.0907 170.871 52.8291 189.02 54.6099 209.626L51.7266 209.875Z" fill="#0E2B9C"/>
<path d="M101.463 192.718C113.483 211.479 108.017 236.433 89.2559 248.453L87.6947 246.016C105.11 234.859 110.184 211.695 99.026 194.279L101.463 192.718Z" fill="#0E2B9C"/>
<path d="M168.413 110.072C168.413 131.925 182.908 148.375 198.312 152.502L199.061 149.707C184.962 145.929 171.308 130.656 171.308 110.071L168.413 110.072Z" fill="#005BAC"/>
<path d="M170.136 99.1646C172.053 99.1646 173.607 101.59 173.607 104.713C173.607 108.948 170.737 111.617 169.259 111.617C168.799 111.617 168.426 111.144 168.426 110.56V101.335C168.426 100.136 169.191 99.1646 170.136 99.1646Z" fill="#005BAC"/>
<path d="M168.534 110.068C168.534 131.921 154.039 148.371 138.635 152.498L137.886 149.703C151.986 145.925 165.639 130.652 165.639 110.067L168.534 110.068Z" fill="#0E2B9C"/>
<path d="M166.714 99.0382C164.797 99.0382 163.243 101.464 163.243 104.586C163.243 108.822 166.112 111.491 167.591 111.491C168.051 111.491 168.424 111.017 168.424 110.433V101.209C168.424 100.01 167.658 99.0382 166.714 99.0382Z" fill="#0E2B9C"/>
<ellipse cx="3.23698" cy="4.09917" rx="3.23698" ry="4.09917" transform="matrix(0.965926 -0.258819 -0.258819 -0.965926 52.9707 214.672)" fill="#0E2B9C"/>
<ellipse cx="38.1303" cy="46.0155" rx="38.1303" ry="46.0155" transform="matrix(-0.866025 -0.5 -0.5 0.866025 284.965 147.752)" fill="#005BAC"/>
<path d="M247.439 125.006L254.846 130.601L202.879 206.431L194.793 200.211L247.439 125.006Z" fill="#005BAC"/>
<ellipse cx="38.1303" cy="46.0155" rx="38.1303" ry="46.0155" transform="matrix(-0.866025 -0.5 -0.5 0.866025 278.039 142.536)" fill="url(#paint1_linear_4788_41863)"/>
<path opacity="0.5" d="M255.865 182.023C268.75 159.707 264.337 132.666 245.498 121.789L228.304 111.862L227.339 113.533L244.534 123.46C262.169 133.643 266.724 159.357 254.194 181.058C241.671 202.75 217.141 211.664 199.507 201.503L175.194 185.764L174.146 187.383L198.476 203.136L198.497 203.149L198.518 203.161C217.357 214.038 242.981 204.339 255.865 182.023Z" fill="url(#paint2_linear_4788_41863)"/>
<path d="M235.396 141.548C234.743 141.643 233.94 141.997 233.015 142.677C231.532 143.684 214.783 155.385 201.136 164.855C200.061 165.658 199.367 167.032 199.354 168.325C199.34 169.617 200.129 170.474 201.054 170.515C201.857 170.556 209.885 170.869 209.885 170.869L211.653 169.019L228.198 152.202L214.565 171.821L219.164 177.617C219.422 177.903 225.096 185.155 225.491 185.577C226.157 186.284 227.205 187.754 227.749 187.672C228.688 187.536 229.654 185.795 230.076 183.318C230.511 181.005 233.396 164.991 237.015 143.725C237.301 142.201 236.648 141.358 235.396 141.534" fill="white"/>
<ellipse cx="109.102" cy="168.487" rx="38.1303" ry="46.0155" transform="rotate(-30 109.102 168.487)" fill="#1235BB"/>
<path d="M90.8193 124.762L83.4116 130.356L135.379 206.186L143.465 199.966L90.8193 124.762Z" fill="#0E2B9C"/>
<ellipse cx="116.032" cy="163.27" rx="38.1303" ry="46.0155" transform="rotate(-30 116.032 163.27)" fill="url(#paint3_linear_4788_41863)"/>
<path d="M120.836 140.945C115.8 141.646 113.113 146.864 114.839 152.575C116.566 158.286 122.03 162.349 127.066 161.635C132.09 160.934 134.776 155.729 133.063 150.018C131.35 144.307 125.859 140.244 120.849 140.945" fill="white"/>
<path d="M105.22 165.595C100.184 166.296 97.5098 171.514 99.2231 177.225C100.936 182.936 106.414 186.999 111.437 186.285C116.46 185.571 119.147 180.379 117.434 174.668C115.72 168.957 110.243 164.881 105.22 165.595Z" fill="white"/>
<path d="M107.544 142.638L89.8528 145.13C89.7101 145.156 89.6322 145.312 89.6841 145.481L89.8269 145.675L113.268 162.302C113.333 162.354 113.411 162.367 113.476 162.367C113.554 162.367 113.606 162.315 113.645 162.238V162.03L107.908 142.911C107.856 142.742 107.687 142.625 107.544 142.638Z" fill="white"/>
<path d="M118.798 164.857C118.798 164.857 118.694 164.896 118.655 164.948L118.629 165.22L124.379 184.339C124.431 184.508 124.6 184.625 124.742 184.612L142.421 182.133C142.576 182.107 142.654 181.964 142.602 181.782L142.46 181.588L119.031 164.948C118.953 164.87 118.863 164.844 118.785 164.857" fill="white"/>
<ellipse opacity="0.5" cx="109.102" cy="269.475" rx="25.2716" ry="9.04755" fill="#E7E7E7"/>
<ellipse opacity="0.5" cx="228.932" cy="269.475" rx="25.2716" ry="9.04755" fill="#E7E7E7"/>
<path opacity="0.5" d="M82.8787 182.005C69.9944 159.689 74.407 132.649 93.2458 121.772L110.44 111.845L111.405 113.516L94.2105 123.443C76.5747 133.625 72.0205 159.339 84.5496 181.041C97.0733 202.732 121.603 211.646 139.237 201.486L163.55 185.746L164.599 187.365L140.268 203.119L140.247 203.132L140.226 203.144C121.387 214.02 95.7631 204.322 82.8787 182.005Z" fill="url(#paint4_linear_4788_41863)"/>
</g>
<defs>
<radialGradient id="paint0_radial_4788_41863" cx="0" cy="0" r="1" gradientUnits="userSpaceOnUse" gradientTransform="translate(169.947 300) rotate(-90) scale(107.999 324.482)">
<stop offset="0.206731" stop-color="#F8F8F8"/>
<stop offset="1" stop-color="white"/>
</radialGradient>
<linearGradient id="paint1_linear_4788_41863" x1="1.73774" y1="61.1163" x2="108.656" y2="18.7036" gradientUnits="userSpaceOnUse">
<stop stop-color="#068AFF"/>
<stop offset="1" stop-color="#5DB3FF"/>
</linearGradient>
<linearGradient id="paint2_linear_4788_41863" x1="196.564" y1="215.73" x2="242.695" y2="135.829" gradientUnits="userSpaceOnUse">
<stop stop-color="white" stop-opacity="0.25"/>
<stop offset="0.682692" stop-color="white" stop-opacity="0"/>
</linearGradient>
<linearGradient id="paint3_linear_4788_41863" x1="82.1854" y1="179.899" x2="187.458" y2="136.478" gradientUnits="userSpaceOnUse">
<stop stop-color="#194AF9"/>
<stop offset="1" stop-color="#597CFB"/>
</linearGradient>
<linearGradient id="paint4_linear_4788_41863" x1="142.18" y1="215.712" x2="96.0496" y2="135.811" gradientUnits="userSpaceOnUse">
<stop stop-color="white" stop-opacity="0.25"/>
<stop offset="0.682692" stop-color="white" stop-opacity="0"/>
</linearGradient>
<clipPath id="clip0_4788_41863">
<rect width="340" height="300" fill="white"/>
</clipPath>
</defs>
</svg>
