<svg width="119" height="23" viewBox="0 0 119 23" fill="none" xmlns="http://www.w3.org/2000/svg">
<path d="M6.36292 6.38318C7.14607 7.50506 7.69562 8.30683 8.01156 8.7885H8.07192C8.50783 8.1221 9.05328 7.32444 9.70826 6.39552L11.8856 3.30472C11.929 3.244 11.9862 3.19459 12.0525 3.16062C12.1188 3.12666 12.1923 3.10914 12.2667 3.10952H14.5458C14.6298 3.10759 14.7126 3.12917 14.7851 3.17184C14.8576 3.2145 14.9168 3.27656 14.9561 3.35108C14.9954 3.4256 15.0133 3.50964 15.0078 3.59378C15.0022 3.67792 14.9734 3.75886 14.9247 3.82752L9.98434 10.6789C9.92865 10.7556 9.89864 10.8481 9.89864 10.9431C9.89864 11.038 9.92865 11.1305 9.98434 11.2073L15.1594 18.32C15.2083 18.3886 15.2372 18.4695 15.2429 18.5537C15.2487 18.6378 15.231 18.7219 15.192 18.7966C15.1529 18.8712 15.094 18.9336 15.0217 18.9766C14.9495 19.0196 14.8667 19.0417 14.7827 19.0403H12.554C12.4797 19.0404 12.4066 19.0227 12.3405 18.9888C12.2744 18.9548 12.2173 18.9056 12.174 18.8451L9.77868 15.4794C9.15648 14.6066 8.58272 13.7813 8.05739 13.0034H8.00933C7.45941 13.8134 6.88564 14.6388 6.28803 15.4794L3.89275 18.8451C3.84941 18.9056 3.79234 18.9548 3.72625 18.9888C3.66016 19.0227 3.58696 19.0404 3.51273 19.0403H1.2851C1.20093 19.0421 1.11792 19.0203 1.04541 18.9774C0.972895 18.9344 0.913751 18.872 0.87462 18.7972C0.835489 18.7224 0.817922 18.6381 0.823895 18.5538C0.829867 18.4695 0.859142 18.3885 0.90843 18.32L6.08349 11.2073C6.13918 11.1305 6.16919 11.038 6.16919 10.9431C6.16919 10.8481 6.13918 10.7556 6.08349 10.6789L1.14315 3.82752C1.09438 3.75886 1.06561 3.67792 1.06006 3.59378C1.05451 3.50964 1.0724 3.4256 1.11172 3.35108C1.15105 3.27656 1.21026 3.2145 1.28273 3.17184C1.3552 3.12917 1.43807 3.10759 1.52206 3.10952H3.8011C3.87551 3.10932 3.9489 3.12693 4.01518 3.16087C4.08146 3.19482 4.13873 3.24413 4.18224 3.30472L6.36292 6.38318Z" fill="#0D0E0F"/>
<path d="M34.796 7.89554C34.796 9.00696 34.483 9.94971 33.8571 10.7238C33.2312 11.4979 32.2625 12.0712 30.951 12.4437V12.4908L35.2442 18.3178C35.2936 18.3864 35.323 18.4674 35.3292 18.5518C35.3353 18.6362 35.3179 18.7206 35.2789 18.7956C35.2399 18.8706 35.1809 18.9333 35.1084 18.9765C35.0359 19.0197 34.9529 19.0418 34.8686 19.0403H32.4543C32.3804 19.0404 32.3075 19.0228 32.2416 18.9891C32.1757 18.9554 32.1188 18.9064 32.0754 18.8463L27.9399 13.0663C27.8967 13.006 27.8397 12.957 27.7738 12.9232C27.7079 12.8895 27.6349 12.872 27.561 12.8722H26.2286C26.107 12.871 25.9898 12.9183 25.9029 13.0037C25.8159 13.0891 25.7663 13.2056 25.7648 13.3277V18.5849C25.7633 18.707 25.7136 18.8235 25.6267 18.9089C25.5397 18.9943 25.4226 19.0415 25.3009 19.0403H23.26C23.1383 19.0415 23.0212 18.9943 22.9342 18.9089C22.8472 18.8235 22.7976 18.707 22.7961 18.5849V3.56395C22.7968 3.50354 22.8094 3.44387 22.8331 3.38834C22.8568 3.33282 22.8912 3.28252 22.9343 3.24033C22.9773 3.19814 23.0283 3.16487 23.0842 3.14244C23.14 3.12001 23.1998 3.10884 23.26 3.10958H27.7309C28.4927 3.10589 29.2539 3.1516 30.0099 3.24645C30.6251 3.31695 31.2307 3.45463 31.8161 3.65706C32.7692 4.01382 33.5046 4.54372 34.0225 5.24677C34.5404 5.94982 34.7982 6.83274 34.796 7.89554ZM27.2312 10.4321C27.8085 10.4375 28.3856 10.4075 28.9592 10.3424C29.3658 10.2979 29.7662 10.208 30.153 10.0742C30.7491 9.84986 31.1634 9.54621 31.3959 9.16327C31.6307 8.76131 31.7503 8.30198 31.7412 7.83608C31.7493 7.43966 31.6553 7.04786 31.4685 6.69849C31.286 6.3694 30.9767 6.1095 30.5408 5.91878C30.2 5.77643 29.8411 5.68241 29.4745 5.63943C28.9477 5.5739 28.4171 5.54392 27.8862 5.54968H26.2286C26.107 5.54848 25.9898 5.59577 25.9029 5.68116C25.8159 5.76655 25.7663 5.88307 25.7648 6.00517V9.97664C25.7663 10.0987 25.8159 10.2153 25.9029 10.3006C25.9898 10.386 26.107 10.4333 26.2286 10.4321H27.2312Z" fill="#0D0E0F"/>
<path d="M46.3573 16.5989H53.4068C53.467 16.5982 53.5269 16.6094 53.5828 16.6319C53.6388 16.6544 53.6898 16.6878 53.7328 16.7301C53.7759 16.7724 53.8103 16.8228 53.8339 16.8785C53.8576 16.9341 53.87 16.9939 53.8706 17.0544V18.5847C53.87 18.6452 53.8576 18.705 53.8339 18.7606C53.8103 18.8163 53.7759 18.8667 53.7328 18.909C53.6898 18.9513 53.6388 18.9847 53.5828 19.0072C53.5269 19.0297 53.467 19.0409 53.4068 19.0402H43.3875C43.3273 19.0408 43.2676 19.0294 43.2118 19.0069C43.1559 18.9843 43.1051 18.9509 43.0621 18.9086C43.0192 18.8663 42.9849 18.8159 42.9613 18.7604C42.9378 18.7048 42.9253 18.6451 42.9248 18.5847V3.56377C42.9253 3.50342 42.9378 3.44377 42.9614 3.38825C42.9849 3.33273 43.0192 3.28243 43.0622 3.24022C43.1052 3.19802 43.156 3.16474 43.2119 3.14229C43.2677 3.11984 43.3274 3.10867 43.3875 3.10941H52.9708C53.031 3.10867 53.0908 3.11983 53.1466 3.14227C53.2025 3.1647 53.2535 3.19796 53.2965 3.24016C53.3396 3.28235 53.374 3.33264 53.3977 3.38817C53.4214 3.4437 53.434 3.50337 53.4347 3.56377V5.09402C53.4341 5.15452 53.4216 5.21432 53.398 5.26997C53.3744 5.32563 53.34 5.37605 53.2969 5.41837C53.2538 5.46068 53.2029 5.49404 53.1469 5.51654C53.091 5.53904 53.0311 5.55025 52.9708 5.54951H46.3573C46.2971 5.54892 46.2374 5.56023 46.1816 5.5828C46.1257 5.60537 46.0749 5.63875 46.0319 5.68105C45.989 5.72335 45.9547 5.77373 45.9311 5.82931C45.9076 5.88489 45.8951 5.94459 45.8945 6.00499V9.21358C45.895 9.27403 45.9073 9.3338 45.9308 9.38944C45.9544 9.44509 45.9886 9.49553 46.0316 9.53786C46.0746 9.58018 46.1255 9.61356 46.1814 9.63608C46.2373 9.6586 46.2971 9.66981 46.3573 9.66907H51.9045C51.9647 9.66847 52.0244 9.67979 52.0802 9.70236C52.1361 9.72493 52.1869 9.75831 52.2299 9.80061C52.2729 9.84291 52.3071 9.89328 52.3307 9.94887C52.3543 10.0044 52.3667 10.0641 52.3673 10.1246V11.6548C52.3667 11.7152 52.3543 11.7749 52.3307 11.8305C52.3071 11.8861 52.2729 11.9364 52.2299 11.9787C52.1869 12.021 52.1361 12.0544 52.0802 12.077C52.0244 12.0996 51.9647 12.1109 51.9045 12.1103H46.3573C46.2971 12.1097 46.2374 12.121 46.1816 12.1436C46.1257 12.1661 46.0749 12.1995 46.0319 12.2418C45.989 12.2841 45.9547 12.3345 45.9311 12.3901C45.9076 12.4457 45.8951 12.5054 45.8945 12.5658V16.1435C45.8951 16.2039 45.9076 16.2636 45.9311 16.3191C45.9547 16.3747 45.989 16.4251 46.0319 16.4674C46.0749 16.5097 46.1257 16.5431 46.1816 16.5657C46.2374 16.5882 46.2971 16.5995 46.3573 16.5989Z" fill="#0D0E0F"/>
<path d="M65.9406 6.38315C66.7237 7.50504 67.2733 8.30681 67.5892 8.78847H67.6496C68.0855 8.12208 68.6309 7.32442 69.2859 6.3955L71.4633 3.3047C71.5068 3.24411 71.564 3.1948 71.6303 3.16085C71.6966 3.1269 71.77 3.1093 71.8444 3.10949H74.1234C74.2074 3.10757 74.2903 3.12915 74.3628 3.17181C74.4352 3.21448 74.4945 3.27654 74.5338 3.35106C74.5731 3.42558 74.591 3.50961 74.5854 3.59376C74.5799 3.6779 74.5511 3.75883 74.5024 3.8275L69.562 10.6789C69.5063 10.7556 69.4763 10.8481 69.4763 10.9431C69.4763 11.038 69.5063 11.1305 69.562 11.2073L74.7371 18.32C74.7864 18.3885 74.8156 18.4695 74.8216 18.5538C74.8276 18.6381 74.81 18.7224 74.7709 18.7972C74.7318 18.872 74.6726 18.9344 74.6001 18.9773C74.5276 19.0203 74.4446 19.0421 74.3604 19.0403H72.1339C72.0597 19.0404 71.9865 19.0227 71.9204 18.9888C71.8543 18.9548 71.7972 18.9056 71.7539 18.8451L69.3586 15.4794C68.7364 14.6066 68.1626 13.7812 67.6373 13.0034H67.5892C67.0393 13.8134 66.4655 14.6387 65.8679 15.4794L63.4727 18.8451C63.4293 18.9056 63.3722 18.9548 63.3061 18.9888C63.2401 19.0227 63.1669 19.0404 63.0926 19.0403H60.865C60.781 19.0416 60.6982 19.0196 60.626 18.9766C60.5537 18.9335 60.4948 18.8712 60.4557 18.7965C60.4167 18.7219 60.3991 18.6378 60.4048 18.5536C60.4106 18.4695 60.4395 18.3886 60.4883 18.32L65.6634 11.2073C65.7191 11.1305 65.7491 11.038 65.7491 10.9431C65.7491 10.8481 65.7191 10.7556 65.6634 10.6789L60.723 3.8275C60.6743 3.75883 60.6455 3.6779 60.64 3.59376C60.6344 3.50961 60.6523 3.42558 60.6916 3.35106C60.7309 3.27654 60.7902 3.21448 60.8626 3.17181C60.9351 3.12915 61.018 3.10757 61.102 3.10949H63.381C63.4554 3.1093 63.5288 3.1269 63.5951 3.16085C63.6614 3.1948 63.7186 3.24411 63.7621 3.3047L65.9406 6.38315Z" fill="#0D0E0F"/>
<path d="M82.8228 3.07813C82.8228 1.97356 83.7182 1.07812 84.8228 1.07812H115.823C116.927 1.07812 117.823 1.97356 117.823 3.07812V19.0781C117.823 20.1827 116.927 21.0781 115.823 21.0781H84.8228C83.7182 21.0781 82.8228 20.1827 82.8228 19.0781V3.07813Z" fill="#194AF9"/>
<path d="M88.6196 15.0795L90.1892 5.625H94.0948C94.8026 5.625 95.392 5.76196 95.8629 6.03587C96.3338 6.30978 96.6677 6.69295 96.8647 7.18537C97.0616 7.67779 97.1063 8.2487 96.9985 8.89808C96.8939 9.55362 96.6585 10.1245 96.2922 10.6108C95.9291 11.0971 95.4612 11.4741 94.8888 11.7418C94.3164 12.0096 93.6654 12.1435 92.936 12.1435H90.5309L90.8309 10.343H92.816C93.1638 10.343 93.4639 10.283 93.7162 10.163C93.9717 10.043 94.1763 9.87524 94.3302 9.6598C94.4841 9.44437 94.5857 9.19046 94.6349 8.89808C94.6811 8.60571 94.6626 8.35334 94.5795 8.14098C94.4964 7.92554 94.3471 7.75935 94.1317 7.6424C93.9193 7.52545 93.6424 7.46697 93.3007 7.46697H92.1743L90.9048 15.0795H88.6196Z" fill="white"/>
<path d="M98.814 15.1996C98.3646 15.1996 97.9768 15.1242 97.6506 14.9734C97.3275 14.8195 97.0905 14.5871 96.9397 14.2763C96.7919 13.9654 96.7566 13.5777 96.8335 13.1129C96.9012 12.719 97.0258 12.3881 97.2074 12.1204C97.3921 11.8496 97.6183 11.6295 97.8861 11.4602C98.1569 11.291 98.4585 11.1617 98.7909 11.0724C99.1233 10.9832 99.471 10.9232 99.8342 10.8924C100.24 10.8555 100.57 10.8155 100.822 10.7724C101.078 10.7293 101.268 10.6693 101.395 10.5923C101.521 10.5123 101.598 10.4015 101.625 10.2599V10.2369C101.662 9.99988 101.612 9.81676 101.473 9.6875C101.335 9.55824 101.127 9.49361 100.85 9.49361C100.554 9.49361 100.302 9.55824 100.093 9.6875C99.8834 9.81676 99.7373 9.99527 99.6542 10.223L97.586 10.1491C97.7152 9.71828 97.9368 9.33357 98.2508 8.99503C98.5647 8.65341 98.9632 8.38565 99.4464 8.19176C99.9327 7.99479 100.494 7.89631 101.131 7.89631C101.581 7.89631 101.987 7.95017 102.35 8.05788C102.713 8.16252 103.02 8.31641 103.269 8.51953C103.521 8.71958 103.701 8.96579 103.809 9.25817C103.917 9.55054 103.94 9.88447 103.878 10.2599L103.07 15.0795H100.947L101.113 14.0916H101.058C100.891 14.3317 100.696 14.5348 100.471 14.701C100.25 14.8672 100 14.9918 99.7234 15.0749C99.4464 15.158 99.1433 15.1996 98.814 15.1996ZM99.765 13.7223C100.002 13.7223 100.227 13.6731 100.439 13.5746C100.651 13.4761 100.83 13.3407 100.974 13.1683C101.122 12.9929 101.216 12.7898 101.256 12.5589L101.362 11.8849C101.298 11.9188 101.216 11.9496 101.118 11.9773C101.019 12.005 100.914 12.0311 100.804 12.0558C100.693 12.0773 100.579 12.0988 100.462 12.1204C100.348 12.1388 100.239 12.1558 100.134 12.1712C99.9127 12.205 99.7203 12.2573 99.5572 12.3281C99.3941 12.3989 99.2633 12.4912 99.1648 12.6051C99.0694 12.7159 99.0109 12.8482 98.9894 13.0021C98.9525 13.233 99.0063 13.4115 99.151 13.5376C99.2956 13.6607 99.5003 13.7223 99.765 13.7223Z" fill="white"/>
<path d="M105.143 17.7386C104.872 17.7386 104.62 17.7171 104.386 17.674C104.155 17.634 103.958 17.5801 103.795 17.5124L104.571 15.8736C104.777 15.9474 104.966 15.989 105.139 15.9982C105.314 16.0105 105.471 15.9813 105.609 15.9105C105.751 15.8428 105.874 15.7212 105.979 15.5458L106.108 15.3288L104.811 7.98864H107.091L107.553 13.0529H107.627L109.797 7.98864H112.257L108.301 15.7582C108.101 16.146 107.859 16.4891 107.576 16.7876C107.293 17.0862 106.951 17.3185 106.551 17.4847C106.154 17.654 105.685 17.7386 105.143 17.7386Z" fill="white"/>
</svg>
