<svg width="118" height="22" viewBox="0 0 118 22" fill="none" xmlns="http://www.w3.org/2000/svg">
<path d="M5.54016 6.30505C6.32332 7.42694 6.87286 8.22871 7.18881 8.71037H7.24917C7.68508 8.04397 8.23052 7.24631 8.88551 6.31739L11.0628 3.2266C11.1062 3.16587 11.1635 3.11646 11.2298 3.0825C11.2961 3.04854 11.3695 3.03101 11.444 3.03139H13.723C13.807 3.02947 13.8899 3.05105 13.9623 3.09371C14.0348 3.13637 14.094 3.19844 14.1334 3.27296C14.1727 3.34748 14.1906 3.43151 14.185 3.51566C14.1795 3.5998 14.1507 3.68073 14.1019 3.7494L9.16159 10.6007C9.10589 10.6775 9.07589 10.77 9.07589 10.865C9.07589 10.9599 9.10589 11.0524 9.16159 11.1292L14.3366 18.2419C14.3855 18.3105 14.4144 18.3914 14.4202 18.4755C14.4259 18.5597 14.4083 18.6438 14.3692 18.7184C14.3302 18.7931 14.2712 18.8554 14.199 18.8985C14.1267 18.9415 14.044 18.9635 13.96 18.9622H11.7312C11.657 18.9623 11.5838 18.9446 11.5177 18.9107C11.4516 18.8767 11.3945 18.8275 11.3512 18.767L8.95593 15.4013C8.33373 14.5285 7.75996 13.7031 7.23463 12.9253H7.18657C6.63665 13.7353 6.06289 14.5606 5.46528 15.4013L3.07 18.767C3.02666 18.8275 2.96958 18.8767 2.9035 18.9107C2.83741 18.9446 2.76421 18.9623 2.68997 18.9622H0.46235C0.378176 18.964 0.295167 18.9422 0.222654 18.8992C0.150141 18.8563 0.0909971 18.7939 0.051866 18.7191C0.0127348 18.6443 -0.00483214 18.56 0.0011407 18.4757C0.00711353 18.3914 0.0363884 18.3104 0.085676 18.2419L5.26073 11.1292C5.31643 11.0524 5.34644 10.9599 5.34644 10.865C5.34644 10.77 5.31643 10.6775 5.26073 10.6007L0.320399 3.7494C0.271627 3.68073 0.242855 3.5998 0.237304 3.51566C0.231754 3.43151 0.249642 3.34748 0.288968 3.27296C0.328293 3.19844 0.387504 3.13637 0.459974 3.09371C0.532444 3.05105 0.615313 3.02947 0.699307 3.03139H2.97834C3.05276 3.0312 3.12614 3.0488 3.19243 3.08275C3.25871 3.1167 3.31598 3.16601 3.35949 3.2266L5.54016 6.30505Z" fill="#0D0E0F"/>
<path d="M33.9732 7.81742C33.9732 8.92883 33.6603 9.87159 33.0343 10.6457C32.4084 11.4198 31.4397 11.9931 30.1283 12.3655V12.4127L34.4214 18.2397C34.4709 18.3083 34.5003 18.3893 34.5064 18.4737C34.5126 18.558 34.4952 18.6425 34.4562 18.7175C34.4172 18.7925 34.3581 18.8551 34.2857 18.8984C34.2132 18.9416 34.1302 18.9637 34.0459 18.9622H31.6316C31.5576 18.9623 31.4847 18.9447 31.4189 18.911C31.353 18.8772 31.296 18.8283 31.2527 18.7681L27.1171 12.9882C27.0739 12.9279 27.017 12.8789 26.9511 12.8451C26.8852 12.8113 26.8122 12.7939 26.7382 12.7941H25.4059C25.2842 12.7929 25.1671 12.8402 25.0801 12.9256C24.9932 13.011 24.9435 13.1275 24.942 13.2496V18.5067C24.9406 18.6288 24.8909 18.7454 24.8039 18.8307C24.717 18.9161 24.5998 18.9634 24.4782 18.9622H22.4372C22.3156 18.9634 22.1984 18.9161 22.1115 18.8307C22.0245 18.7454 21.9748 18.6288 21.9734 18.5067V3.48582C21.9741 3.42542 21.9867 3.36574 22.0104 3.31022C22.0341 3.25469 22.0684 3.2044 22.1115 3.1622C22.1546 3.12001 22.2055 3.08675 22.2614 3.06431C22.3173 3.04188 22.377 3.03072 22.4372 3.03146H26.9081C27.6699 3.02776 28.4312 3.07348 29.1871 3.16833C29.8023 3.23882 30.408 3.37651 30.9934 3.57894C31.9464 3.9357 32.6819 4.4656 33.1998 5.16865C33.7176 5.87169 33.9755 6.75462 33.9732 7.81742ZM26.4085 10.354C26.9858 10.3594 27.5628 10.3294 28.1365 10.2642C28.5431 10.2198 28.9435 10.1298 29.3302 9.99612C29.9263 9.77174 30.3406 9.46808 30.5731 9.08515C30.808 8.68318 30.9275 8.22386 30.9185 7.75796C30.9265 7.36154 30.8326 6.96973 30.6458 6.62036C30.4632 6.29128 30.154 6.03138 29.7181 5.84066C29.3773 5.69831 29.0184 5.60429 28.6517 5.56131C28.1249 5.49578 27.5943 5.46579 27.0635 5.47156H25.4059C25.2842 5.47036 25.1671 5.51764 25.0801 5.60303C24.9932 5.68842 24.9435 5.80494 24.942 5.92704V9.89851C24.9435 10.0206 24.9932 10.1371 25.0801 10.2225C25.1671 10.3079 25.2842 10.3552 25.4059 10.354H26.4085Z" fill="#0D0E0F"/>
<path d="M45.5345 16.5208H52.584C52.6443 16.5201 52.7041 16.5313 52.7601 16.5538C52.816 16.5763 52.867 16.6097 52.9101 16.652C52.9532 16.6943 52.9875 16.7447 53.0112 16.8004C53.0348 16.856 53.0473 16.9158 53.0479 16.9763V18.5066C53.0473 18.5671 53.0348 18.6268 53.0112 18.6825C52.9875 18.7382 52.9532 18.7886 52.9101 18.8309C52.867 18.8732 52.816 18.9066 52.7601 18.9291C52.7041 18.9516 52.6443 18.9628 52.584 18.962H42.5647C42.5046 18.9626 42.4448 18.9513 42.389 18.9288C42.3332 18.9062 42.2823 18.8728 42.2394 18.8305C42.1964 18.7882 42.1622 18.7378 42.1386 18.6822C42.115 18.6267 42.1026 18.567 42.102 18.5066V3.48565C42.1026 3.42529 42.115 3.36565 42.1386 3.31013C42.1622 3.25461 42.1965 3.2043 42.2394 3.1621C42.2824 3.11989 42.3333 3.08661 42.3891 3.06416C42.4449 3.04172 42.5046 3.03054 42.5647 3.03128H52.1481C52.2083 3.03054 52.268 3.04171 52.3239 3.06414C52.3798 3.08658 52.4307 3.11984 52.4738 3.16203C52.5168 3.20422 52.5512 3.25452 52.5749 3.31005C52.5986 3.36557 52.6112 3.42524 52.6119 3.48565V5.0159C52.6114 5.0764 52.5989 5.13619 52.5752 5.19185C52.5516 5.2475 52.5173 5.29793 52.4742 5.34024C52.4311 5.38255 52.3801 5.41591 52.3242 5.43842C52.2682 5.46092 52.2084 5.47212 52.1481 5.47138H45.5345C45.4743 5.47079 45.4146 5.4821 45.3588 5.50467C45.303 5.52724 45.2521 5.56063 45.2092 5.60293C45.1662 5.64522 45.132 5.6956 45.1084 5.75118C45.0848 5.80676 45.0724 5.86646 45.0718 5.92687V9.13546C45.0722 9.19591 45.0846 9.25567 45.1081 9.31132C45.1316 9.36697 45.1658 9.41741 45.2088 9.45973C45.2518 9.50206 45.3027 9.53544 45.3586 9.55795C45.4145 9.58047 45.4743 9.59168 45.5345 9.59094H51.0818C51.142 9.59035 51.2017 9.60166 51.2575 9.62423C51.3133 9.6468 51.3642 9.68019 51.4071 9.72249C51.4501 9.76478 51.4844 9.81516 51.5079 9.87074C51.5315 9.92632 51.5439 9.98602 51.5445 10.0464V11.5767C51.5439 11.6371 51.5315 11.6968 51.5079 11.7524C51.4844 11.8079 51.4501 11.8583 51.4071 11.9006C51.3642 11.9429 51.3133 11.9763 51.2575 11.9989C51.2017 12.0214 51.142 12.0328 51.0818 12.0322H45.5345C45.4743 12.0316 45.4146 12.0429 45.3588 12.0655C45.303 12.088 45.2521 12.1214 45.2092 12.1637C45.1662 12.206 45.132 12.2564 45.1084 12.312C45.0848 12.3675 45.0724 12.4272 45.0718 12.4876V16.0653C45.0724 16.1257 45.0848 16.1854 45.1084 16.241C45.132 16.2966 45.1662 16.347 45.2092 16.3893C45.2521 16.4316 45.303 16.465 45.3588 16.4875C45.4146 16.5101 45.4743 16.5214 45.5345 16.5208Z" fill="#0D0E0F"/>
<path d="M65.1178 6.30503C65.901 7.42691 66.4505 8.22869 66.7665 8.71035H66.8268C67.2627 8.04395 67.8082 7.24629 68.4632 6.31737L70.6405 3.22657C70.684 3.16598 70.7413 3.11667 70.8076 3.08273C70.8738 3.04878 70.9472 3.03117 71.0217 3.03137H73.3007C73.3847 3.02945 73.4676 3.05102 73.54 3.09369C73.6125 3.13635 73.6717 3.19842 73.711 3.27294C73.7504 3.34745 73.7682 3.43149 73.7627 3.51563C73.7571 3.59978 73.7284 3.68071 73.6796 3.74937L68.7393 10.6007C68.6836 10.6775 68.6536 10.77 68.6536 10.8649C68.6536 10.9599 68.6836 11.0524 68.7393 11.1291L73.9143 18.2419C73.9636 18.3104 73.9929 18.3913 73.9989 18.4756C74.0048 18.5599 73.9873 18.6442 73.9481 18.7191C73.909 18.7939 73.8499 18.8563 73.7773 18.8992C73.7048 18.9421 73.6218 18.9639 73.5377 18.9621H71.3111C71.2369 18.9622 71.1637 18.9446 71.0976 18.9106C71.0315 18.8767 70.9745 18.8274 70.9311 18.7669L68.5358 15.4013C67.9136 14.5284 67.3399 13.7031 66.8145 12.9253H66.7665C66.2166 13.7353 65.6428 14.5606 65.0452 15.4013L62.6499 18.7669C62.6066 18.8274 62.5495 18.8767 62.4834 18.9106C62.4173 18.9446 62.3441 18.9622 62.2699 18.9621H60.0422C59.9582 18.9635 59.8755 18.9415 59.8032 18.8984C59.731 18.8554 59.672 18.7931 59.633 18.7184C59.5939 18.6437 59.5763 18.5597 59.5821 18.4755C59.5878 18.3914 59.6167 18.3105 59.6656 18.2419L64.8406 11.1291C64.8963 11.0524 64.9263 10.9599 64.9263 10.8649C64.9263 10.77 64.8963 10.6775 64.8406 10.6007L59.9003 3.74937C59.8515 3.68071 59.8228 3.59978 59.8172 3.51563C59.8116 3.43149 59.8295 3.34745 59.8689 3.27294C59.9082 3.19842 59.9674 3.13635 60.0399 3.09369C60.1123 3.05102 60.1952 3.02945 60.2792 3.03137H62.5582C62.6327 3.03117 62.706 3.04878 62.7723 3.08273C62.8386 3.11667 62.8959 3.16598 62.9394 3.22657L65.1178 6.30503Z" fill="#0D0E0F"/>
<path d="M82 3C82 1.89543 82.8954 1 84 1H115C116.105 1 117 1.89543 117 3V19C117 20.1046 116.105 21 115 21H84C82.8954 21 82 20.1046 82 19V3Z" fill="#0184FF"/>
<path d="M87.7969 15.0014L89.3665 5.54688H93.272C93.9799 5.54688 94.5692 5.68383 95.0401 5.95774C95.511 6.23165 95.8449 6.61482 96.0419 7.10724C96.2389 7.59967 96.2835 8.17057 96.1758 8.81996C96.0711 9.4755 95.8357 10.0464 95.4695 10.5327C95.1063 11.0189 94.6385 11.396 94.0661 11.6637C93.4936 11.9315 92.8427 12.0653 92.1133 12.0653H89.7081L90.0082 10.2649H91.9933C92.341 10.2649 92.6411 10.2049 92.8935 10.0849C93.1489 9.96484 93.3536 9.79711 93.5075 9.58168C93.6613 9.36624 93.7629 9.11233 93.8121 8.81996C93.8583 8.52758 93.8398 8.27521 93.7567 8.06286C93.6737 7.84742 93.5244 7.68123 93.3089 7.56428C93.0966 7.44733 92.8196 7.38885 92.478 7.38885H91.3516L90.082 15.0014H87.7969Z" fill="white"/>
<path d="M97.9912 15.1214C97.5419 15.1214 97.1541 15.046 96.8279 14.8952C96.5047 14.7414 96.2677 14.509 96.1169 14.1982C95.9692 13.8873 95.9338 13.4995 96.0107 13.0348C96.0785 12.6409 96.2031 12.31 96.3847 12.0423C96.5693 11.7714 96.7955 11.5514 97.0633 11.3821C97.3341 11.2128 97.6357 11.0836 97.9681 10.9943C98.3005 10.9051 98.6483 10.8451 99.0115 10.8143C99.4177 10.7773 99.747 10.7373 99.9994 10.6942C100.255 10.6512 100.446 10.5911 100.572 10.5142C100.698 10.4342 100.775 10.3234 100.803 10.1818V10.1587C100.84 9.92176 100.789 9.73864 100.65 9.60938C100.512 9.48011 100.304 9.41548 100.027 9.41548C99.7316 9.41548 99.4793 9.48011 99.27 9.60938C99.0607 9.73864 98.9145 9.91714 98.8314 10.1449L96.7632 10.071C96.8925 9.64015 97.1141 9.25545 97.428 8.9169C97.7419 8.57528 98.1405 8.30753 98.6237 8.11364C99.1099 7.91667 99.6716 7.81818 100.309 7.81818C100.758 7.81818 101.164 7.87204 101.527 7.97976C101.891 8.0844 102.197 8.23828 102.446 8.44141C102.698 8.64145 102.879 8.88767 102.986 9.18004C103.094 9.47242 103.117 9.80634 103.055 10.1818L102.248 15.0014H100.124L100.29 14.0135H100.235C100.069 14.2536 99.8732 14.4567 99.6485 14.6229C99.4269 14.7891 99.1776 14.9137 98.9007 14.9968C98.6237 15.0799 98.3205 15.1214 97.9912 15.1214ZM98.9422 13.6442C99.1792 13.6442 99.4039 13.5949 99.6162 13.4964C99.8286 13.398 100.007 13.2625 100.152 13.0902C100.299 12.9148 100.393 12.7116 100.433 12.4808L100.54 11.8068C100.475 11.8407 100.393 11.8714 100.295 11.8991C100.196 11.9268 100.092 11.953 99.9809 11.9776C99.8701 11.9992 99.7562 12.0207 99.6393 12.0423C99.5254 12.0607 99.4162 12.0777 99.3115 12.093C99.0899 12.1269 98.8976 12.1792 98.7345 12.25C98.5713 12.3208 98.4405 12.4131 98.3421 12.527C98.2467 12.6378 98.1882 12.7701 98.1666 12.924C98.1297 13.1548 98.1836 13.3333 98.3282 13.4595C98.4729 13.5826 98.6775 13.6442 98.9422 13.6442Z" fill="white"/>
<path d="M104.32 17.6605C104.05 17.6605 103.797 17.639 103.563 17.5959C103.332 17.5559 103.136 17.502 102.972 17.4343L103.748 15.7955C103.954 15.8693 104.143 15.9109 104.316 15.9201C104.491 15.9324 104.648 15.9032 104.787 15.8324C104.928 15.7647 105.051 15.6431 105.156 15.4677L105.285 15.2507L103.988 7.91051H106.269L106.73 12.9748H106.804L108.974 7.91051H111.434L107.478 15.68C107.278 16.0678 107.036 16.411 106.753 16.7095C106.47 17.008 106.129 17.2404 105.728 17.4066C105.331 17.5759 104.862 17.6605 104.32 17.6605Z" fill="white"/>
</svg>
