<svg width="43" height="42" viewBox="0 0 43 42" fill="none" xmlns="http://www.w3.org/2000/svg">
<circle cx="21.5" cy="21" r="21" fill="black"/>
<path d="M13.878 20.9858C13.878 20.9665 13.8705 20.9479 13.8572 20.9342L11.0259 18.0201C11.0126 18.0064 10.9945 17.9987 10.9757 17.9987L10.1798 17.9985C10.161 17.9985 10.1429 18.0063 10.1296 18.0199L7.2983 20.9342C7.285 20.9479 7.27751 20.9665 7.27751 20.9858V25.4316H6V20.9858C6 20.6177 6.14204 20.2646 6.39492 20.0043L9.22621 17.0901C9.47911 16.8298 9.82213 16.6836 10.1798 16.6836L10.9759 16.6837C11.3334 16.6838 11.6764 16.83 11.9293 17.0902L14.7606 20.0043C15.0134 20.2646 15.1555 20.6177 15.1555 20.9858V25.4316H13.878V20.9858Z" fill="white"/>
<path d="M33.663 16.6836C34.0206 16.6836 34.3637 16.8298 34.6166 17.0901L36.605 19.1368C37.1316 19.6789 37.1317 20.5578 36.605 21.0998L34.6166 23.1466C34.3637 23.4069 34.0206 23.5531 33.663 23.5531H28.9182C28.8791 23.5531 28.8473 23.5858 28.8473 23.6261L28.8471 25.3911L27.5696 25.3908L27.5697 23.626C27.5698 22.8595 28.1736 22.2382 28.9182 22.2381H33.663C33.6818 22.2381 33.6999 22.2304 33.7132 22.2167L35.7017 20.17C35.7294 20.1415 35.7294 20.0952 35.7017 20.0667L33.7132 18.0199C33.6999 18.0062 33.6818 17.9985 33.663 17.9985H27.7828V16.6836H33.663Z" fill="white"/>
<path d="M17.7123 21.8735V20.4937C17.7123 20.4744 17.7198 20.4558 17.7331 20.4421L20.0863 18.0199C20.0996 18.0062 20.1177 17.9985 20.1365 17.9985H26.2196V16.6836H20.1365C19.7789 16.6836 19.4359 16.8298 19.183 17.0901L16.8297 19.5124C16.5769 19.7727 16.4348 20.1257 16.4348 20.4937V21.8735C16.4348 22.2415 16.5769 22.5945 16.8297 22.8548L19.183 25.2771C19.4359 25.5374 19.7789 25.6836 20.1365 25.6836H24.942C25.6868 25.6836 26.2906 25.062 26.2904 24.2953L26.29 22.4681L25.0125 22.4683L25.0129 24.2956C25.0129 24.3359 24.9812 24.3686 24.942 24.3687H20.1365C20.1177 24.3686 20.0996 24.3609 20.0863 24.3472L17.7331 21.9251C17.7198 21.9114 17.7123 21.8928 17.7123 21.8735Z" fill="white"/>
</svg>
